<svg xmlns="http://www.w3.org/2000/svg" xmlns:xlink="http://www.w3.org/1999/xlink" height="106.667" width="106.667"><defs><linearGradient id="A" gradientUnits="userSpaceOnUse"><stop stop-color="#fff" offset="0"/><stop stop-color="#fff" stop-opacity="0" offset="1"/></linearGradient><linearGradient id="B" x1="80.239" gradientUnits="userSpaceOnUse" x2="18.904" gradientTransform="scale(0.88267,1.1329)" y1="81.056" y2="13.945"><stop offset="0"/><stop stop-color="#606060" offset="1"/></linearGradient><linearGradient id="C" x1="-19.04" xlink:href="#A" x2="15.224" gradientTransform="matrix(1.2691,-0.13167,0.080881,0.77957,0,0)" y1="52.714" y2="111.34"/><linearGradient id="D" x1="71.088" xlink:href="#A" x2="97.343" gradientTransform="matrix(0.60451,-0.062719,0.1698,1.6366,0,0)" y1="-6.621" y2="37.164"/><linearGradient id="E" x1="95.225" xlink:href="#A" x2="156.68" gradientTransform="scale(0.5831,1.715)" y1="4.425" y2="20.793"/></defs><circle cx="53.333" cy="53.333" r="50" fill="#fff" fill-rule="evenodd"/><g transform="matrix(.768347 0 0 .768347 11.507029 14.20976)"><path d="M69 2.313c-4.182 6.723-5.162 15.576-8.154 23.086l-11.94 37.758c-10.999-12.497-34.629-4.748-36 11.959-2.936 15.69 15.411 29.885 29.906 22.697 13.675-7.187 14.049-24.626 18.983-37.496L72.5 24.844c3.659 9.567 8.861 23.028-.817 30.796-6.038 2.85-4.285 14.034 3.223 11.735 13.141-5.459 18.013-23.406 12.055-35.86-4.419-9.293-10.011-18.167-15.22-27.083-.763-.683-1.266-3.03-2.741-2.119z"/><path fill="url(#B)" d="M69.658 4.101l-2.317 7.341-17.546 55.576c-3.934-5.545-10.574-8.925-17.814-8.174-10.69 1.109-18.465 10.683-17.355 21.374S25.309 98.683 36 97.574c8.428-.875 14.96-7.051 16.838-14.849l19.371-64.054c1.691 2.961 3.68 9.844 5.045 13.829 1.63 4.754 2.529 9.796 1.854 14.228s-2.667 8.334-7.547 11.748c-1.302.761-2.063 2.187-1.973 3.692s1.014 2.828 2.397 3.427a4 4 0 0 0 4.149-.587c6.521-4.562 9.905-10.785 10.861-17.056s.374-12.566-2.213-17.065c-5.06-7.89-8.201-14.225-10.907-18.739-1.247-2.699-2.811-5.365-4.217-8.047z"/><path fill="url(#C)" d="M28.343 60.415c-7.297 2.356-11.243 7.731-12.469 14.228 6.647 28.457 14.41-11.38 33.392-6.187.368-1.99-8.963-11.569-20.923-8.041z"/><path fill="url(#D)" d="M50.706 66.934c4.801-2.272 14.704-50.34 20.975-50.353-1.84-.43-2.171-3.24-2.286-9.791L50.706 66.934z"/><path fill-rule="evenodd" fill="url(#E)" d="M71.542 16.852s22.417 33.863 6.518 35.93c3.657-4.292 3.816-16.534-6.518-35.93z"/></g></svg>