<?xml version="1.0" encoding="UTF-8"?>
<svg width="168mm" height="168mm" version="1.1" viewBox="0 0 168 168" xmlns="http://www.w3.org/2000/svg">
 <g transform="translate(-27.438 -53.14)" fill="none" stroke="#000" stroke-width="1.8">
  <path d="m52.17 102.14c-1.5426-3.8579 8.3141-7.6007 9.2597-3.8886 0.02708 0.10629 0.16313 3.3979 0.17691 3.3972 0.37746-0.0197-0.11373-0.75841-0.05897-1.1324 0.17888-1.2219 0.29612-1.3337 1.4116-1.966 2.1828-1.2373 8.1278-2.8519 10.192-0.53075 0.70283 0.79048 0.69319 3.2046 0.97116 4.1128 0.03687 0.12047-0.08401-0.26914-0.01965-0.37746 0.32782-0.55192 1.873-1.8216 2.1665-2.0053 2.1607-1.352 3.5325-1.1187 6.3776-1.0891 1.5429 0.01593 1.6295 0.09072 1.966 1.4116 0.11991 0.47074 0.0095 1.5135 0.07863 1.5099 0.12583-7e-3 -0.07007-0.26199-0.01965-0.37746 0.0534-0.12232 0.67251-1.1457 0.69596-1.1717 0.16867-0.1872 0.50328-0.0262 0.75493-0.03934 1.2689-0.06608 2.927-0.45559 4.1521-0.21623 0.68514 0.13386 0.45238 1.419 0.47575 1.8677 0.0065 0.12583-0.01315-0.25164-0.01965-0.37746-0.03276-0.6291-0.18954-1.264-0.09829-1.8873 0.18082-1.2351 1.7212-2.2203 2.9214-2.0446 2.0914 0.30617 1.9073 3.4731 2.422 2.9018 2.2669-2.516 1.7241-2.3607 5.544-2.5597 0.62911-0.03276 1.291-0.30151 1.8873-0.09829 0.71377 0.24328 2.0853 1.1751 2.3827 2.1468 0.14749 0.4819 0.10479 2.0131 0.0786 1.5099-0.13475-2.5874 1.9284-3.2848 4.3527-3.6331 1.32-0.18963 2.8092 1.9287 3.1573 2.485 0.27555 0.44036 0.1084 1.8761 0.45609 1.4902 0.30408-0.33749 0.39189-0.83421 0.69596-1.1717 2.1653-2.4032 6.1556-3.451 9.299-3.1337 1.2946 0.13071 2.9207 0.72564 3.8729 1.6907 0.69113 0.70047 1.216 2.7542 2.0053 2.1665 2.9967-2.2313 3.839-3.6985 8.1076-4.2071 1.2405-0.14782 1.8619 0.34893 2.3434 1.3919 0.21126 0.45756-0.42465 1.5361 0.0786 1.5099 0.97077-0.05051 2.4544-3.5378 4.7694-2.8978 2.1793 0.60248 1.9742 1.4152 3.5151 2.0879 0.64972 0.28364 3.0231-1.2331 3.3382-1.3093 0.53395-0.12918 4.654-0.77214 6.0198-0.69197 2.3774 0.13954 3.9776 2.4423 6.177 2.3277"/>
  <path d="m53.896 137.81c0.62996-1.1339 0.97264-2.4846 1.8899-3.4018 3.073-3.073 13.384-5.0698 17.387-3.4018 1.7639 0.73498 1.1339 3.4868 1.1339 4.9137 0 0.12599-0.12599 0.37798 0 0.37798s-0.03056-0.25575 0-0.37798c0.20494-0.81978 0.51805-1.652 1.1339-2.2679 0.84234-0.84234 2.9572-2.4057 4.1577-2.6458 1.734-0.34681 3.5263-0.27414 5.2917-0.37798 0.37732-0.0222 0.86666-0.26727 1.1339 0 0.57203 0.57203 0.37798 2.2427 0.37798 3.0238 0 0.56346 0.40397-1.0719 0.75595-1.5119 1.6211-2.0264 2.8188-1.945 6.0476-2.2679 2.3246-0.23246 4.1512 0.95871 5.6696 2.6458 0.6136 0.68178 0.34575 1.8254 0.75596 2.6458 0.0563 0.11269-0.0563-0.26529 0-0.37798 0.20315-0.40631 0.46513-0.78495 0.75595-1.1339 0.66679-0.80015 2.0315-2.0316 3.0238-2.2678 1.9922-0.47435 8.3541-1.4733 10.583 0.75595 0.67849 0.67849 0.8305 1.7355 1.1339 2.6458 0.0398 0.11953-0.12599 0.37798 0 0.37798s-0.0699-0.27315 0-0.37798c0.49418-0.74127 1.1259-1.4315 1.8899-1.8899 0.98834-0.593 4.1136-1.7328 5.2917-1.8899 2.2148-0.29531 5.965-0.55906 7.9375 0.75595 0.69006 0.46004 0.38974 1.9016 0.75595 2.2679 0.25182 0.25182 0.94049-1.1137 2.2678-1.5119 3.0806-0.92416 7.0281-1.109 10.205-0.75595 1.9289 0.21432 0.88328 1.7666 1.5119 3.0238 0.0593 0.11871 4.8381-1.4421 5.2917-1.5119 1.1141-0.1714 4.5093-0.38677 5.6696 0 0.46706 0.15569 0.37797 0.41997 0.37797 0.75595 0 0.88647 0.94594 0.0808 1.5119 0 0.6531-0.0933 8.3708-0.35029 9.0714 0 0.0624 0.0312 0 1.0334 0 1.1339"/>
  <path d="m56.542 179.01c1.9334-3.0329 3.2234-8.6965 7.1815-9.8274 3.0498-0.87138 3.6072 6.411 5.2917 4.9137 1.001-0.88979 1.629-2.1522 2.6458-3.0238 1.405-1.2043 9.8202-4.6713 11.339-2.6458 0.76573 1.021 0.73972 2.9751 1.1339 4.1577 0.03984 0.11953-0.05634-0.26529 0-0.37798 0.50397-1.0079 0.86567-2.1006 1.5119-3.0238 2.438-3.4828 6.7656-3.4257 10.583-3.0238 3.0788 0.32408 3.4876 5.6696 3.7798 5.6696 0.12599 0-0.0398-0.25845 0-0.37798 0.26727-0.80181 0.61504-1.6007 1.1339-2.2679 1.0611-1.3643 2.4462-2.557 4.1577-3.0238 0.60776-0.16575 1.2599 0 1.8899 0 3.4887 0 5.2917 0.32775 5.2917 4.5357 0 0.12599-0.0563-0.26529 0-0.37798 0.28173-0.56345 0.65563-1.1019 1.1339-1.5119 1.7002-1.4573 4.6423-1.9669 6.8036-1.5119 1.5595 0.32832 3.1103 0.79919 4.5357 1.5119 0.11299 0.0565 1.6611 2.6806 1.8899 3.0238 0.0699 0.10483-0.0891 0.46706 0 0.37797 0.43316-0.43315 0.70077-1.4567 1.1339-1.8899 1.657-1.657 6.879-3.5342 9.0714-1.8899 0.92074 0.69055-0.11411 0.6989 0.75595 1.1339 0.7224 0.3612 4.2101-1.0438 5.2917-1.1339 5.3461-0.44551 3.1986 0.93079 5.2917 3.0238 0.56545 0.56545 2.2985-1.0471 2.6458-1.1339 0.61115-0.15279 1.2638 0.0696 1.8899 0 4e-3 -5.3e-4 1.8423-0.59074 2.2679-0.37798 0.65802 0.32902 0.14635 2.4142 0.75595 3.0238 0.18337 0.18337 5.2597-3.2864 7.1816-2.6458 0.78336 0.26112 1.3853 1.3854 1.8899 1.8899 0.34713 0.34713 2.6458 1.4301 2.6458 1.8899"/>
 </g>
</svg>