<svg width="717.333" height="762.667" viewBox="0 0 538 572" fill-rule="evenodd" xmlns:xlink="http://www.w3.org/1999/xlink" xmlns="http://www.w3.org/2000/svg"><ellipse cx="270" cy="280" rx="270" ry="280" fill="#fff"/><defs><path id="a" d="M301.3 141.5c0 2.7.2 3.8.4 2.2.2-1.5.2-3.7 0-5-.2-1.2-.4 0-.4 2.8z"/><path id="b" d="M209.8 203.7c.7.3 1.6.2 1.9-.1.4-.3-.2-.6-1.3-.5-1.1 0-1.4.3-.6.6z"/></defs><path fill="#f3fbfd" d="M540.83 280.812c0 11.765-.724 23.341-2.08 34.824-1.356 12.612-3.707 24.754-6.691 36.707H203.826v202.546c-12.117-3.106-23.962-7.059-35.265-11.953-23.962-9.977-46.206-23.342-66.189-39.813-12.66-10.259-24.504-21.836-35.265-34.26v-116.52H7.067C4.083 340.39 1.732 328.248.376 315.636a293.795 293.795 0 0 1-2.08-34.824c0-11.86.723-23.342 2.08-34.825 1.356-12.612 3.707-24.753 6.69-36.707h60.041V92.76c10.76-12.424 22.606-24 35.265-34.26 19.983-16.471 42.318-29.742 66.19-39.813 11.302-4.894 23.147-8.847 35.264-11.953V209.28h328.233c2.984 11.954 5.335 24.095 6.691 36.707 1.356 11.483 2.08 23.06 2.08 34.825z"/><path fill="#002a71" d="M540.83 280.812c0 11.765-.724 23.341-2.08 34.824H168.561v227.3c-23.962-9.977-46.206-23.342-66.189-39.813V315.636H.376a293.795 293.795 0 0 1-2.08-34.824c0-11.86.723-23.342 2.08-34.825h101.996V58.5c19.983-16.471 42.318-29.742 66.19-39.813v227.3H538.75c1.356 11.483 2.08 23.06 2.08 34.825z"/><path fill="#ff191b" d="M67.107 92.76v116.52H7.067c10.941-43.86 31.919-83.672 60.04-116.52zM67.107 352.343v116.52c-28.121-32.847-49.099-72.66-60.04-116.52zM532.059 209.28H203.826V6.828c21.068-5.365 43.04-8.377 65.737-8.377 126.139 0 232.024 89.603 262.496 210.83zM532.059 352.343c-30.472 121.226-136.357 210.829-262.496 210.829a261.453 261.453 0 0 1-65.737-8.377V352.343z"/><path fill="none" d="M540.83 280.812c0 11.765-.724 23.341-2.08 34.824-1.356 12.612-3.707 24.754-6.691 36.707-30.472 121.226-136.357 210.829-262.496 210.829a261.453 261.453 0 0 1-65.737-8.377c-12.117-3.106-23.962-7.059-35.265-11.953-23.962-9.977-46.206-23.342-66.189-39.813-12.66-10.26-24.504-21.836-35.265-34.26-28.121-32.848-49.099-72.66-60.04-116.52-2.984-11.954-5.335-24.095-6.691-36.707a293.795 293.795 0 0 1-2.08-34.825c0-11.859.723-23.341 2.08-34.824 1.356-12.612 3.707-24.754 6.69-36.707 10.942-43.86 31.92-83.672 60.041-116.52 10.76-12.424 22.606-24.001 35.265-34.26 19.983-16.471 42.318-29.742 66.19-39.813 11.302-4.894 23.147-8.847 35.264-11.953 21.068-5.365 43.04-8.377 65.737-8.377 126.139 0 232.024 89.602 262.496 210.83 2.984 11.952 5.335 24.094 6.691 36.706 1.356 11.67 2.08 23.248 2.08 35.013z"/><g><path d="M247.3 30c-1.8 1.1-4.6 3.9-6.4 6.2-2.9 4-3.1 4.8-2.6 10.4.4 5.2 1 6.7 3.6 9.7 5.5 6 14.9 7.2 23.5 3.1 5.1-2.5 7.6-7.2 7.6-14.5 0-6.5-2.4-10.9-7.9-14.6-4.5-3-13.2-3.2-17.8-.3zm14.8 7.7c1 1 2.2 3.9 2.5 6.4.6 4.1.3 4.9-2.4 8-8.9 10-21.4-3.9-13-14.6 1.9-2.4 2.6-2.7 6.6-2.2 2.4.3 5.3 1.3 6.3 2.4zm18.4-.8c-.4 5-1.1 9.4-1.6 9.7s-.9 3.6-.9 7.5V61h7.9l.6-5.3c.9-7.2 1.7-8.4 4.7-7 1.7.8 2.8 2.8 4.1 7.2 1.6 5.7 1.9 6.1 4.6 6.1 1.6 0 3.7.3 4.6.7 2 .7 1.8-.5-2.1-10.2-2.1-5.2-2.2-6.1-.9-7.5 2.9-3.2 3.7-7.3 2.1-11.2-1.9-4.4-2.9-4.8-13.7-5.5l-8.7-.6-.7 9.2zm14.5-.4c1.9 2.3.4 4.5-3 4.5-2.7 0-3-.3-3-3 0-2.5.4-3 2.4-3 1.3 0 2.9.7 3.6 1.5zm24.5-1.5c-5.4 2.7-8.7 7.8-9.3 14.4-.7 9.1 4.2 15.6 13.5 17.7 6.4 1.5 7.9.9 8.5-3 .4-3 .3-3.1-3.4-3.1-5.2 0-7.7-1.5-9.3-5.4-2-4.8-.9-10.1 2.7-13.1 3.4-2.9 6.4-3.1 11.5-1 2 .8 3.7 1.4 3.9 1.3.1-.2.4-1.9.6-3.8.3-3.2 0-3.6-3.2-4.7-5.3-1.8-11-1.5-15.5.7zm27 4.1c-5 14.3-7.7 21.3-9.4 24.7-1.2 2.3-2.1 4.5-2.1 5 0 .4 1.8 1.3 3.9 1.8 4.3 1.2 4.6.9 6.7-6.6 1.5-5.5 3.4-6.1 10.1-3l4.2 1.9-2.5 6.2c-2.6 6.4-2.3 7.8 1.5 7.9.8 0 2.3.7 3.3 1.7 1.4 1.3 1.8 1.3 1.9.2.5-6.3.9-8 2.6-11.4 3.5-7 7.6-19.6 6.6-20.6-.5-.5-2.2-1.1-3.9-1.5-2.8-.5-3.1-.3-4.2 3.3-2.1 6.6-2.2 6.7-8.6 4.9-3.1-.9-5.6-1.8-5.6-2s.7-2.3 1.5-4.6c1.9-5.5 1.9-6.7-.2-7.3-1-.2-2.6-.8-3.5-1.2-1.1-.4-2-.2-2.3.6zM221.2 49c-.6 1.1-1.2 2.6-1.2 3.3s-.5 1.8-1.2 2.5c-.9.9-1.6.6-3-1.6-1-1.5-1.8-2.1-1.8-1.3s1 2.5 2.1 3.7l2.1 2.3-5.8-.4c-4.8-.3-5.2-.2-1.9.4l4 .7-2.8 1.2c-1.6.7-3.2 1.2-3.6 1.2-.5 0-1.5.8-2.2 1.7-1.3 1.6-1.2 1.7.4.4 3.7-2.9 2.5-.2-1.8 4.1-2.5 2.5-4.5 5.2-4.5 5.9.1 1.1.3 1 1.3-.2 4.4-5.7 6.3-7.9 7-7.9 1.1 0-1.3 4.3-2.9 5.3-.7.4-1.6 2.3-2 4.2-.3 2-1 3.8-1.5 4.1-1.2.7-1.1 9.1.1 9.9.6.4 1-1.3 1-4.5 0-2.8.7-6.7 1.5-8.7 1.7-4.1 3.1-4 1.5.1-.5 1.5-.9 4.6-.9 6.9l.2 4.2.6-4.7c.8-5.5 2.1-7.4 2.2-3.2.1 2.1.3 2.3.6.9.3-1.1.9-2.4 1.4-3 1.4-1.4 1.1-3.5-.6-3.5-1.8 0-1.8-.5-.4-3.1.6-1.1 1.7-1.8 2.4-1.5.8.3 1.8-.7 2.5-2.5 1.5-3.6 2.9-4.6 2.7-1.9-.1 1.1-.5 2-.9 2-1.4 0-3.8 10.4-3.7 15.9.2 5.9.3 5.4 1.5-4.4.7-5.2.8-5.6 1.5-3l.7 3 .2-3c.1-1.7.5-3.9.9-5 .7-1.7.9-1.4 1.3 1.5.3 1.9.2 3.6-.3 3.8-1.3.5-1.1 9 .2 9.7.6.4.8 1.3.5 2-.3.9.4 1.5 1.7 1.7 1.7.2 2.2 1 2.2 3.3 0 2.5-.5 3.2-3.3 4.1-1.8.5-2.9 1.3-2.6 1.7 1 .9 3.6.9 5.2-.2 1.7-1.1 4.3-15.4 3.7-20.1-.4-2.7-.3-3 .4-1.5.5 1.1 1 3.1 1 4.4.1 2 .3 2.1 1.6 1.1 1.3-1.1 1.5-.8 1.5 1.4 0 1.4-.4 2.6-.9 2.6s-1.1.6-1.4 1.4c-.4.9.3 1.3 2 1.3 2.5 0 2.5-.1 2-5.5-.4-3.8-.3-5.2.5-4.4.6.6 1.3 3.1 1.5 5.6.3 2.5 1 4.6 1.4 4.6 1.7 0-2.4-15.2-4.6-17.4-1.9-1.8-1.9-2.6-.1-2.6s5.6 6.5 6.3 10.7c.3 1.8 1 3.3 1.5 3.3 1.6 0-.1-7.1-2.5-10.5-1.2-1.6-3.1-3.8-4.2-4.7-2.6-2.3-.3-2.3 3.3-.1 3.8 2.4 6.1 5.4 6.3 8.3.1 2 .3 1.7 1.1-1.3 1.2-4.6-.5-7.8-5.7-10.3-2-.9-3.3-1.9-3.1-2.2.3-.3 1.2.1 2.1.8s1.9 1 2.3.6-.2-1.4-1.2-2.2c-2.2-1.5-12.6-2-12.6-.5 0 .5-.6 1.1-1.4 1.4-1 .4-1.2 0-.9-1.4.5-1.8 2.3-2.4 10.3-3.3 1.9-.2.7-.3-2.7-.2-5.9.2-6.2.1-4.6-1.6.8-1 2.4-2 3.4-2.3 2.2-.7 2.5-2.5.4-2.5-.8 0-1.9.9-2.5 2-1.1 2-4 2.8-4 1.1 0-.5.4-2.1 1-3.5 1.1-3.1 0-3.4-1.8-.6zm.9 22.4.2 6.1.6-5.7c.9-8.6 1.8-7.8 1.4 1.5-.3 9.9-.3 9.8-1.3 6.7-.7-2.1-.8-1.8-1.1 2-.1 2.8-.5.9-.9-5-.4-5.2-1-10.3-1.4-11.3-.6-1.3-.5-1.6.8-1.1 1.2.5 1.6 2.1 1.7 6.8zm15.4-5.4c.3.5.1 1-.4 1-.6 0-1.1-.5-1.1-1 0-.6.2-1 .4-1 .3 0 .8.4 1.1 1zm145.8-12.8c-.5.7-1.5 2.6-2.3 4.3-.8 1.6-2.1 3.6-2.8 4.4-.7.7-2.9 4.5-4.8 8.4l-4.6 8.4c-1.5 1.8-.8 2.4 8.9 7.2 9.3 4.7 10.8 4.9 12.3 2.1 1.4-2.7 1-3.3-5.5-6.9-3-1.7-5.5-3.5-5.5-4s.8-1.8 1.8-2.9l1.7-2.1 5.9 2.9c5.5 2.7 6.1 2.8 7.3 1.2.7-.9 1.3-2.3 1.3-3 0-1.4-8.6-7.2-10.7-7.2-1.9 0-1.6-1.3.8-2.8 1.7-1.1 2.8-.9 7.5 1.5l5.5 2.8L402 65c2.3-3 2.2-3-7.5-8.4-7.7-4.3-10-5-11.2-3.4zm-238.8 4.4c-3.3 2-8.1 4.6-10.7 5.7-5 2.1-5.9 3.8-3.5 7.1 1.2 1.7 1.5 1.7 5.2.2 3.9-1.7 3.9-1.6 6.2 1.1 1.2 1.5 3.8 5.9 5.8 9.8 5.1 10.4 4.8 10 8.4 7.9 1.7-1 3.1-2.1 3.1-2.5 0-1.5-3.4-8.6-5.4-11.4-2.2-3.1-5.6-10.1-5.6-11.5 0-.5 1.6-1.4 3.5-2.1 3.9-1.4 4.5-3.7 1.7-6.2-1-1-2-1.7-2.3-1.7-.2 0-3.1 1.6-6.4 3.6zM210 70a1.08 1.08 0 0 0 1 1c.6 0 1-.5 1-1a.94.94 0 0 0-1-1c-.5 0-1 .4-1 1z"/><path d="M329.1 70.6c0 1.1.3 1.4.6.6.3-.7.2-1.6-.1-1.9-.3-.4-.6.2-.5 1.3zm80.4-.5c-3 1.7-5.5 5.1-5.5 7.7 0 2.8 2.4 7.6 5.1 10.3 2.8 2.8 2.1 5.3-1.8 5.7-2.5.3-3.8-.4-6.7-3.4-2-2-3.6-4.1-3.6-4.6 0-1.7-1.6-.7-3.3 2.1-1.9 3.2-1.2 6.6 1.7 9 .9.7 1.6 2 1.6 2.7 0 .8.5 1.4 1 1.4.6 0 1-.5 1-1.1 0-.5 1-.3 2.2.5 5.5 3.9 16 .5 17.6-5.6 1-3.8.1-6.9-3.4-11.5-2.4-3.1-3.2-6.3-1.6-6.3 2.3 0 6.3 2.8 7.3 5.2 1.2 3 2.9 3.7 2.9 1.3 0-.9.7-1.8 1.5-2.1 2.7-1.1 1.6-4.2-2.7-7.7-4.7-3.9-10.2-5.3-13.3-3.6zm-290.3 2.5c-1.2.8-2.2 2.1-2.2 2.8 0 1.5 5.8 9.7 8.2 11.4 4.1 3 1.2 2.9-8.3-.4-5.5-1.9-10.4-3.4-10.7-3.4-.4 0-2.2.9-4 2-3.7 2.3-3.5 3.1 1.8 8.9 1.8 1.9 4.2 5 5.5 7 1.2 2 3.3 4.5 4.5 5.6s2.6 3 3.1 4.2c1 2.8 3.6 2.9 6.7.3l2.3-1.9-5.1-6.9c-2.7-3.8-5-7.1-5-7.4s3.5.5 7.8 1.9c13.3 4.2 13.5 4.3 16.7 1.7l2.8-2.2-4.3-5.4c-2.4-2.9-4.9-5.8-5.5-6.3-.6-.6-3-3.8-5.4-7.3-2.4-3.4-4.9-6.2-5.5-6.2s-2.2.7-3.4 1.6zm176.8.9c0 1.4.5 2.5 1 2.5.6 0 1-1.1 1-2.5s-.4-2.5-1-2.5c-.5 0-1 1.1-1 2.5zm31 3.5c0 1.1.5 2 1 2 .6 0 1-.9 1-2s-.4-2-1-2c-.5 0-1 .9-1 2zm-112.9 6.2L214 89l-4.3-.6c-5.5-.8-7.2 1-6.4 6.6.3 2.2.1 3.8-.3 3.5-1.4-.9-2.2 1.4-1.6 4.1.6 2.3 3.6 3.5 3.6 1.4a.94.94 0 0 0-1-1c-.5 0-1-.7-1-1.5s.6-1.2 1.4-.9 1.7.1 2.1-.5c.3-.6 1.7-1.1 3.1-1.1 2.1 0 2.4.5 2.4 3.4 0 2.5-.7 3.9-2.5 5.3-3.2 2.3-2.5 6.3 1.1 6.3 2.1 0 2.4.4 2.4 4.2.1 5.2 2.1 8.4 4.7 7.3 1.5-.6 1.5-.8.3-1.3-2.7-1-4-3-4-6.6 0-3.3.2-3.5 3.8-3.8 3.2-.3 3.7-.6 4-3.1.3-2.6.1-2.8-2-2.2-1.3.4-3 1.6-3.9 2.8-2.9 3.5-4.1 1.2-3.4-6.2.4-3.6 1.1-7 1.6-7.6.5-.5.9-2.6.9-4.6 0-2.1.5-4.1 1.1-4.4.6-.4.7-1.4.3-2.4-.4-.9-1-3.2-1.4-5.1-.7-3.1-.8-2.9-.9 2.2zm-3.3 6.7c.8.4 1.2 2.1 1 3.7-.2 2-1 3-2.8 3.5-1.4.3-3.1.1-3.7-.4-1.4-1-1.8-5.9-.6-7 .9-1 4.5-.8 6.1.2zm8.4 22.3c-.7.7-1.2.8-1.2.2 0-1.4 1.2-2.6 1.9-1.9.2.3-.1 1.1-.7 1.7z"/><path d="M207.5 94c.3.5 1.1 1 1.6 1 .6 0 .7-.5.4-1-.3-.6-1.1-1-1.6-1-.6 0-.7.4-.4 1zM241 82.2c0 4.6-1.2 6-6.5 7.1-1.3.3-1 .5 1 .6 2.6.1 2.7.3 1.2 1.2s-1.6 1.2-.2 2.5c1.6 1.7 3.5 1.1 3.5-1.2 0-1.6 2.6-1.9 3.5-.4.3.5.1 1-.5 1s-.8.5-.5 1c.3.6.3 2 0 3.1-.5 1.6-1.2 1.9-3.1 1.5-1.9-.5-2.4-.2-2.4 1.3s.5 1.8 2.3 1.4c3.3-.9 4.7-2.3 4.7-4.9 0-1.3.4-2.4 1-2.4 1.7 0-.2 6.4-2.6 9-2 2.1-2.7 2.3-4.3 1.3-1-.7-2-1-2.2-.8-.9.8.3 24.5 1.2 24.5.5 0 .9-4.8.9-10.9 0-10.5.1-10.9 2.3-11.4 3.3-.9 7.7-8.3 7.7-13 0-3.5.2-3.8 1.6-2.6 1 .8 1.4 2.3 1.2 4.1-.3 1.5-.1 2.8.4 2.8 1.6 0 .8-5.8-1.2-8.1-1-1.3-1.9-1.8-2-1.1 0 .8-.9 1.1-2.7.7-1.6-.3-2.2-.2-1.5.1 2 .9 1.4 2.3-.8 1.7-1.4-.4-1.9-1.1-1.5-2.3.8-2.6.9-8.9.2-9.7-.4-.3-.7 1.4-.7 3.9zm-33.8 2.3c0 1.6.2 2.2.5 1.2.2-.9.2-2.3 0-3-.3-.6-.5.1-.5 1.8zm30.3-.5c.3.5 1 1 1.6 1 .5 0 .9-.5.9-1 0-.6-.7-1-1.6-1-.8 0-1.2.4-.9 1zm59.9 8.2c.2 5.1.6 10.9.8 12.8l.3 3.5-5.2.3c-2.9.2-5.3.8-5.3 1.3 0 .6-1.7.8-4.4.4-3.7-.6-4.7-.4-6.5 1.4L275 114h4c2.2 0 4-.3 4-.8 0-1 14.3-.2 15.5.9.5.5 1.2 4.9 1.6 9.7l.7 8.7-.1-9.2c-.1-6.2.3-9.7 1.2-10.7 1.1-1.3 1.1-1.6-.1-1.6s-1.6-2.1-2.2-9.2c-.3-5-.6-11.3-.6-14s-.5-4.8-1.1-4.8c-.7 0-.9 3-.5 9.2zm63.6-8.4c0 .6-1.6 4.5-3.5 8.6-3.8 8.1-4.6 10.9-1.7 6.1 2.7-4.5 6.5-14.5 5.8-15.2-.3-.3-.6-.1-.6.5zm71.7 2-2.6 2.7 2.9 2.4c1.7 1.3 3 2.7 3 3.3 0 .5-4.1 4.9-9.1 9.9l-9.1 9 2.3 2.5c1.2 1.3 2.7 2.4 3.3 2.4s5.1-4 10-8.9l8.9-9 3.6 2.9 3.5 3 2.3-2.2c2.8-2.6 2.4-3.2-8.4-13.3l-8-7.4-2.6 2.7zm-107.1 2.8c-.7 5.7-.8 10.9-.1 10.2s1.9-14.8 1.2-14.8c-.2 0-.7 2.1-1.1 4.6zM307 91.4c0 1.4.5 2.8 1 3.1.6.4 1-.7 1-2.4s-.4-3.1-1-3.1c-.5 0-1 1.1-1 2.4zm-80.2-.7c1.2.2 3 .2 4 0 .9-.3-.1-.5-2.3-.4-2.2 0-3 .2-1.7.4zM83.7 101.8c-4.2 4.2-7.7 8.2-7.7 8.7 0 .6 2.5 3 5.5 5.5s5.5 4.8 5.5 5.2c0 .3 2.9 2.9 6.5 5.7 7.7 6.1 8 6 16.9-3.6l5.9-6.3-2.3-2.5-2.4-2.5-3.5 3.3c-7.5 6.8-7.3 6.8-10 4.6l-2.4-2 5.2-5.3 5.3-5.3-2.9-2.1-3-2.1-5.1 4.9c-4.6 4.4-5.3 4.7-6.7 3.4-1.9-2-1-3.7 4.5-8.7l4.3-3.8-2.3-2.4c-1.3-1.4-2.6-2.5-2.9-2.5-.4 0-4.1 3.5-8.4 7.8zM307.5 97c.3.5.8 1 1.1 1 .2 0 .4-.5.4-1 0-.6-.5-1-1.1-1-.5 0-.7.4-.4 1zm.3 2.6c-.5.4-.8 2.9-.8 5.6 0 3.6-.4 4.8-1.5 4.8-.8 0-1.2.6-.9 1.4.7 1.7 9.7 4.1 12.1 3.2.9-.4 2-.2 2.3.5.8 1.2 12.9 4.3 13.7 3.5.3-.3-1.2-.8-3.3-1.2-2.2-.4-4.2-1.2-4.7-1.8-.4-.6-.5-4-.3-7.6l.5-6.5-1.2 7c-.9 4.9-1.5 6.4-2 5.1-.5-1.4-1.5-1.7-3.7-1.4-1.7.3-3 0-3-.5s-1.2-.6-2.6-.3c-1.7.5-2.3.3-1.9-.4.3-.5.2-1-.4-1-.5 0-1.1-2.5-1.3-5.6s-.6-5.2-1-4.8zm86.4 3.6c-.7.7-1.2 1.6-1.2 2.2 0 .5-1.2 2.5-2.7 4.4-1.5 2-2.2 3.2-1.6 2.9 1.7-1 8.4-10.7 7.5-10.7-.4 0-1.3.5-2 1.2z"/><path d="M452.3 112c-2.8 2.2-5.6 4-6 4-.5 0-3 1.8-5.7 4-2.6 2.2-5.1 4-5.5 4-.3 0-1.5.7-2.5 1.5-1.9 1.4-1.8 1.6.8 5.5 1.4 2.2 3 4 3.4 4 .5 0 1.8 1.7 3 3.7 3.8 6.7 3.6 6.5 6.5 5.2 4.1-1.9 4-3.7-.3-9.1-2.2-2.8-4-5.4-4-5.9 0-.4 1.3-1.4 3-2.2 2.8-1.5 3-1.4 5.4 1.8 1.4 1.8 3.1 4.5 3.7 5.9 1.5 3.2 1.7 3.2 5.3.3l2.9-2.3-3.8-5.3c-2.9-4.1-3.6-5.7-2.9-6.9 1.8-2.8 2.8-2.2 6.2 3.3 1.8 3 3.8 5.5 4.3 5.5s2-.7 3.3-1.5l2.4-1.6-1.9-3.9c-1.1-2.2-2.7-4.4-3.7-4.9-.9-.5-2.8-2.8-4.2-5-1.4-2.3-2.9-4.1-3.5-4.1-.5 0-3.3 1.8-6.2 4zm-248.2 0c-.1 1.9-.6 5.1-1.2 7-1.6 5.3-1.2 10.5 1.3 15.9 2 4.2 3 5.1 7.1 6.6 4.7 1.7 6.1 4 3.2 5.1-.8.4-1.5 1.1-1.5 1.6s-.9 2.3-2.1 3.9c-1.1 1.6-1.8 3.3-1.5 3.8 1 1.5-2.7 2.2-4.2.8-1.1-1.2-.7-2 3-5.1 2.4-2.1 3.4-3.4 2.3-3s-3 1.7-4.3 3c-2.9 3-3.4 3-7-.1-2.9-2.4-11.2-6.8-17.9-9.5-2.2-.8-6.5-1.1-13.5-.7-37 1.7-46.5 2.7-48.3 4.9-.5.7-2.7 2.2-4.8 3.3-4.1 2.1-12.3 9.8-16.6 15.5-1.4 1.9-2.8 3.7-3.2 4-.3.3-2.6 4.8-5.1 10-3.2 6.7-4.9 11.9-5.8 17.5-.7 4.4-1.7 8.4-2.1 9-1.2 1.2-1.1 30.1 0 32.3.5.9 1.5 5.1 2.2 9.2 1.3 7.6 5.8 18.9 8.5 21.1.8.6 1.4 1.7 1.4 2.4 0 .6.9 2 2 3s2 2.3 2 2.9c0 2.1 14.7 15.2 20 17.8 12.1 5.8 11.9 5.8 27.5 6.2 15.7.5 50.3-1.7 53.3-3.3.9-.5 2.2-1 2.7-1.1 3-.7 15.7-7.3 18.4-9.6 1.7-1.4 3.1-2.1 3.1-1.5 0 1.2-4.7 6.1-6 6.1-.5 0-1.5.6-2.2 1.3-4 3.8-19.2 11.7-22.5 11.7-.8 0-3.9 1.3-6.7 3-3.4 1.9-6 2.7-7.4 2.3-2.9-.7-5.2 1.3-5.2 4.6 0 3-2.6 4.9-13.5 10.1-3.8 1.8-7.2 3.6-7.5 3.9s-2.6 1.6-5.2 2.9c-2.7 1.3-4.8 2.9-4.8 3.7s-1.8 1.5-4.5 1.9c-2.5.4-4.5 1.1-4.5 1.7 0 .5-1.5.9-3.3.9s-3.7.4-4.2.9c-.6.4-3.1 1.5-5.6 2.4-4.9 1.6-6.9.9-6.9-2.2 0-.9-1.4-4.3-3-7.5-1.7-3.2-3-6.5-3-7.3 0-2.3-2.9-7.2-8.7-15-5.6-7.4-7.8-8.9-11.3-7.8-1.7.5-2 1.5-2 6.2 0 7.6 1.9 18.4 3.6 20.4.8.8 1.4 1.9 1.4 2.3 0 1.7 6.4 15.3 8.6 18.2 1.5 2 2.1 3.9 1.7 5.3-1.4 5.5 6.5 20.1 10.2 18.7 1.1-.4 1.5.1 1.5 1.9 0 3.7 3 10.6 5.8 13.7 3.4 3.6 7.4 3.2 12.1-1.3 1.9-1.9 4.6-4.2 5.9-5.3 2.3-1.8 2.4-1.8 5.2.9 1.9 1.8 2.6 3.2 2.1 3.9-.6.7 0 1.1 2 1.2s4.1 1.3 6.5 3.8c1.9 2 4 3.6 4.6 3.6.5 0 .8.7.4 1.5-1.1 3 1 1.4 3.7-2.9 1.5-2.4 4.5-6.1 6.7-8.2 2.2-2.2 4-4.4 4-5s.7-1.7 1.5-2.4c1.7-1.4 5.2.4 9.3 4.8 1.3 1.3 2.6 2.1 3 1.7s-.6-1.7-2.2-2.9c-7.2-5.3-7.2-5.3-5.5-7.1 1.4-1.4 2.2-1.2 9.2 2.4 4.3 2.1 9 4.2 10.5 4.5s-.2-.8-3.7-2.4c-3.5-1.7-6.8-3-7.2-3-.5 0-.9-.4-.9-.9s-1.1-1.2-2.5-1.5c-3.6-.9-3.2-3.9 1.3-8.9 2.1-2.3 5-6 6.6-8.2 2.5-3.7 2.4-3.6-1.9 1-2.5 2.7-5.8 6.7-7.2 8.8-2.9 4.2-5 4.3-9.2.2-2.3-2.2-2.3-2.3-.5-4.4 1.1-1.2 3.7-3.8 5.9-5.9 11-10.2 15.7-15.2 15.3-16.3-.2-.7-1.4.4-2.6 2.4-1.2 2.1-2.7 3.7-3.4 3.7s-5.1 3.8-9.7 8.4c-5.6 5.7-8.9 8.2-9.9 7.8-1.1-.4-1.4-.1-.9 1 .3.9-.2 2.3-1.2 3.2-1.6 1.5-2 1.4-4.6-1.4-2.5-2.6-2.6-3.1-1.4-4.7 2.3-2.9 6.3-6.2 7.5-6.3.6 0 2.4-1.8 3.9-4s3.5-4.2 4.5-4.5c1.8-.6 3.2-1.6 11.7-8.7 4.8-3.9 5.2-4.6 5-8.1-.3-4 .8-5 1.8-1.7.9 2.7 1.5 2.6 6.6-1.5 2.4-1.9 4.7-3.5 5.1-3.5s4.6-2.3 9.4-5c4.8-2.8 8.8-5 8.9-5 .3 0 1.5 5.9 3.4 17 1.4 7.8 1.3 21.4 0 22.7-.7.7-.9 1.9-.5 2.9.4.9.9 1.4 1.3 1 3.5-3.4 5 39 1.8 48.9-3.3 10.3-3.5 10.5-7.1 10.5-1.8 0-3.6.5-4 1.1-1.2 2-9.5 4.9-14.1 4.9-5.2 0-15.2 2.6-17.2 4.5s-.4 3.7 2.7 3c5.5-1.1 7.9-1.6 14.7-2.6 3.9-.5 8.8-1.4 11-2 2.2-.5 10.9-1.4 19.3-2.1 12.6-1 15.2-1.4 15.2-2.7.1-1.9 7-10.1 7-8.4 0 .7-.9 2.2-2 3.3-3.1 3.1-2.4 4 3.1 4 5 0 5.1.1 4.5 2.5-.5 2-.3 2.5 1.1 2.6 10.9.3 20.4.1 23.2-.4 1.9-.4 4-.2 4.6.3.7.5 4.5 1.2 8.6 1.4l15.4 1.3c11.6 1.1 20.8 1 21.2-.3.4-1.1-8.3-3.8-10.3-3.3-.5.2-2.5-.2-4.4-.8s-5.6-1.4-8.1-1.8c-5.2-.7-8.9-2.8-7.1-3.9.7-.4 1.2-.3 1.2.3 0 1.1 4.3 2.2 8.9 2.3 1.7.1 3.1.4 3.1.8 0 1.2 6 1.8 6.7.7.3-.5.9-.3 1.4.4.8 1.1 1.2 1 2.4-.5 1.7-2.3 2-4.6.5-4.6-.5 0-1 .6-1 1.2 0 .7-1.1 0-2.3-1.6-1.7-2.1-2.9-2.7-4.2-2.3-1.1.5-2.2.1-3-1-1.2-1.6-1.5-1.5-3.2 1.5-1 1.7-2.1 3.2-2.5 3.2-1 0 .3-3.3 1.5-4.2 1.2-.7-6.1-4-7.3-3.3-.5.3-1.1.1-1.5-.5-.9-1.5-2.3-1.2-4.6 1.1-3.6 3.6-4.9 1.8-4.9-6.9 0-4.3.5-8.3 1-8.8.7-.7.7-2.1-.1-4.3-1.1-3.1-.8-7.6.6-11.2.5-1.2-.6-1.9-4.7-3.2-3.1-.9-3.9-1.4-1.8-1 9.1 1.5 16.3 2 26 1.6 16.2-.6 25.7.2 37.5 3 5.7 1.3 6 1.5 5.8 4.3s-.2 2.8.9.6c1.5-2.9 4.9-2.8 8.5.2 4 3.4 10.4 6.6 13.1 6.6 1.3 0 3.7-.8 5.5-1.7s3.7-1.7 4.2-1.7c.6-.1 2.6-1.4 4.6-2.9 3.9-2.9 5.7-6.2 6.3-11.4.3-1.8 2.7-6.1 6-10.5 3.1-4 6.1-8.9 6.8-10.8.6-1.9 2.2-5.5 3.5-7.9 3.3-6.3 3.1-12.2-.4-15.6-5.5-5-11.6-2.7-18.1 6.9-4.6 6.6-6.5 12-5.6 15 .4 1.1.2 1.6-.4 1.2-.6-.3-1.3.7-1.7 2.4-.8 3.7-3 3.9-11.2 1-3.2-1-7.6-1.9-9.8-1.9s-5.8-.9-8-2c-2.1-1.2-4.4-2.1-5-2.1s-4.6-1.2-9-2.6c-5.5-1.7-9.2-2.3-11.7-2-4.7.8-4.8-.3-.5-5.4 2.1-2.7 4-4 5.7-4 4.3-.1 10.4-2.4 16.6-6.3 5.2-3.3 6.5-4.8 10.7-12.6 2.6-5 4.7-10.1 4.6-11.7 0-2.4-.3-2.1-1.7 2.1-1 2.7-2.7 6.6-4 8.5-1.2 1.9-2.2 4-2.2 4.6 0 4.4-15.4 13.4-24.7 14.4-5.2.6-5.3.6-5.3-2.1 0-1.5-.5-3.1-1.2-3.5-.7-.5-.9-.1-.6 1.3.4 1.3-.2 2.7-1.3 3.7-3.2 2.7-13.7 2.1-13.8-.8 0-.5-1-1.4-2.2-2-3.4-1.7-3.8-3.9-.4-2.6 3.2 1.2 6.8 1.3 6.1.1-.3-.5-2.6-1.4-5-2-3.1-.7-4.7-1.8-5.1-3.2-.9-2.8-.3-3.1 3.1-1.5 1.6.8 4.7 1.7 6.9 2 3.3.5 3 .3-1.7-1.2-6.6-2-7.3-2.6-8.1-7-.8-4-.1-4 6.8-.2 3 1.6 6.2 3 7.2 3 2.3 0 4.3-1.9 4.3-4 0-1 .9-2.7 2-4 2-2.4 2.9-9.7 1-8.5-.5.3-1-.3-1-1.4 0-1.2.6-2.1 1.4-2.1 2.5 0 3 15.1.8 23.2-.5 2.1-.6 3.6-.2 3.3.4-.2 1-1.8 1.3-3.4.4-1.7 2.2-4.1 4.5-5.9 5.5-4.4 12.4-13.6 11.6-15.5-.6-1.6 4-12.3 6.9-16.1 1.4-1.9 1.5-1.9 3 1 .9 1.6 4.1 5.6 7.1 8.8 3 3.3 5.7 6.6 5.9 7.5.3 1.1.5 1 .6-.5 0-1.1-.9-3-2.1-4.1-4.3-3.9-9.8-10.5-9.8-11.8 0-.6-.8-1.9-1.8-2.8-1.3-1.2-1.7-2.6-1.4-4.7.6-4-2.1-9.4-6-12.1-2.9-2.1-3.4-2.2-9.2-1-3.4.7-6.7 1.8-7.4 2.3-.9.8-1.6.8-2.4 0-.7-.7-1.6-1.2-2.2-1.2-1.5 0 .3 1.5 4.7 3.9 4 2.2 5.1 2.6 4.3 1.3-.2-.4-.1-1.4.5-2.2.6-1.1.9-.6.9 1.7 0 1.9.7 3.6 1.6 4.1 1.3.7 1.5 1.7 1 3.7l-.7 2.8-6.1-6.2c-3.3-3.3-7.1-6.4-8.3-6.7-1.5-.4-2.2-1.1-1.8-2 .3-.8-.1-1.4-1.1-1.4-.9 0-1.6.4-1.6 1 0 1.7-12.2 1.2-16-.8-2.8-1.4-3.6-2.4-3.8-5.2-.4-3.9-1.5-5-5.4-5-1.8 0-3.6-1.1-5.7-3.7-2.8-3.3-3.1-3.5-3.1-1.5 0 3-3.8 3-4.9 0-.6-1.8-.9-1.9-1.4-.5-.8 2 3.2 5 5.5 4.2.8-.3 2.3.3 3.3 1.5 2.4 2.7 2.3 9.5-.3 14.7-2.4 4.6-7.8 7-13.7 6-2.3-.4-3.3-.2-2.9.5.4.6 3 .8 6.5.6 5.6-.4 5.8-.4 3.5 1.1-6.4 4.3-11.1 10.1-12.1 14.8l-1.1 4.8-5.9-.3c-3.3-.2-6.4-.8-7-1.3-1.9-1.9-3.3-.8-5.4 4.1-1.6 3.7-2.7 5-4.3 5-1.1 0-3.1 1.1-4.4 2.6-2.5 2.6-3.1 4.4-1.4 4.4.6 0 1-.5 1-1 0-.6.7-1 1.5-1s1.5-.5 1.5-1c0-.6 1.1-1 2.4-1 1.5 0 2.6-.7 2.9-1.9.6-2.3 4.1-2.2 7.8.2 2.1 1.4 3.7 1.6 8.8.9l6.1-.9.6 3.9c.4 2.1 1.1 4.1 1.6 4.4.6.4.7-1.2.2-4.1-.5-3.5-.4-4.6.5-4.1 1.4.9 1.8-.3 2.5-7.2.4-3.8.2-5.2-.8-5.2-.8 0-1.1 1-.9 2.7.5 3.3-1.8 7-3.6 5.9-.9-.6-.8-1.2.4-2.6.9-1 1.4-2.8 1.1-4.4-.3-1.8 0-2.6 1-2.6.8 0 1.4-.9 1.4-2s.4-2 1-2c.5 0 .6-.7.3-1.7-.5-1.1-.3-1.4.6-.8.8.4 1.1 2 .8 3.9-.6 4.2 1.1 7.6 3.8 7.6s8.6-2.8 10.1-4.8c1.3-1.8 4.2-1 5 1.3 1 2.4-3.5 6.5-7.8 7.1-2.4.4-3.8 1.2-3.8 2.1 0 1.8 3.2.9 8-2.3 1.9-1.3 3.8-2.4 4.2-2.4 1.4 0 .9 2.7-.7 4s-2.1 3.2-.7 2.8c.7-.3 1.2.5 1.2 2.2 0 .6-1.5 1.9-3.2 3-1.8 1.1-2.8 2-2.3 2 .6 0 2.1-.7 3.3-1.6 2-1.4 2.2-1.4 2.2.5 0 2.1-5.3 7.1-7.5 7.1-.8 0-1.6.4-2 .9-.7 1.2 5.2-.4 7-1.9 2-1.6 6.9-.8 7.3 1.1.4 2.3-2 3-12.2 3.7-6.6.4-8.7.2-8.2-.7.4-.7 0-1.1-1.2-1.1-1.1 0-2.7-1.2-3.7-2.6-.9-1.4-1.9-2.3-2.3-2-.3.3.5 1.7 1.8 3.1 2.7 2.8 2.5 3.2-2.2 4.8-3.2 1.1-4.5 3-2.3 3.3.6.1 1.2.3 1.5.4.8.3 6.2 1.1 9.3 1.3 1.5.1 2.7.6 2.7 1.2 0 .5.7.1 1.5-.9 1.2-1.6 1.5-1.6 1.5-.4 0 1.7-3.7 5.4-4.6 4.5-.4-.3-1.4.1-2.3 1-1.5 1.5-1.6 1.5-1.9-.1-.4-1.7-.5-1.6-2.5.1s-2 1.7-1.3-.1c.6-1.6.4-1.7-1-.6-1.3 1.1-1.7 1.1-2.4 0s-1.3-1-3.4.4c-2.1 1.3-2.6 1.4-2.6.2 0-.8.6-1.6 1.3-1.9.6-.3-.4-.4-2.3-.2-1.9.1-4.3.6-5.3 1-1.5.6-1.7.4-1.1-1.9.5-2.1.3-2.6-1.2-2.5-1.1 0-1.4.3-.6.6.6.2.9.9.6 1.4-.3.6-1 .6-1.7.1s-6.1-1.2-12.2-1.5c-11.2-.6-16.3-2-20.1-5.5-1.1-1.1-3-2.3-4.2-2.6-2.5-.8-2.9-3.8-.7-5.6.9-.8 1.5-3 1.5-5.9 0-5.8 1.4-11 5-18.6 2.9-5.9 8-12.5 9.8-12.5.5 0 1.2-.8 1.4-1.8.5-1.9 8.8-6.4 15.1-8 4.9-1.4 7.6-.8 10.1 2.1 1.2 1.3 3.4 2.9 5 3.6 2.4 1 2 .3-2.2-3.4-5-4.5-5.2-4.9-5.2-9.9 0-5.3 1.2-7.6 3.9-7.6 1.8-.1 6.6-3.8 5.9-4.5-.3-.3-1.3.4-2.3 1.5-3.8 4.2-11.5 1.1-11.5-4.5 0-2.9 2.7-7.5 4.3-7.5.5 0 .2.9-.7 1.9-2.1 2.3-1.8 8.3.4 8.8 1.2.4 1.3.3.1-.5-2-1.4-.7-3.9 3.1-5.7l3.3-1.5-3.2.5c-3.6.5-4.6-.9-1.2-1.8 2.7-.7 4.7.1 5.2 2.1.3 1.2.5 1.1.6-.5 0-1.2-.5-2.4-1.1-2.7-.7-.3 0-.4 1.5-.2 1.8.2 2.5 0 1.9-.6-1.1-1.1-4.2-1.3-6.4-.3-1.1.4-1.8.3-1.8-.3s1.4-1.4 3.2-1.7l3.2-.7-3.9-1.9c-2.7-1.3-4.1-1.6-4.6-.8s-.8.8-1.3 0c-.4-.6-.1-1.1.6-1.1 1.5-.1-2.9-4-4.5-4-.5 0-.2.9.8 2 1.4 1.6 1.5 2 .4 2-.8 0-2.4-.7-3.5-1.5-2-1.3-2.1-1.3-2 1.5.1 2.3.7 3.2 2.9 4 1.6.5 2.6 1.4 2.3 1.9-.4.5 0 1.1.6 1.4 1 .3.9.8-.3 1.8-.9.8-1.9 2-2.1 2.8-.3 1.1-.8 1-2.3-.5-1.8-1.8-1.9-1.8-1.2-.1.4 1 .7 2.1.7 2.3s.9.4 2.1.4 1.9.5 1.6 1.2c-.2.7 0 2.1.5 3 .6 1.3 0 3.5-2.2 7.8-1.7 3.3-3.2 6-3.4 6s-.1-2 .2-4.5c.3-3.1 0-5.2-1.2-6.9-.9-1.4-1.6-4.6-1.6-7.1 0-3.1-.4-4.4-1.1-4-1 .7-.7 5.7.6 10.2.5 1.4.3 2.3-.4 2.3-.6 0-1.1.4-1.1 1 0 .5.9 1 2 1 1.3 0 2 .7 2 2 0 1.5-1.4 2.3-6.9 4-3.7 1.1-7.5 2-8.4 2-2.5 0 .3-5 3.3-5.6 8.9-2 7.6-2.4-2.5-.9-4.4.7-7 1.3-5.8 1.4 4.5.2 4 3.9-.8 6-2.1.9-3.4 1-4.1.3-1.4-1.4-.1-3.3 1.7-2.5.8.3 1.5.2 1.5-.2 0-1-2.7-3.5-3.9-3.5s-.8-2.6 1.2-9c.6-1.9 1-4.3.9-5.2-.1-2.1 1.4-3.3 2.3-1.8.7 1.1 5.7 1.3 10.4.4 3-.6 3.1-.8 3.3-6.8l.2-6.1.3 5.2c.4 5.4 1 6.1 4.1 4.2 1.4-.9 1.6-2.3 1.4-9-.2-4.3-.8-7.9-1.3-7.9s-.9 1.1-.9 2.4c0 2.6-2.1 3.6-7.7 3.6-1.8 0-3.3.4-3.3.9s-1.5.5-3.4-.1c-3.5-1.1-5.6-5.2-3.2-6.2.6-.3 0-.4-1.4-.3l-2.5.2.1 11c.1 7-.2 10.1-.7 8.5-.6-1.6-.7-.8-.3 2.5.3 2.7.2 4.6-.2 4.2-.5-.4-1.8 3.2-3 8-2.8 11.2-7.6 22.6-11.1 26.5-5.7 6.2-6.3 6.8-8.1 6.8-1 0-2.2.4-2.7.9-1.7 1.5-13.8 5.9-18 6.5-2.2.3-9.2.8-15.7 1.1-14.1.8-27.9-1.5-31.3-5-1.1-1.2-2.5-2.4-3.2-2.6-1.7-.5-17.3-16-17.3-17.1 0-.4-1.1-1.3-2.5-2-1.3-.6-2.2-1.4-1.9-1.9.8-1.4-3.1-6.8-4.4-6s-.6 4.1.9 4.1c.5 0 .9 1.1.9 2.4 0 2.1-.5 2.4-7 3-7.4.6-11-.3-11-2.9 0-.8 1.3-1.5 3.3-1.8 2.9-.3 2.8-.4-.9-.5-3.2-.2-4.5-.8-6.2-3.2-1.2-1.6-2.2-3.7-2.2-4.6s-.6-2.2-1.4-2.8-1.7-3-2.1-5.3l-.7-4.2 4.9-.4 4.8-.3-5.2-.2-5.1-.2-.8-5.3c-.4-2.8-.7-8.8-.5-13.2.1-4.5-.3-9.2-.8-10.5-.5-1.4-1-1.9-1-1.1-.1.8-.3 1.2-.7.9-.3-.3.3-3.5 1.3-7.2l1.7-6.6 7.6-.2 7.5-.2-7.2-.3-7.3-.4.1-3.7c.1-2 .4-4.8.8-6.2.7-2.4 1-2.5 7.4-2.2 3.9.2 6.7 0 6.7-.6 0-.5-2.3-1-5.1-1-6.4 0-7.6-1.1-4.9-4.5 2-2.5 2.5-2.6 8.3-2.2l6.2.4-5.9-.9c-6.8-1.1-7.4-1.5-6-3.8 1.3-2 3.8-2.7 6.2-1.6.9.4 2.2.6 2.9.5.6-.1 1.4.3 1.8.9.3.5 1.5 1 2.6 1 2.3 0 2.6 1.8.4 2.6-.8.4-1.5 1.4-1.5 2.4s-.5 3.1-1.2 4.7c-.6 1.5-1 3.1-1 3.6.1.4-.4 2.3-1.2 4.2s-1.8 9-2.2 16.5c-.8 14.6-.1 13.6-9.4 14.4-2.5.2-1.3.2 2.7.1l7.2-.2-.1 3.1c0 1.7.5 5.7 1.2 8.9 1.2 5 1.1 6-.1 6.8-1.1.7-.8.9 1 .9 2 0 2.2-.4 1.7-2.3-.4-1.2-.9-5.1-1.1-8.7l-.4-6.5.9 6c1.6 9.6 2 8.8 1.2-2.5-.8-12.7-.8-22.3.1-31l.6-6.5-1.1 5.5c-1 4.7-1.3 5-1.6 2.5-.5-3.9 1.7-11.3 2.8-9.5.6.9 1.2.1 1.9-2.6.6-2.1 1.1-4.5 1.1-5.2 0-.6.4-1.2.8-1.2.5 0 2.5-3.3 4.5-7.3 4.7-9.5 17-21.6 27-26.6 4.6-2.3 6.6-3.9 6.3-4.8-.3-.8-.1-1.1.4-.8.6.3 3.8-.1 7.2-1 16.4-4.3 30.7-1.8 40.9 7.2 4.3 3.8 25.7 25.3 28.4 28.5.8 1 1.5 2.4 1.5 3.2 0 .7.8 2.4 1.9 3.7 1 1.3 2.2 3.9 2.6 5.7.3 1.8 1 3 1.3 2.8 1.5-.9-.1 8-1.6 9.3-1.6 1.3-1.6 1.3.1.7 1-.3 2.2-.6 2.6-.6s.6-1.7.4-3.8c-.2-3.2-.1-3.3.6-1.2.8 2.3.9 2.3 1 .4.1-2.5-2.4-11.3-4.6-16.4-3-6.8-1.1-22.3 3.9-32.5 2.1-4.1 7.2-8.5 9.9-8.5 5.6 0 12.9 9.6 14.4 18.9.4 2.5 1.6 6.9 2.6 10 1.1 3 1.9 6.5 1.9 7.8 0 1.4.4 2.2 1 1.8s1-1.5.8-2.5c-.5-3.4 1.5-2.6 2.8 1 1.6 4.4 1.8 2 .2-3.1-1-3.5-2.8-5.4-2.8-2.9 0 .5-.4 1-.8 1-1.3 0-4.2-9.6-4.9-15.7-.4-4-1.4-6.2-3.9-9.2-1.9-2.2-3.4-4.3-3.4-4.9 0-1.2-6.5-4-11.2-4.8-2.1-.3-3.8-1-3.8-1.5s-.5-.9-1.1-.9c-.7 0-.9.9-.5 2.4.5 1.9-.3 3.1-4 6.5-4.9 4.5-6.7 4.9-11.9 2.7-4.4-1.9-4.8-5.1-.7-6 3.5-.8 9.2-3.8 9.2-4.8 0-1.2-1.3-.9-3.4.7-2.4 1.8-9.7 1.9-14.6.2-2.6-.9-4.1-2.3-5.7-5.7-2.6-5.1-2.8-8.4-1-15.5.8-2.8 1-6.1.6-7.5-.6-2.2-.7-2.1-.8 1zm32.9 34c0 .5-.9 1.4-2 2-2.3 1.2-2.6.6-.7-1.5 1.4-1.7 2.7-1.9 2.7-.5zm-103.2 5.7c-1.5.2-4.2.2-6 0s-.6-.4 2.7-.4 4.8.2 3.3.4zm89.5 2c3.2.6 3.3.9.7 6.4-1.1 2.4-2 5.4-2 6.6 0 3.4-1.5 3.5-4.8.5-2.8-2.6-2.9-3-2.1-7.7.4-2.8.8-5.6.8-6.4.1-.9.8-1.1 2.4-.6 1.2.4 3.4.9 5 1.2zm-91.5 0c-1 .2-2.6.2-3.5 0-1-.3-.2-.5 1.7-.5s2.7.2 1.8.5zm82.2 2.8c0 .8-.2 1.5-.4 1.5s-.6-.7-1-1.5c-.3-.8-.1-1.5.4-1.5.6 0 1 .7 1 1.5zm15.7 1.1c-.3.3-1.2.4-1.9.1-.8-.3-.5-.6.6-.6 1.1-.1 1.7.2 1.3.5zm-.9 5.3c.1 3.1-.3 4.4-2 5.5-2.1 1.5-2.1 1.6-.3 1.7 1.1 0 1.4.3.7.6-.6.2-1 .9-.6 1.4.3.5.1.9-.3.9-.5 0-1.4-.9-2-2-1.1-1.6-1-2.1.5-2.9 1.2-.7 1.3-1 .3-1.1-1.1 0-1-.4.4-2 .9-1 1.5-2.6 1.2-3.4-.6-1.4 0-2.6 1.3-2.6.4 0 .7 1.8.8 3.9zm-116.4 6.5c2 .1 3.6.5 3.6.9 0 .8-11.4 0-14-1-.9-.4-.2-.9 2-1.2 1.9-.4 3.8-.2 4.2.3.3.5 2.2 1 4.2 1zm-5.2 2.1c2.6.3 5.1 1.1 5.4 1.7.5.8-.1.9-1.7.4-1.3-.3-4.3-.9-6.7-1.3-2.3-.3-4.5-1-4.9-1.5-.3-.6.3-.8 1.3-.5 1.1.3 4 .8 6.6 1.2zm3.6 4.4c.3 1-.4 1.2-2.9.8-1.9-.4-5.3-.9-7.6-1.3-4-.6-5-1.3-3.8-2.5 1-1 13.9 1.7 14.3 3zm-21.4 9.6c-.4.8-.8 1.5-1 1.5s-.4-.7-.4-1.5.4-1.5 1-1.5c.5 0 .7.7.4 1.5zm19.3.7c-.3.8-.6.5-.6-.6-.1-1.1.2-1.7.5-1.3.3.3.4 1.2.1 1.9zM250.8 237c.1 2.3 0 2.3-.8.5s-.9-1.8-.9-.2c-.1 1-.5 1.5-1.1 1.2-1.1-.7-.9-5.5.2-5.5.4 0 .8-.8.9-1.8.1-2.5 1.7 2.7 1.7 5.8zm-12.8-2c0 3.5-1.6 4.8-2.5 2-.8-2.5.3-6.2 1.6-5.5.5.4.9 1.9.9 3.5zm1.7-.3c-.3 1-.5.4-.5-1.2 0-1.7.2-2.4.5-1.8.2.7.2 2.1 0 3zm3.2 1.8c-.1 2.9-.1 2.9-.9.5-.4-1.4-.8-3.4-.9-4.5-.1-1.6.1-1.7.9-.5.5.8.9 2.8.9 4.5zm24-3.4c1.7.6 3.1 1.5 3.1 2s-1.5.2-3.2-.7c-5.3-2.7-5.3-3.2.1-1.3zM85.7 246.7c-.3 1-.5.4-.5-1.2 0-1.7.2-2.4.5-1.8.2.7.2 2.1 0 3zm220.1 9.5c-.7 1.9-3.8 2.2-3.8.4 0-1 .9-1.6 2.1-1.6s1.9.5 1.7 1.2zm3.6.4c.3.8.2 1.2-.4.9s-1-1-1-1.6c0-1.4.7-1.1 1.4.7zm-2.4 2.8c0 .2-.7.7-1.6 1-.8.3-1.2.2-.9-.4.6-1 2.5-1.4 2.5-.6zm2.6 3.6c.8 0 1.4.4 1.4 1 0 1.1-1.1 1.3-3.4.4-.9-.3-1.2-1.2-.9-2.2.4-1 .8-1.2 1.1-.4.2.7 1 1.2 1.8 1.2zm42.4 4.4c0-.6 1.6.4 3.6 2.2 1.9 1.9 4 3.4 4.5 3.4s.9.7.9 1.5-.4 1.5-.8 1.5c-1.3 0-1.1 3.4.2 4.2.8.6.7 1-.2 1.6-.7.5-1 1.6-.6 2.5.4 1.2.1 1.7-1.1 1.7-.9 0-1.3.4-1 1 .3.5.2 1-.4 1-.5 0-1.2.8-1.5 1.7-.4 1-2 3.3-3.6 5.2-2.1 2.4-2.7 3.8-2 4.5 1.5 1.5 1.2 3-.3 1.7-1.6-1.3-2.7-.5-2.7 2 0 2-2.6 3.3-3.6 1.8-.3-.6.1-1.8.9-2.7s1.2-2.3 1-3c-.3-.6.2-1.2 1-1.2 1.1 0 1.4-1 1.3-3.7s.3-3.7 1.6-4.1c1-.2 1.5-.8 1.2-1.3s0-.9.6-.9c.7 0 .9-.7.6-1.6-.3-.8-.2-1.2.3-.9s1.3-.5 1.7-1.7c.4-1.3 1.1-2.6 1.7-2.9.6-.4.4-1.9-.7-3.9-.9-1.8-1.6-4.1-1.6-5.2 0-1.6-1.1-2.3-3.2-1.9-1 .1-1-2.3-.1-3.2.4-.4 1-.2 1.5.5.5.8.8.9.8.2zm-39.6.2c1.9.7 2 2.1.3 3.8-1.7 1.8-13.7 2.7-13.7 1 0-1.8 2.7-3.7 3.5-2.4 1.1 1.7 4.9 1.1 6.3-1 1.4-2.2 1.4-2.2 3.6-1.4zm-5.7 1c-.3.3-1.2.4-1.9.1-.8-.3-.5-.6.6-.6 1.1-.1 1.7.2 1.3.5zm20.3.4c0 .5-.6 1-1.4 1s-2.3.3-3.3.6c-1.6.6-1.6.5.2-.9 2.3-1.9 4.5-2.2 4.5-.7zm2.4.5c-.4.8-.8 1.5-1 1.5s-.4-.7-.4-1.5.4-1.5 1-1.5c.5 0 .7.7.4 1.5zm-213 6.5c-2.1.3-4.8 1.2-5.9 1.8-1.7 1.1-1.1 1.2 4 .9 3.3-.2 4.9-.2 3.5 0-1.4.3-2.9.9-3.4 1.4-1.4 1.3-8.9 1.2-8.1-.2.4-.6-.2-1.3-1.4-1.6-3.7-.9-2.4-3.1 2.2-3.7 8.4-1.1 10.2-1.1 11.6-.1 1.1.8.5 1.1-2.5 1.5zm212.9-1.6c6.3 2.6 15.2 14.5 12.8 16.9-.7.7-1.8-.7-3.5-4.2-2.5-5.6-8.2-11.1-13.1-12.9-1.8-.6-2.3-1.1-1.2-1.1 1-.1 3.2.5 5 1.3zm9.4 0c-.3.8.1 1.7.9 2s1.4.1 1.4-.4c0-2.2 2.2-.8 3.1 2 .6 1.6 1.5 2.8 1.9 2.5.8-.5 2 1.8 2 3.8 0 .7-.5.4-1.1-.6-.6-.9-1.4-1.5-2-1.2-.5.4-1.2-.1-1.5-.9-.3-.9-1.1-1.6-1.6-1.6-1.6 0-5.9-5-5.3-6.1 1-1.5 2.8-1 2.2.5zm-25.2 1.7c.5.7-.3.9-2.4.6-1.9-.3-3.7 0-4.5.8-.7.8-2.5 1.7-3.9 2-1.5.4-3.1 1.3-3.8 2.1-.6.8-2 1.4-3 1.4s-2.1.9-2.4 2c-.8 2.4-2.8 2.7-2.3.4.2-.9 1.9-2.5 3.7-3.5 1.9-1 3.9-2.5 4.3-3.4.5-.8 1.9-1.5 3.1-1.5s2.9-.5 3.7-1c2-1.3 6.7-1.3 7.5.1zm6.5 1.6c0 1.1-.3 1.4-.8.7-.4-.6-1.4-1.4-2.2-1.7-1-.4-.8-.6.8-.6 1.5-.1 2.2.5 2.2 1.6zm8.4 2.9c.4 1.5 1 2.4 1.3 2 1-1 3.5 3.3 2.7 4.6-.5.7-1 .4-1.6-1.1-.4-1.2-1.2-1.9-1.8-1.6-.5.3-1 .2-1-.3s-1.2-2.1-2.6-3.6l-2.7-2.6h2.6c1.8 0 2.6.7 3.1 2.6zm-6.4 2.2c1.9 1 4.8 2.9 6.5 4.4 3.4 3.2 4.1 3-9 3.4-14.3.5-17-.9-12.7-6.3 3.4-4.4 8.1-4.8 15.2-1.5zm-202.5-.9c-1 1-6.4 1.5-10 1-1.1-.1.5-.5 3.5-.9l6.5-.8c.6-.1.6.1 0 .7zm185 1.9c-.6.4-1.1 1.6-1.3 2.6s-1.1 2.6-1.9 3.4c-1.4 1.4-1.5 1.2-.8-1.9.7-3.3 3.3-6.5 4.4-5.3.3.3.1.8-.4 1.2zm-183 1.2c1.7.7 1.5.9-1.2.9-1.7.1-3.5-.4-3.8-.9-.7-1.2 2.2-1.2 5 0zm10.5 4c0 .5-1.2 1-2.7.9l-2.8-.1 2.5-.8c1.4-.4 2.6-.8 2.8-.9.1-.1.2.3.2.9zm187 5.3c0 1.9-.6 2.2-4.5 2.2-3 0-4.5-.4-4.5-1.2s1.3-1.3 3.5-1.3c2.5 0 3.5-.4 3.5-1.6 0-.8.5-1.2 1-.9.6.3 1 1.6 1 2.8zm19.4 1.7c-.7.6-2.4-2.2-2.3-4 0-.9.6-.5 1.4 1 .7 1.4 1.1 2.7.9 3zm-7.3-2c2.5 0 2.4 1.5-.1 4-1.6 1.6-3.2 2-8.4 1.8-7.3-.2-7.8-1.2-1.1-2.2 2.4-.4 4.4-1 4.2-1.4-.3-1.1 2.7-4.1 3.1-3.1.2.5 1.2.9 2.3.9zm-176.4 4.6c-.3.3-1.2.4-1.9.1-.8-.3-.5-.6.6-.6 1.1-.1 1.7.2 1.3.5zm200.3 2.8c0 .2-.8 1-1.7 1.7-1.6 1.3-1.7 1.2-.4-.4s2.1-2.1 2.1-1.3zm-37 3.6c0 2.8-.2 3-3.7 2.8-3.7-.1-3.7-.1-.5-.5 2.2-.3 3.2-1 3.2-2.2 0-1.4-.6-1.7-3.1-1.3-2.2.3-3 .1-2.5-.7.4-.6 2-1.1 3.7-1.1 2.6 0 2.9.3 2.9 3zm16.4-.9c-1.1 1.8-7.6 4.1-8.6 3.1-.6-.6.6-1.5 3.4-2.5 5.3-1.9 6.1-2 5.2-.6zm-245.2 7.1c-.7.7-1.2.8-1.2.2 0-1.4 1.2-2.6 1.9-1.9.2.3-.1 1.1-.7 1.7zm4.2.1c-.2.7-1.4 1.9-2.7 2.6-2.1 1.3-2.1 1.2.2-1.3 2.7-2.9 3.3-3.2 2.5-1.3zM321 311c0 .5-.7.7-1.5.4-.8-.4-1.5-.8-1.5-1s.7-.4 1.5-.4 1.5.4 1.5 1zm28-.6c0 .3-.4.8-1 1.1-.5.3-1 .1-1-.4 0-.6.5-1.1 1-1.1.6 0 1 .2 1 .4zm-35.5 1.6c.3.5-.1 1-1 1s-1.3-.5-1-1c.3-.6.8-1 1-1s.7.4 1 1zm18.6 1c.4 0 .6.7.3 1.5-.7 1.7-3.2 1.9-5.4.5-1.3-.9-1.3-1.1 0-2 .8-.5 2.1-.8 2.8-.5.8.3 1.8.5 2.3.5zm12.9 0c0 .5-.5 1-1.1 1-.5 0-.7-.5-.4-1 .3-.6.8-1 1.1-1 .2 0 .4.4.4 1zm-250.2 4.9-2.9 3.4c-.4.5-.5-.6-.4-2.5.3-4 0-3.6 3.1-3.6h2.5l-2.3 2.7zm2.2 1.6c-.9 1.1-.9 1.5-.1 1.5.7 0 .9.5.5 1.2-.6.9-.9.9-1.2 0-.2-.7-.8-1-1.3-.6-1.1.6-1.1.2-.3-2 .3-.9 1.3-1.6 2.1-1.6 1.3 0 1.3.3.3 1.5zm0 6.5c0 .5-.5 1-1.1 1-.5 0-.7-.5-.4-1 .3-.6.8-1 1.1-1 .2 0 .4.4.4 1zm.5 4c-1.6 1.6-3.1 2.8-3.3 2.5-.7-.7 3.9-5.5 5.2-5.5.5 0-.3 1.3-1.9 3zm213.9-1.2c1 .2 2.3-.2 2.7-1 .7-1.1 1.1-1 1.9.2.5.8 1 2.1 1 2.7 0 1.5-1.6 1.7-2.5.3-1.1-1.7-2.5-1.1-3.5 1.5-.5 1.4-1.7 2.5-2.7 2.5-1.7-.1-1.7-.1 0-1.1 3.1-1.8 1.4-3.3-2.3-1.9-.3.1-1.3.1-2.3.1-.9-.1-2.9.7-4.4 1.8-1.4 1.2-2.8 1.9-3.1 1.6-.7-.6 1.8-3.5 3.1-3.5.6 0 1.8-.7 2.8-1.6.9-.8 2.6-1.6 3.8-1.7 1.1-.1 2.1-.6 2.1-1.2s.3-.7.8 0c.4.5 1.6 1.1 2.6 1.3zm105.6.2c0 .5-.4 1-1 1a1.08 1.08 0 0 1-1-1c0-.6.5-1 1-1a.94.94 0 0 1 1 1zm-166.2 2.8c.6 1.6 2.8 3.6 4.7 4.5 3.1 1.5 3.4 2 2.5 3.6-1.7 3.2-1.2 10.9 1.1 15.2 1.2 2.5 1.9 5.3 1.6 7.2-.6 4.6 1 19.4 2.4 21.9 2 3.7 2.3 12.2.5 13.7-1.3 1.1-1.6 1.1-1.6-.2 0-.8-.6-1.7-1.4-2-1.6-.6-7.6-18.1-7.6-22 0-3-2.6-9.4-4.6-11.4-.8-.8-1.1-1.9-.8-2.5.9-1.4.6-11-.5-17.9-1-6.2-.3-12.9 1.3-12.9.6 0 1.7 1.3 2.4 2.8zm-140.3 6.4c1 2.4 2.9 6.6 4.2 9.5 1.2 2.8 2.3 6.1 2.3 7.2 0 1.2.6 3 1.2 4.1.9 1.5 1 2.2.1 3.1s-1.4.2-2.2-2.7c-.6-2.2-1.1-4.9-1.1-6.2 0-1.8-.4-2.2-1.8-1.8-1.3.5-2-.3-3-3.4-.6-2.2-1.2-5.1-1.2-6.4 0-1.4-.4-2.8-1-3.1-1.2-.7-1.4-4.5-.2-4.5.5 0 1.6 1.9 2.7 4.2zm302.7-2c-.7.7-1.2.8-1.2.2 0-1.4 1.2-2.6 1.9-1.9.2.3-.1 1.1-.7 1.7zm-90.2-.7c0 .2-1.2 1.6-2.7 3.1-2.1 2.1-3.6 2.7-6.3 2.5-4.2-.2-6.6-2.1-2.8-2.1 1.5 0 3.3-.6 4-1.3 2-2.1 7.8-3.7 7.8-2.2zm-223 2c-.7.8-1.7 1.5-2.3 1.5s-.2-.7.9-1.5c2.5-1.9 3-1.9 1.4 0zm233.8-.4c-1 .5-1.8 1.6-1.8 2.4 0 1.6-3.8 4-4.8 3.1-.3-.3.1-.6.9-.7s.3-.5-1.1-.9l-2.5-.8 2.7-.1c1.6-.1 3.2-.9 3.8-2.1.6-1.1 1.8-2 2.8-2 1.6.1 1.6.1 0 1.1zm78.3 3.5c.8.9.8 1.4.1 1.4-.6 0-1.4-.5-1.7-1.1-.4-.6-1.3-.8-2.1-.5s-1.4-.1-1.4-.8c0-1.7 3.4-1 5.1 1zm-144.4-1c-.3.3-1.2.4-1.9.1-.8-.3-.5-.6.6-.6 1.1-.1 1.7.2 1.3.5zm7.6 1.1c-.7.2-1.9.2-2.5 0-.7-.3-.2-.5 1.2-.5s1.9.2 1.3.5zm10.5 0c-1 .2-2.6.2-3.5 0-1-.3-.2-.5 1.7-.5s2.7.2 1.8.5zm14.5 0c-1.3.2-3.5.2-5 0-1.6-.2-.5-.4 2.2-.4 2.8 0 4 .2 2.8.4zM407 344c0 1.1-.4 2-.8 2s-.8-.9-.9-2 .2-2 .8-2c.5 0 .9.9.9 2zm8 2c-.8.5-2.2.9-3 .9-1 0-.8-.3.5-.9 2.7-1.2 4.3-1.2 2.5 0zm-15.8 2.2c-.7.7-1.2.8-1.2.2 0-1.4 1.2-2.6 1.9-1.9.2.3-.1 1.1-.7 1.7zm5.8 3.8c0 .5-.7.7-1.5.4-.8-.4-1.5-.8-1.5-1s.7-.4 1.5-.4 1.5.4 1.5 1zm6 .4c0 .3-.4.8-1 1.1-.5.3-1 .1-1-.4 0-.6.5-1.1 1-1.1.6 0 1 .2 1 .4zm-296.6 6.1c.5 2.2.4 2.6-.4 1.5-.5-.8-1-2.4-1-3.4 0-2.6.6-1.8 1.4 1.9zm-5.9-.5c-.3.5-1.1 1-1.6 1-.6 0-.7-.5-.4-1 .3-.6 1.1-1 1.6-1 .6 0 .7.4.4 1zm299.5 0c1.3.9 1.3 1 0 1-.8 0-2.2-.5-3-1-1.3-.9-1.3-1 0-1 .8 0 2.2.5 3 1zm-299 4c0 .5-.5 1-1.1 1-.5 0-.7-.5-.4-1 .3-.6.8-1 1.1-1 .2 0 .4.4.4 1zm2.9 2.9c-.8 1.7-1.7 3.1-2.1 3.1-1.2 0-1-.9.9-4.1 2.2-3.6 2.9-3 1.2 1zM267 364c0 .5-.2 1-.4 1-.3 0-.8-.5-1.1-1-.3-.6-.1-1 .4-1 .6 0 1.1.4 1.1 1zm118.1 4.6c-1.2 1.6-2.1 2.1-2.1 1.3 0-2.1 3.3-6.5 3.8-5.1.2.7-.6 2.4-1.7 3.8zM159 366.5c1.7.9 3 1.9 3 2.4 0 1.2-16.4 16.1-17.7 16.1-.5 0-1.6-1.2-2.4-2.8l-1.6-3.3c-.2-.3 2.1-2.3 5.2-4.5 3-2.1 5.5-4.3 5.5-4.8 0-1.1 3.2-4.5 4.3-4.5.4-.1 2.1.6 3.7 1.4zm13.3 2.7 3.5 2.4c.2.1.1 1.2-.3 2.4-.8 2.6-3.7 1.9-7.7-1.8-4.8-4.6-1.2-7 4.5-3zm218.4 0c-.9.8-2.1 3.7-2.6 6.8-.5 3-1 4.4-1.1 3-.6-6.4 1-11 3.7-11 1.6 0 1.6.1 0 1.2zM168.2 374c2.1 1.4 3.8 3 3.8 3.5 0 .6-1.3 2.4-2.8 4.1s-4.5 5.4-6.6 8.2c-2.1 2.9-4.1 5.2-4.6 5.2-.7 0-11-7.9-11-8.5 0-.8 7.7-8.5 8.6-8.5.5 0 2.4-1.6 4.3-3.5 1.9-2 3.7-3.4 4-3.3.3.2 2.3 1.4 4.3 2.8zm138.2 40.5c-.7 1.8-3.4 2.8-3.4 1.2 0-1.7 2.1-3.8 3.1-3.1.5.2.6 1.1.3 1.9zm-72.1.2c-.7.2-1.9.2-2.5 0-.7-.3-.2-.5 1.2-.5s1.9.2 1.3.5zm91.4 3.7c-.4.9-1.4 1.6-2.4 1.6-1.6-.1-1.6-.2-.2-1.3.9-.7 1.4-1.9 1.1-2.7-.3-1.2-.2-1.2.8-.3.7.6 1 1.9.7 2.7zm-33.4-.7a16.95 16.95 0 0 1-4.5 0c-1.3-.2-.3-.4 2.2-.4s3.5.2 2.3.4zm-11.6 1c-2 .2-5.2.2-7 0-1.7-.2 0-.4 3.8-.4 3.9 0 5.3.2 3.2.4zm-38.6-306.2c-.7 6.4-.6 12.4.2 11.6.4-.4.6-3.9.4-7.7-.1-3.8-.5-5.6-.6-3.9zm1.9 2.2c0 2.4.2 4.3.4 4.3.8 0 1.2-6 .4-7.2-.4-.8-.8.4-.8 2.9z"/><path d="M264.5 115.6c-2.5 2.3-2.7 3-2.1 7 .6 4.7 2.8 9.8 5.3 12.3 2.2 2.2 5.3 9.8 5.3 13.1 0 1.6.5 3.2 1 3.5.6.3 1 2.3 1 4.4 0 2 .4 4.1.9 4.7.8.9 2.7 15.1 3.6 28.5.3 4.2 1 9.1 1.6 11 .5 1.9 1.4 5.4 1.8 7.9.5 2.5 1.2 5.4 1.7 6.5.7 1.8.6 1.9-1.1.5s-1.8-1.3-1.1.5c.4 1.1 1 3.3 1.3 4.9 1 4.9-1.4 2.2-5.3-6-2-4.1-4-7.4-4.4-7.4-1.2 0 0 4.3 1.6 5.6.8.6 2.3 3.3 3.5 6 2.9 6.6 3.8 7.7 5.5 6.4.7-.6 2.1-1 3.1-.8 1.5.2 1.8-.4 2-3.7.1-3.7.1-3.8-.7-1-.6 2.5-.8 2.6-.9.8 0-1.3-.4-2.2-.8-2.2-1.9.3-2.3-.2-1.1-1.5.7-.8 1.6-1.2 2.1-.9.4.2.7-.3.7-1.1 0-.9-.6-1.3-1.3-1-1.5.5-4.4-4.2-3.3-5.3.4-.5 1.4.1 2.2 1.2 1.4 1.8 1.5 1.5.8-3.3-.5-4.3-.4-5.2.9-5.2.9 0 1.7 1.1 2 2.7.4 2.6.4 2.6.6-.5 0-1.7.6-3.2 1.1-3.2.6 0 1.1 3.7 1.2 8.7l.1 8.8.6-8c.6-8 1.4-10.5 3.2-10.5 1.2 0 1.2 8.3 0 9.5-.5.6-.4 2 .2 3.5 1 2.1 1.2 1.3 1.5-5.9.2-6.1-.1-8.7-1-9.2-1-.7-.8-.9.5-.9 2 0 2.3-1.6.5-2.2-.7-.3.6-.8 3-1.1 4.7-.8 5.5-2.2 1.7-3.1-1.4-.4-2.5-1.1-2.5-1.6 0-1.3.7-1.3 3.1.1 2.8 1.4 5.6.4 4-1.5-.9-1.1-.9-1.5 0-1.8.6-.2-.7-1.2-3-2.2-2.2-1.1-4.1-2.3-4.1-2.8s1.3-.2 3 .7c1.6.8 3.9 1.5 5.1 1.5 1.8 0 1.9-.2.9-1.5-.7-.8-.9-1.5-.4-1.5s-.6-.8-2.3-1.6c-1.8-.9-3.3-2.1-3.3-2.6s.5-.6 1-.3c.6.4 2.5 1.1 4.3 1.5 2.9.9 3 .8 1.3-.5-1.9-1.5-1.9-1.5.5-1.6s2.4-.1-.3-1.1c-1.6-.5-2.8-1.4-2.8-1.9 0-1.3 1.4-1.1 2.9.3 1 1 1.5 1 1.8.1s1.2-.9 3-.2c2 .7 2.8.6 3.5-.3.7-1.1 1.2-.5 1 1.3-.1.4 1.7 1.5 3.9 2.5 3.2 1.4 4.2 1.5 4.9.5.5-.8 1.6-1.1 3-.6 1.5.5 2 .4 1.6-.4-.4-.6-1.4-1.1-2.3-1.1s-4.8-1.5-8.7-3.3l-13.3-6.2c-3.5-1.6-6.3-3.2-6.3-3.7 0-.4-.6-.8-1.4-.8-1.5 0-7.6-3.2-11.2-6-2.7-2-2-4 1.4-4.1 1.7-.1 2.1-.3.9-.6-.9-.2-3.3.1-5.3.7-3 1-3.8.9-5.5-.6-1-.9-1.9-2.3-1.9-3s-.9-1.8-1.9-2.4c-2.8-1.4-1.6-4.6 2.2-5.8l3.2-1-2.7-.1c-1.6-.1-3.7.8-4.8 1.9-1.9 1.9-1.9 1.9-4-.7-1.1-1.4-2-2.9-2-3.2 0-.4-1.3-2.1-2.9-3.8-4-4.4-5.4-14.1-1.8-12.7.7.2 2.9-.4 4.9-1.5 3.5-1.7 3.6-1.9 1.5-2.5-3.5-.9-4.3-.7-7.2 2zm3 .4c-.3.5-1.1 1-1.6 1-.6 0-.7-.5-.4-1 .3-.6 1.1-1 1.6-1 .6 0 .7.4.4 1zm40.1 48.8c-.7.6-7.6-3-7.6-4 0-.5 1.8.1 4 1.3s3.8 2.4 3.6 2.7zm1.9 2.2c.3.5.1 1-.4 1-.6 0-1.1-.5-1.1-1 0-.6.2-1 .4-1 .3 0 .8.4 1.1 1zm5.5 1c0 .5-.7.7-1.5.4-.8-.4-1.5-.8-1.5-1s.7-.4 1.5-.4 1.5.4 1.5 1zm10.6 5.8c-.4.3-1.4-.2-2.4-1.2-1.6-1.8-1.6-1.8.6-.6 1.3.6 2.1 1.4 1.8 1.8zm-40.6 29c0 3.2-1.5 1.8-2.4-2.2-.6-2.6-.5-2.8.8-1.7.9.8 1.6 2.5 1.6 3.9z"/><path d="M325 113.8c0 .4 2.7 1.6 6.1 2.6 3.3 1 6.3 2.5 6.6 3.3.3.7 1.5 1.3 2.7 1.1 1.5-.2 2.3.5 3.1 2.7.9 2.8 1.1 2.9 2.7 1.3.9-.9 1.3-1.9 1-2.3-.4-.3.1-.3 1.1.1.9.3 1.4 1 1.1 1.5s.2.6 1 .3c1.1-.4 1.6 0 1.6 1.2 0 .9.3 1.5.6 1.1.4-.3 1.3.1 2.1.9.9.8 2.2 1.3 2.9 1 .8-.3 1.4-.2 1.4.2 0 .9 7.5 4.2 9.5 4.2 2.7 0 1.5 2.4-5 10-3.6 4.1-6.5 7.9-6.4 8.5 0 .5 1.2-.5 2.7-2.4s4.2-5 6-6.9c1.7-1.9 3.2-3.8 3.2-4.2 0-1.4 3-1.9 5.5-1 3.2 1.2 3.2 2.7-.2 6.4l-2.8 2.9 3.6-2.6c2-1.5 4-2.7 4.5-2.7 1.9 0 9.4 7.3 9.4 9.2 0 1.5.3 1.7 1.9.9 1.6-.9 2-.7 2.5 1.2.3 1.2 1.9 3.1 3.6 4.2 3.5 2.3 12 13.6 12 15.8 0 .9.7 2 1.5 2.4 1.6.9 2.4 10 1.1 12.2-.5.8-5.4 1.1-16.1.9-8.4-.2-15.1-.6-14.9-1 .7-1.1-6.2-2.1-9.1-1.4-1.4.4-2.5.2-2.5-.3 0-.9-6.8-3.4-12-4.4-1.4-.3-5.8-1.5-9.9-2.7-5.4-1.5-7.6-1.8-8.1-.9-.4.6-1.6.9-2.6.6-1.1-.3-3-.9-4.3-1.2-1.5-.5-2.1-.3-1.7.3.3.6 0 1.3-.6 1.5-1 .4-1 .6 0 .6 2.1.1 4.1 2.6 3.2 4-.5.9-.9.7-1.3-.8-.6-2.6-2.3-2.7-3-.4-.2 1-.8 2.5-1.1 3.4-.5 1 .1 2 1.6 2.7 2.2 1.2 2.1 1.2-.7.6l-2.9-.5 1.9 2.3c1.1 1.3 1.3 1.7.5 1-2.1-1.8-4.1-1.5-3.3.5.4 1.1.3 1.4-.5.9-1.6-1-1.5.7.1 2.3 1 1 .9 1.1-.4.6s-1.5-.1-1.2 1.8c.3 1.3-.1 3-.9 3.8-1.9 2-4.8 6.7-8 12.8-2.9 5.8-3.5 7.6-1.8 6.6.6-.3 1-.2 1 .2 0 1.6 4.3 1.2 5.6-.5 2.1-2.8 1.5-3.9-.7-1.3-1.1 1.3-2.1 2.2-2.4 2-.4-.5 3.9-9.7 5.3-11.1 1.7-1.7 2.5 1.2.8 3.1-1.8 1.9-2.2 4.1-.5 2.4.7-.7 2.3-.8 4.5-.3 2.1.5 3.7.4 4.1-.3.4-.6 1.1-.3 2 .9 1 1.3 1.6 1.5 2.1.7.8-1.3 5-4.2 13.5-9.3 3.1-1.9 5.7-3.8 5.7-4.2s.6-.8 1.3-.8c1.2 0 12.6-4.5 23-9 4.6-2 12.4-3.1 22.4-3.1 9.2 0 10.6-.2 12.5-2.1 1.7-1.7 2-2.9 1.5-7.7-.4-4.9-3.6-13.5-5.6-15.1-.3-.3-4-4.3-8.1-8.9l-7.4-8.4 2.7-2.1c1.5-1.2 2.7-2.6 2.7-3.1s-1.3.4-3 2l-2.9 2.8-4.3-2.9c-2.4-1.6-5-3.7-5.8-4.6-1.5-1.7-6.9-4.9-12.5-7.5-1.6-.8-4.1-2-5.5-2.8s-5.5-3-9.2-5c-3.8-1.9-6.8-4-6.8-4.5a.94.94 0 0 0-1-1c-.5 0-1 .7-1 1.6 0 1.4-.2 1.4-1.5 0-.9-.9-3.5-2.1-5.8-2.8-2.3-.6-5.1-1.7-6.2-2.4-2.7-1.6-7.5-2.6-7.5-1.6zm21 65.2c1.2.8 1.2 1-.5 1-1.1 0-2.7-.5-3.5-1-1.2-.8-1.2-1 .5-1 1.1 0 2.7.5 3.5 1zm46.7 9.6c-.3.3-1.2.4-1.9.1-.8-.3-.5-.6.6-.6 1.1-.1 1.7.2 1.3.5zM325 201.1c-.7 1.1-1 2.3-.7 2.5.4.5-5.8 7.4-6.7 7.4-.3 0 .2-1.3 1.2-2.8l3.7-6c2.2-3.5 4.2-4.5 2.5-1.1zm23.6-86.6c-.3.9-.6 2.2-.5 2.8 0 .7.5.1 1-1.2s.8-2.6.5-2.8c-.2-.2-.6.3-1 1.2zm34.2 4.5c-3.6 5.2-2.9 5.1 1.2 0 1.7-2.2 2.8-4 2.3-4-.4.1-2 1.9-3.5 4zm13.6-.8-1.9 2.3 2.3-1.9c1.2-1.1 2.2-2.1 2.2-2.3 0-.8-.8-.2-2.6 1.9z"/><path d="M308.3 120c-1.5 2.3-1.7 6.6-.4 7.5 1.1.6 2.5-5.3 1.9-7.9-.2-1.4-.5-1.4-1.5.4zm13.9 1.5c0 1.6.2 2.2.5 1.2.2-.9.2-2.3 0-3-.3-.6-.5.1-.5 1.8zm66.7 5.2-5 5.8c-1.2 1.7-1 1.6 1.9-.4 1.7-1.2 3.2-2.7 3.2-3.4 0-.6 1-2.1 2.2-3.4s1.9-2.3 1.7-2.3c-.3 0-2.1 1.7-4 3.7zm-318-1.7c-1.9.3-4.7 1.5-6.1 2.6-2.9 2.1-10.8 13.2-10.8 15.1 0 .7 3.4 3.1 7.5 5.4 4.1 2.2 7.5 4.5 7.5 4.9 0 .5 1 1.2 2.3 1.6 1.2.4 4.2 2 6.5 3.6 2.4 1.7 4.7 2.6 5.2 2.2.4-.5 2.4-3.8 4.3-7.4 4-7.4 6-13.7 4.6-14.6-.5-.3-.9-1.5-.9-2.8 0-1.2-1.5-3.6-3.2-5.3-4.8-4.6-10.7-6.5-16.9-5.3zm9.4 10c3.4 2.7 4 6.1 2.1 11-1.9 4.8-1.9 4.8-11.6-1.6-7-4.7-7.2-5.1-3.5-9.2 2.7-2.9 9.4-3 13-.2zm294.8-6.5c-1.7 2-3.1 3.9-3.1 4.2 0 .4.3.3.8-.3l3.6-4.2c1.7-1.7 2.7-3.2 2.4-3.2s-2 1.6-3.7 3.5zm-156-.8c-.8 1.5-1.1 1.5-2.7.3-1.5-1.3-1.7-1.3-1.3-.1.9 2.5 3.6 3.6 5.3 2.2 1.8-1.5 2.2-4.1.6-4.1-.5 0-1.3.8-1.9 1.7zm101.5 5.4-.7 6-3.2-.6c-5.9-1.2-6.6-1.6-7-4.3-.2-1.5-.4 4.3-.5 12.8 0 8.5.3 14.6.7 13.5.5-1.1.6-3.7.3-5.9l-.5-3.8 4.4.7c2.4.4 5.2 1.1 6.2 1.7 1 .5 1.7.5 1.7 0 0-.6-2.6-1.6-5.7-2.3l-5.8-1.4-.3-5.8-.3-5.8 2.8.7c1.5.4 3.9 1.1 5.3 1.7s3 1.1 3.5 1.2c5.6.8 12.4 3.5 13.4 5.2.5 1.1 1.5 1.3 3.1.8 1.5-.5 1.9-1 1.1-1.4-.6-.4-.9-1.5-.5-2.5.6-1.5.3-1.5-2-.5-1.9.9-3.2.9-4.9.2-1.2-.6-4.1-1.6-6.4-2.2l-4.2-1.2.6-6.4c.7-8.2-.2-8.6-1.1-.4zm-85.5-.1c0 3.2.2 4 .9 2.9.5-.9.6-2.8 0-4.5-.8-2.7-.8-2.6-.9 1.6zm111.9-3c-.8.5-2.6 1-3.9 1-2.5 0-5 2.5-5.1 5.1 0 .8 1.1 3 2.4 4.7 2.1 2.9 2.2 3.6 1.3 7.5l-1.3 4.5c-.1.1-1.4-.2-2.9-.8-2.8-1.1-14.5.5-14.3 1.9 0 .3-.3 2.1-.7 3.8-1 4.5-3.5 4.3-3.5-.3 0-2.1-.4-3.3-1-2.9-.5.3-1 1.7-1 2.9 0 2-.4 2.3-2.7 2l-2.8-.4 2.8 1.1c1.5.6 2.7 1.8 2.8 2.7 0 1.1.2 1.2.6.4.8-2 2.9-1.4 6.3 1.6 2.7 2.5 3.7 2.8 7.8 2.4 3.7-.3 5.3 0 7.2 1.6 2.1 1.7 2.2 2.2 1.1 3.6-.9 1.1-1 1.6-.2 1.6.6 0 1.4-.7 1.8-1.5.5-1.4.8-1.4 3.2.1 1.4.9 3.4 2.6 4.3 3.8 1 1.1 1.8 1.6 1.8.9 0-.6-1.6-2.7-3.6-4.5-2.4-2.3-3.3-3.9-2.8-5.1.9-2.5 4.1-2.1 7 .9 1.4 1.4 3.3 2.4 4.2 2.2 1.1-.2 0-1.3-3.1-3.1l-4.7-2.8 4.1-5.5c2.2-3.1 3.9-5.7 3.7-5.8-1.4-1.1-7-2.7-7.5-2.2-.3.3 0 .6.8.6.9 0 2.3.6 3.4 1.3 1.7 1.3 1.6 1.6-2 5.5-2 2.3-4.4 4.2-5.2 4.2s-1.1.4-.8 1c.3.5 0 1.9-.8 3-1.2 1.8-1.5 1.8-3.3.4-1.4-1.1-1.6-1.7-.6-2.1.7-.3 2.4-1.7 3.7-3.1 2.1-2.2 2.4-3.5 2.4-10 0-8.7 1.1-10.5 5.9-10l3.3.4-.3-6.8-.2-6.8h-3.1c-1.6 0-3.7.5-4.5 1zm.9 5.3c-.2.1-1.4 1.1-2.6 2.1-2 1.6-2.3 1.7-2.3.3 0-.8.8-1.8 1.8-2 2.1-.6 3.7-.8 3.1-.4zm5.6.7c.3.5.1 1-.4 1-.6 0-1.1-.5-1.1-1 0-.6.2-1 .4-1 .3 0 .8.4 1.1 1zm-28.1 23.5c-.6 1.6-2.4 2.1-2.4.7 0-1.1 1.1-2.2 2.1-2.2.5 0 .6.7.3 1.5zM285.5 135c-.3.5-.1 1 .4 1 .6 0 1.1-.5 1.1-1 0-.6-.2-1-.4-1-.3 0-.8.4-1.1 1zm16.5 0c0 .5.7 1 1.5 1s1.5-.5 1.5-1c0-.6-.7-1-1.5-1s-1.5.4-1.5 1zm100.2 3c-1.9 1.8-2.9 4-1.9 4 .2 0 1.6-1.4 3-3 3.1-3.4 2.2-4.1-1.1-1z"/><use xlink:href="#a"/><path d="m467 140.4-11.5 5-6.2 2.7c-2.1.8-2.2 1.1-1.1 3.6 1.9 4.5 2.3 4.6 8 1.9 6.4-3 6.4-3 7.2-1.1.9 2.4-1.1 6.3-5 10l-3.6 3.4 1.8 4.1c1.6 3.7 3.4 5.3 3.4 3.1 0-.5 2-3.1 4.5-5.9 2.5-2.7 4.5-5.5 4.5-6.2 0-.8.6-.9 1.8-.4 3.1 1.5 9 .9 11.3-1.1 1.8-1.7 2-2.8 1.7-7-.3-2.7-1.5-7.4-2.8-10.3-2.7-6.3-3.4-6.3-14-1.8zm8.8 6.8c1.9 1.9 1.4 5.6-.8 6.3-2.4.8-3.9-.1-4.9-2.9-.7-1.6-.4-2.4 1.3-3.3 2.7-1.6 2.9-1.6 4.4-.1zm-156.6-.2c0 1.9.2 2.7.5 1.7.2-.9.2-2.5 0-3.5-.3-.9-.5-.1-.5 1.8zm-17.5.8c-.1.4 0 2.7.4 5.2l.6 4.5.1-4.2c.1-2.3.7-4.3 1.4-4.5.8-.3.6-.7-.5-1.1-.9-.3-1.8-.3-2 .1zm67.5 1.5c-2.5 2.7-3 4.6-.6 2.7 1.5-1.3 3.8-5 3.1-5-.2 0-1.3 1-2.5 2.3zm11.5 8.2c-4.8 4.6-6.3 5.4-8.5 5-1.5-.3-2.1-.2-1.4.1 1.9.9 1.4 2.8-1.5 5.6-3.9 3.5-6.8 4.9-9 4.1-1.6-.6-1.7-.5-.3 1.1 1.2 1.6 1.2 1.9-.3 2.7-.9.6-1.7 1.5-1.7 2.1s.9.3 2-.7c1.9-1.7 2.1-1.7 4.2.1l2.2 1.9-1.7-2.8c-1-1.5-1.4-2.7-.9-2.7s3-2.1 5.6-4.8c4.1-4.1 4.9-4.5 5.9-3.1.7.8 2 1.8 3 2.2.9.4 2.1 1.7 2.7 3.1.9 2.5 3 4.4 3 2.8 0-.5-1.8-3-4-5.5l-4-4.5 4.3-4.5c2.3-2.4 5-4.7 6-5 1.6-.6 2.5-2.7 1-2.7-.5.1-3.4 2.5-6.6 5.5zm-334.2.6c-.4 1.7-.5 3.2-.3 3.3 1.1.9 8.1 3.6 12.8 5.1 9.2 2.8 10 3.4 10 7.5 0 4.4-1.4 6-5.4 6-3.1 0-17-4.1-18.3-5.3-1.5-1.6-4.4-.6-5.3 1.9-1.5 3.8-1.3 4.1 2.8 5.4l9.9 3.6c7.6 2.9 13.5 3.1 17.8.4 7.9-4.9 9-18.7 1.9-22.9-3.1-1.9-21.8-8.1-24.2-8.1-.6 0-1.3 1.4-1.7 3.1zM359.4 156.5c1.7 1.3 1.7 1.7.5 3.1-1.2 1.5-1.2 1.7.1 1.2 2.6-.8 2.4-4.5-.2-5.1-2.2-.6-2.2-.5-.4.8zm4.7 2.5c1.6 2.4 3.9 3.8 3.9 2.3 0-.4-1.3-1.7-2.8-2.8l-2.7-1.9 1.6 2.4zM237 161.6c0 .9 1.1 2.5 2.5 3.5 1.4 1.2 2.7 3.6 3.1 5.7.4 2 .9 3.1 1.1 2.5.7-1.9-1.8-8.6-3.6-10-1.1-.9-1.2-1.2-.3-1.3 1.8 0 .5-2-1.4-2-.8 0-1.4.7-1.4 1.6zm25.7 1.4c.3 1.1.7 2 .9 2s.4-.9.4-2-.4-2-.9-2-.7.9-.4 2zm-95.5 6.5c0 2.2.3 6.5.8 9.5l.7 5.5.1-4.5c0-2.5-.3-6.8-.8-9.5-.7-4.8-.7-4.9-.8-1zM264 168c0 .8.5 2.2 1 3 .9 1.3 1 1.3 1 0 0-.8-.5-2.2-1-3-.9-1.3-1-1.3-1 0zm-79 3.2c-.7 1.8-1.9 3.8-2.7 4.5-1 .7-1.1 1.3-.3 1.8 1 .6 5.6-8.2 4.7-9.1-.2-.3-1 1-1.7 2.8zm14.7.6c-4 4-15 18.2-14.5 18.7.2.3 2.8-2.5 5.6-6.3 2.8-3.7 6.8-8.6 8.8-11 4.2-4.8 4.2-5.5.1-1.4zm274 1.7c-7.6 1.3-14.1 2.6-14.4 2.8-.3.3.3 5.3 1.3 11.2 1.6 9.9 1.9 10.6 3.8 10.1 1.2-.3 2.7-.6 3.5-.6 1 0 1.2-1.2.7-5.8-.4-3.1-.9-6.5-1.2-7.5-.4-1.4.1-1.7 2.8-1.7 3.6 0 4.6 1.6 6.3 9.7.5 2.6 1.2 3.3 3 3.3 2.9 0 4.6-2.6 3.5-5.4-.4-1.2-1-3.8-1.4-5.9-.7-3.6-.6-3.7 2.2-3.7 2.7 0 3 .4 3.6 3.7 1.6 9.1 1.7 9.3 4.1 9.3 1.3 0 2.6-.4 2.9-.9.6-.9-.7-12-2-18.4-.7-3.3-.5-3.3-18.7-.2zm-229.6 3.6c-.1 2.4 2 7.9 3 7.9 1.1 0 1.2-1.4.2-2.4-.5-.4-1.3-2.2-2-3.9-.6-1.8-1.2-2.5-1.2-1.6zm140.9 1.3c0 .8.5 1.8 1.1 2.2.6.3.9 1.5.6 2.5-.3 1.1-.1 1.9.4 1.9 1 0 1.1-2.5.3-5.8-.7-2.4-2.4-3-2.4-.8zm-229.8 3.7c.6 1.6 1.2 2.8 1.4 2.6.5-.5-1.3-5.7-2-5.7-.3 0 0 1.4.6 3.1zm24.6-.9c-2.1 3.2-2.9 7-1.5 6.5.7-.2 1.4-1.4 1.5-2.8.2-1.3.9-3 1.4-3.7.6-.7.9-1.5.6-1.8-.3-.2-1.2.6-2 1.8zm-35 8.7c4.1 4 7.7 6.9 8 6.6.7-.7-3.2-4.4-11.3-10.7-2.2-1.8-.7.1 3.3 4.1zm125.3-4.9c0 1.8 2.7 7.9 2.8 6.4.1-.7-.6-2.7-1.4-4.5-.8-1.9-1.4-2.7-1.4-1.9zm-101.6 1c.3.5 1.1 1 1.6 1 .6 0 .7-.5.4-1-.3-.6-1.1-1-1.6-1-.6 0-.7.4-.4 1zm-11.5.9c0 .5.7 1.5 1.7 2.2 1.5 1.3 1.5 1.2.4-.9-1.2-2.3-2.1-2.8-2.1-1.3zm91.1.1c0 .8.4 2.4.9 3.5.5 1.3.9 1.4.9.5 0-.8-.4-2.4-.9-3.5-.5-1.3-.9-1.4-.9-.5zm-42.1 1c-.8.5-1.2 1.2-.9 1.5.4.3 1.2-.1 1.9-1 1.4-1.7 1.1-1.9-1-.5zM35.6 198.2c-.4 5.1-1 11-1.3 13.1l-.6 3.8 3.9-.3c3.7-.3 3.9-.5 4.2-4.1.3-3.8.4-3.9 3.5-3.3 1.8.3 7.8.8 13.5 1.2l10.2.7v-8l-9.7-.7c-5.4-.4-11.2-.9-13-1.2-3.2-.6-3.2-.7-2.6-5 .5-3.9.3-4.4-1.3-4.4-1.1 0-2.8-.3-4-.6-2-.5-2.1-.1-2.8 8.8zm161.8-4.4c-4 3-7.2 6.2-6 6.2.4 0 3.2-2 6.3-4.5 6.1-5 5.9-6.1-.3-1.7zm71.1-.8c.3 1.4 1 6.3 1.6 10.9.9 6.8.8 8.5-.3 9.2-1 .7-.9.9.5.9 1.5 0 1.7-.9 1.6-6.3-.2-6-1.2-11-3.1-15.2-.7-1.7-.8-1.6-.3.5zm-98.2 1.1c-.7.7-2.8 1.3-4.9 1.5-3.5.3-8.2 3.8-7.6 5.6.1.5-.3.8-.9.8-.5 0-.7.4-.4 1 .3.5.3 1.5-.1 2.2-1.2 2-1.3 9-.2 11.3 2.2 4.1 8.9 8.8 9.6 6.7.3-.9.9-.9 2.3-.2 1.3.7 2.5.7 3.8 0 4-2.1 11.2 3.1 9.2 6.7-.8 1.5-.4 2.5 2 5.1 3.9 4.1 7.5 6.5 8.8 5.8.5-.4 1.2-.2 1.6.4.3.5 1.9 1 3.5 1s3.2.4 3.5 1c1 1.5 5.1 1.2 6.6-.6 1-1.2 1-2 .1-3.5-1.5-2.4-1.5-2.9.2-2.9.8 0 3.8-1.3 6.8-2.9 3-1.5 6.1-3.1 6.9-3.3.8-.3 1.1-.8.8-1.2-.4-.4-3 .7-5.8 2.4-7.9 4.6-9.4 4-10.6-4.4-.6-3.6-.4-5 .6-5.7 1.1-.6 1.1-1.1.2-2s-1.5-.9-2.7 0c-.8.7-3 1.2-4.8 1.2-12.7 0-13.8-.4-13.8-5.6 0-1.9-.6-3.6-1.2-3.8-.8-.4-.7-.6.4-.6 1.5-.1 1.5-.4-.1-4.5-.9-2.5-2.7-5.3-3.9-6.4-1.2-1-1.9-2.2-1.5-2.6.3-.3-.3-.6-1.5-.6s-2.2-.5-2.2-1.1c0-.5-.4-.7-1-.4-.5.3-1 .1-1-.4 0-1.4-1.3-1.4-2.7 0zm16.9 27.6c3.4 3.3 3.6 3.7 2 4.9-2.4 1.9-3.6 1.7-6.6-1.1-1.5-1.4-3.1-2.5-3.7-2.5-2.8 0 .4-3.9 4.1-4.9.2 0 2.1 1.6 4.2 3.6zm17.3 5.2c.4 3 .9 5.9 1.1 6.5.6 1.6-9.6 8-10.8 6.8-.6-.6.4-1.8 3.1-3.3 2.3-1.2 4.1-2.6 4.1-3s-1.9.3-4.2 1.6c-2.4 1.4-4.6 2.5-5 2.5-1.2 0 5-6 6.4-6.1 1 0 1-.2 0-.6-.6-.2-3 1-5.2 2.7-3.1 2.4-4.7 3.1-6.6 2.6-3-.8-2.4-2.1 1.3-3 3.3-.7 7.9-4.3 6.9-5.4-.4-.4-1.2 0-1.6.9-.5.9-3 2.4-5.6 3.4-3.9 1.5-4.8 1.5-5.5.4-1.3-2.2-1.1-3.2.7-2.5 1.9.7 8.4-2.2 9.1-4.1.3-.8-.2-2.2-1.2-3.2-1.6-1.9-1.4-1.9 5.3-1.8l7 .1.7 5.5zm1.3 13.4c.4 2.1-2.5 3.4-4 1.9-.8-.8-.8-1.6.2-2.7 1.6-1.9 3.4-1.5 3.8.8zm43.3-44.6c-1.2 1.3-1.1 1.4.8.8 1.7-.5 2.3-.1 3.1 2 .5 1.4 1.4 2.3 2 2 1.3-.8-.4-4.1-2.8-5.4-1.2-.6-2.1-.4-3.1.6zm58 1c-2.1 2.3-2.3 3.3-1.9 9.4.3 3.8.2 7-.3 7.1-.4.2-1.1 1.5-1.4 3-.5 2.1-.3 2.9 1 3.4 2 .8 3.5-1.1 3.5-4.6 0-2.6 2.2-9.9 4.6-15.8.8-1.7 1-3.2.5-3.2-.4 0-1.6 2.6-2.6 5.7-1 3.2-2.1 6.2-2.6 6.7-1.6 1.7-1-7.4.7-10.5 2-4 1.3-4.6-1.5-1.2zm9.1.6c-1.9 2-2.8 4.7-4.6 12.7-.4 1.9-.3 1.8.7-.5.6-1.7 2.4-5.5 3.9-8.5s2.6-5.6 2.4-5.7c-.1-.2-1.2.7-2.4 2zM242 200c-1.2 1.1-3.1 2.2-4.2 2.6-1.1.3-1.7.8-1.4 1.1.5.6 9.6-4.4 9.6-5.2 0-1.1-1.8-.4-4 1.5z"/><use xlink:href="#a" y="62"/><path d="M362.4 201.9c-3.4 1.6-6.5 3.4-6.8 4-1.1 1.6.6 1.3 3.4-.6 1.4-1 4.5-2.8 7-4s4.1-2.3 3.5-2.3c-.5 0-3.8 1.3-7.1 2.9zm127.6-.2c0 1.6-.3 3.8-.6 5.1-.6 2.2-.7 2.2-14 1.6l-13.4-.7v8.3l8 .1c4.4.1 8.5.3 9 .4.6.1 3 .3 5.5.4l4.5.1v4.5c0 4.4 0 4.5 3.4 4.5h3.3l.7-6.1c.3-3.4.6-9.2.6-12.9 0-6.2-.2-6.8-2.2-7.4-4-1-4.8-.7-4.8 2.1zm-359.6-.5c2.1 1.2 11.3 3.8 13.6 3.8.8 0 1-.3.5-.9-1.3-1.2-11.3-4.1-13.9-4.1-2 .1-2 .1-.2 1.2zm147.6.6c0 2.9 3.4 11.9 3.8 10 .2-.9-.4-3.1-1.3-4.8s-1.3-4-1-5c.4-1.2.2-2-.4-2s-1.1.8-1.1 1.8zm-62 .2c-2.7.6-2.9.8-1 .8 1.4.1 4.3-.3 6.5-.7 3.3-.7 3.5-.9 1-.9-1.6.1-4.6.4-6.5.8z"/><use xlink:href="#b"/><path d="M203.3 204.7c.9.2 2.3.2 3 0 .6-.3-.1-.5-1.8-.5-1.6 0-2.2.2-1.2.5zm-4.3 1.4c0 .5.5.7 1 .4.6-.3 1-.8 1-1.1 0-.2-.4-.4-1-.4-.5 0-1 .5-1 1.1zm-6 1.8c0 .5.9.7 2 .4s2-.7 2-.9-.9-.4-2-.4-2 .4-2 .9zm31.4.6c-1 .8-1.4 1.5-.8 1.5.5 0 1.9-.7 3-1.5 1-.8 1.4-1.5.8-1.5-.5 0-1.9.7-3 1.5z"/><use xlink:href="#a" x="-11" y="70"/><path d="M349.8 209.2c-2.1 1.2-3.8 2.6-3.8 3 0 .5 1.8-.4 4-1.8l4-3c0-.6-.3-.5-4.2 1.8zm-131.3 2.3c-1.6.8-2.3 1.4-1.4 1.5.8 0 2.4-.7 3.5-1.5 2.3-1.8 1.8-1.8-2.1 0zm81.6 2.2c-.1 3.4-1.6 5.2-2.4 3.1-.4-1-.6-1-.6-.1-.1.7-.7 1.3-1.5 1.3s-1.6.7-2 1.5c-.3.9 0 1.5.9 1.5.8 0 1.5-.4 1.5-.9s1.1-.8 2.4-.5c2.8.5 3.4-.8 2.5-5.6l-.6-3.5-.2 3.2zm-87.5.8c-1.1.8-1.5 1.5-.9 1.5s1.6-.7 2.3-1.5c1.6-1.9 1.1-1.9-1.4 0zm48.9-.8c-4.4.9-13.5 4.6-13.5 5.4 0 1.2 1.7 1.2 2.2 0 .2-.4 1.3-1.2 2.6-1.5 1.6-.6 2.2-.3 2.2.8 0 .9.5 1.6 1.1 1.6s.9-.8.6-1.9c-.4-1.5.5-2.1 5.7-3.4 5.3-1.3 4.6-2.2-.9-1zm-120.4 2.1c-.1.7-1.6 2-3.3 2.8-3.2 1.4-3.2 1.5-.4.9 3.1-.7 7.6 1.6 7.6 3.9 0 .8-2 2.6-4.5 4-6.1 3.6-5.7 4.2.6 1.1 4.5-2.3 5.4-2.5 8-1.3 3.9 1.7 4.3 3.3 1.3 5.2-1.3.9-2.4 2.3-2.4 3.1 0 2.3-1.5 1.8-5.2-1.5-1.8-1.7-3.7-3-4.3-3-.5.1.9 1.8 3.3 3.9l4.3 3.8-3.6 3.1c-1.9 1.8-3.1 3.2-2.6 3.2s4-3.4 7.7-7.5c6.6-7.4 6.7-7.4 9.5-6 1.5.8 3.6 1.5 4.6 1.4 1 0 .2-.6-1.7-1.2-2.6-.9-3.5-1.8-3.4-3.4 0-1.7-.2-1.9-1.7-1-1.4.9-2.2.7-3.9-.8-1.9-1.7-1.9-1.9-.4-3.7 1.4-1.5 1.5-1.8.3-1.8-.8 0-2.1.6-2.8 1.2-1 1.1-1.5.9-2.7-.6-2-2.8-1.8-3.3 1.9-4.6 1.9-.7 2.7-1.4 1.9-1.7s-1.9 0-2.5.6c-1.5 1.5-4.4 1.4-5-.2-.4-.9-.6-.9-.6.1zm51.9.1c0 .5 1.8 1.3 4 1.9 4.7 1.2 5.4-.1.9-1.7-3.9-1.3-4.9-1.4-4.9-.2zm81.5 2.2c3.7 3.2 5.2 3.6 3.2.8-1.1-1.5-4.9-3.9-6.2-3.9-.3 0 1 1.4 3 3.1zm-67-1.1c.4.6 1.1.8 1.6.5 1.4-.9 1.1-1.5-.7-1.5-.8 0-1.2.5-.9 1zm57.5 0c0 .5 1.4 1.9 3 3.2 3.4 2.5 6.6 6.8 5.1 6.8-.6 0-2.6-1.4-4.5-3-2-1.8-3.7-2.6-4.1-2-.3.5-.2 1 .3 1s3.2 1.8 6 4c4.7 3.8 10.2 5.4 10.2 3 0-.6-.6-1-1.3-1-1.5 0-11.7-10.4-11.7-11.9 0-.6-.7-1.1-1.5-1.1s-1.5.4-1.5 1zm12 12c0 .5-.2 1-.4 1-.3 0-.8-.5-1.1-1-.3-.6-.1-1 .4-1 .6 0 1.1.4 1.1 1zm45.4-9.8c-1.6 1.8-2.2 2.7-1.4 2 2-1.7 3.5-1.5 2 .3-.8.9-.9 1.5-.2 1.5.6 0 1.4-.5 1.8-1.1.3-.6 2-2 3.8-3.1l3.1-2-2.8.6c-1.9.5-2.6.3-2.2-.4 1.4-2.3-1.3-.8-4.1 2.2zm-31.2.3c0 1.6.2 2.2.5 1.2.2-.9.2-2.3 0-3-.3-.6-.5.1-.5 1.8zm17.4-1c-.9 2.6-.7 3.2.5 1.2.6-1 .9-2.1.6-2.3-.2-.3-.7.2-1.1 1.1zm-66.6 2.1c-2.2 1.2-2.2 1.4-.5 1.4 2.4 0 5.1-1.6 3.9-2.2-.5-.3-2 .1-3.4.8zm90-.1-5.7 2.7c-3.4 1.3-4.4 2.8-1.9 2.8.8 0 1.6-.6 1.9-1.3s2.8-1.9 5.6-2.7c2.8-.7 5.1-1.7 5.1-2.2 0-1.2-2.2-.9-5 .7zm-279.6 1c-3.3 1.4-4.8 4.3-5.9 10.8-.5 2.9-1 3.7-2.3 3.5-1.4-.3-1.7-1.5-1.7-5.8v-5.5l-3.7.4-3.8.3v6.8c0 5.2.5 7.3 2 9.2 2.4 3.1 7.1 4.2 11.2 2.5 2.6-1.1 3.5-2.3 5.3-7.7 1.9-5.6 2.5-6.5 4.6-6.5 3.3 0 4.7 4.2 3.2 9.8-.6 2.3-1 4.3-.9 4.5.2.1 2.2 0 4.4-.4 3.8-.6 4-.8 4.4-4.8 1.4-14.3-6-21.8-16.8-17.1zm226.6 2.4c0 .5.5 1.3 1 1.6.6.3 1 .2 1-.4 0-.5-.4-1.3-1-1.6-.5-.3-1-.2-1 .4zm-51 2.1c-.8.5-1 1-.5 1 .6 0 1.7-.5 2.5-1s1.1-1 .5-1c-.5 0-1.7.5-2.5 1zm101.8.7c1.2.2 3 .2 4 0 .9-.3-.1-.5-2.3-.4-2.2 0-3 .2-1.7.4zm-23.8 1.6c-1.4.7-2.6 2.3-2.8 3.5-.4 2.9.9 2.8 3.8-.3 1.6-1.7 3.4-2.5 5.7-2.5 2 0 3.2-.4 2.8-1-.9-1.4-6.5-1.2-9.5.3zm-140 1.9c0 1.5-.3 2.8-.7 3-.5.1-.6 2.1-.3 4.3.5 3.8.6 3.6 1.3-2.4.4-3.5.5-6.7.2-6.9-.3-.3-.5.6-.5 2zm123.9.4c-.7.8-.6 1.5.2 1.9.6.4 1.5.2 1.9-.5.7-1.2 3.9-.3 9.1 2.6.3.2.4-.8.1-2.1-.2-1.3-1.2-2.7-2.2-3-2.7-.9-8-.2-9.1 1.1zm37.4.1c.9.2 2.3.2 3 0 .6-.3-.1-.5-1.8-.5-1.6 0-2.2.2-1.2.5zM223.4 233c-1.2.5-2.5 1.3-2.8 1.9-.4.5.7.3 2.4-.5 1.6-.9 3-1.7 3-2 0-.5 0-.5-2.6.6zm88.4 0c-2.7.8-5.8 3.2-5.8 4.5 0 .3.6.3 1.2-.2.7-.4 2.6-.6 4.3-.4 2.4.2 2.8 0 1.8-1-1.1-1-.8-1.5 1.5-2.5 3.1-1.4 1.1-1.7-3-.4zm18.2 2.2c2.1 3.5 2.7 7.8 1 7.8-.5 0-1 .5-1 1.1 0 .8.5.8 1.5-.1 2-1.6 1.9-7-.1-9.8-2.4-3.5-3.6-2.6-1.4 1z"/><use xlink:href="#b" x="-42" y="31"/><use xlink:href="#b" x="52" y="33"/><path d="M295.4 237.5c2 1.5 2 1.5 0 1.5-1.1 0-2.9.7-4 1.6-1.9 1.5-1.9 1.6.1.8 1.1-.3 3-.6 4.3-.5 1.2 0 2.2-.4 2.2-.9 0-.6 1-1 2.3-1 1.8-.1 1.6-.3-1.2-1.5-4.3-1.9-6.2-1.9-3.7 0zm32.4 3.6c-.3 4.9-.5 5.4-2.7 5.3-1.6 0-2.7-.7-3.2-2.2-.8-2.2.4-3.1 1.6-1.2.3.5 1.2 1 1.8 1 2.1-.1-2.6-3-4.8-3-1.2 0-2.6-.5-3.2-1.1s-1.9-.9-2.9-.6c-1.6.4-1.6.5.3.6 2.5.1 7.3 5.4 7.3 8.2 0 1-.9 2.8-2 3.9-1.4 1.4-1.6 2-.6 2 .8 0 1.6-.7 2-1.5 1.5-3.9 6.6.5 6.6 5.8 0 1.6-.5 3.7-1 4.8-.8 1.3-.7 1.9 0 1.9 2.1 0 3.1-5 1.8-9.3-.6-2.3-1-4.7-.9-5.2 1-3.4 1.7-13.1 1-13.9-.4-.5-.9 1.5-1.1 4.5zM213.2 237.7c-.6.2-1 .9-.6 1.4.8 1.4 2.1 1.1 2.8-.6.6-1.5.1-1.7-2.2-.8zm74.8.3c-.8.5-1 1-.5 1 .6 0 1.7-.5 2.5-1s1.1-1 .5-1c-.5 0-1.7.5-2.5 1zm-110.3 1.7c.4 1 1.3 2.9 2.1 4.3 1.3 2.4 1.3 2.4.6-1-.8-4.1-1.2-5-2.4-5-.5 0-.6.8-.3 1.7zm83.1-.5c.5.5 1.6.8 2.3.6.8-.3.3-.7-1-1.1-1.7-.4-2.1-.3-1.3.5zm-112.8.3c0 1.2 7.7 3.5 11.6 3.5s4.4.3 4.5 2.2.2 2 .6.4c.7-2.6-.6-3.5-5.7-3.7-2.5-.1-5.7-.8-7.2-1.6-2.9-1.4-3.8-1.6-3.8-.8z"/><use xlink:href="#b" x="98" y="36"/><path d="M106.8 246.8c-.4 1.2-.4 4-.1 6.1l.5 3.9-5.8.7c-9.2 1-9.6 1.4-1.2 1.1 6.8-.3 7.9 0 10.1 2 2 1.9 2.6 2 3.1.9.3-.8.1-1.5-.3-1.5-.5 0-.7-.8-.4-1.8.2-1-.3-2.4-1.1-3.1-1.3-1.1-1.6-1.1-1.7 0 0 .8-.7 0-1.4-1.6-.9-2.1-1-3.2-.2-3.7.7-.4.8-1.3.1-2.9l-1.1-2.3-.5 2.2zm167.8.7c-1.9 1.5-1.9 1.5.1 1.5 1.1 0 2.3-.7 2.7-1.5.7-1.9-.3-1.9-2.8 0zm57.9 6.6c.8 2.3 1.5 5.2 1.5 6.5s.5 2.4 1 2.4c1.5 0 1.2-5.3-.6-8.8-2.3-4.8-3.5-4.8-1.9-.1zm6.6 1.6c-.1 1.8.4 3.3.9 3.3 1.2 0 1.2-1.7 0-4.5-.7-1.7-.9-1.5-.9 1.2zm-99 4.9c0 1.1.3 1.4.6.6.3-.7.2-1.6-.1-1.9-.3-.4-.6.2-.5 1.3zm125.3 5.6c1.3 1.8 2.6 4.6 2.9 6.3.2 1.6.3 1.1.2-1.3-.2-2.4-1-5.1-2-6.2-2.9-3.3-3.8-2.3-1.1 1.2zm4.6-2.3c0 .6.5 1.3 1 1.6.6.3 1 2.1 1.1 3.8 0 3 .1 3 1 .9.6-1.7.4-3-.7-4.8-1.7-2.6-2.4-3-2.4-1.5zM106.5 267c-.4.6.7 1 2.4 1s3.1-.5 3.1-1c0-.6-1.1-1-2.4-1-1.4 0-2.8.4-3.1 1zm172.6 17.4c-1.2 1.8-2.1 4.6-2 6.2l.1 2.9.7-3c.9-3.6 3-7.7 4.5-8.7.8-.6.8-.8-.1-.8-.6 0-2.1 1.5-3.2 3.4zm-12.9 4.8c-.7.7-1.2 1.9-1.2 2.7 0 1.1.5.8 1.6-.7 1.8-2.5 1.5-3.9-.4-2zm3.4 3.7c-.4.7-.5 1.5-.2 1.8.9.9 1.9-.4 1.4-1.8-.4-1.1-.6-1.1-1.2 0z"/><use xlink:href="#b" x="149" y="99"/><path d="m301.5 306-2 .9h2c1.1 0 2.7-.4 3.5-.9 1.3-.9 1.3-1 0-.9-.8 0-2.4.4-3.5.9zm-168.5.4c0 .2.7.6 1.5 1 .8.3 1.5.1 1.5-.4 0-.6-.7-1-1.5-1s-1.5.2-1.5.4zm29.5.6c-.3.6.1.7.9.4 1.8-.7 2.1-1.4.7-1.4-.6 0-1.3.4-1.6 1zm99.8-.3c.9.2 2.5.2 3.5 0 .9-.3.1-.5-1.8-.5s-2.7.2-1.7.5zM142.5 308c5.5.7 17.4.3 18.4-.6.2-.2-5.2-.3-12-.3-10.4.2-11.4.3-6.4.9zm127.5 1.1c0 .5.5.7 1 .4.6-.3 1-.8 1-1.1 0-.2-.4-.4-1-.4-.5 0-1 .5-1 1.1zm-126.8 4c.2.7 1 1.5 1.7 1.7.8.3 1.2-.1.9-.9-.2-.7-1-1.5-1.7-1.7-.8-.3-1.2.1-.9.9zm9.8-.1a1.08 1.08 0 0 0 1 1c.6 0 1-.5 1-1a.94.94 0 0 0-1-1c-.5 0-1 .4-1 1zm117 1.4c0 1.4.5 2.8 1 3.1.6.4 1-.7 1-2.4s-.4-3.1-1-3.1c-.5 0-1 1.1-1 2.4z"/><use xlink:href="#b" x="86" y="117"/><path d="M370.8 325.6c-2.1 1.9-3.4 3.4-3 3.4 1.1-.1 7.6-5.9 7.1-6.4-.2-.2-2.1 1.1-4.1 3zM274 327c-2.4.8-2.4.8.5.9 1.7 0 3.7-.4 4.5-.9 1.2-.8 1.1-1-.5-.9-1.1.1-3.1.5-4.5.9zm122.3 11.2c-.6.7-1.3 2.1-1.6 3-.4 1.1-1.2 1.5-2.2 1.2-2.2-.9-1.8 1.4.5 2.6 1.6.9 2 .8 2-.5 0-.9.7-2.9 1.5-4.5 1.6-3.1 1.5-3.9-.2-1.8zm-201.8.8c-.3.5-.1 1 .4 1 .6 0 1.1-.5 1.1-1 0-.6-.2-1-.4-1-.3 0-.8.4-1.1 1zm146.8 44.9c-2.4 2.8-4.3 5.3-4.3 5.8.1.4.9-.2 2-1.5l1.9-2.3 9.1 3c10.1 3.4 10.4 3.5 9.5 2.2-.3-.5.2-1.7 1.1-2.5 2-2.1.6-2.1-1.7 0-1.5 1.3-2.3 1.4-6.1.3-2.3-.7-4.7-1.6-5.2-2.1-.6-.4-1.8-.8-2.8-.8-2.2 0-2.3-1.3-.2-4.5 2.5-3.9 1.3-3-3.3 2.4zm-12.8-.9c.3.5 1 1 1.6 1 .5 0 .9-.5.9-1 0-.6-.7-1-1.6-1-.8 0-1.2.4-.9 1zm7.8.7c.9.9 2 1.3 2.4.9s.1-1.1-.7-1.6c-2.5-1.6-3.5-1.1-1.7.7zm-26.8.4c-1.2.5 1.1.8 6 .8 5.5.1 7.5-.2 6.5-.9-1.7-1.1-9.5-1.1-12.5.1zm124.1 2.8-2.6 2.7 2.7 2.5c5.8 5.2 6.2 5.3 8.3 3.4s1.6-3.4-3.1-8.6l-2.6-2.8-2.7 2.8zm5.5 5.3c.7 1.4.6 1.6-.6 1.2-1.9-.8-3.7-3.9-2.8-4.8.7-.6 1.4.2 3.4 3.6zm-250.6-4.7c1.1.9 2.9 2.1 4 2.6l2 1-2-1.6c-1.1-.9-2.9-2.1-4-2.6l-2-1 2 1.6zm180.4 2.2c-1.3 1.6-1.2 1.7.4.4s2.1-2.1 1.3-2.1c-.2 0-1 .8-1.7 1.7zm-230.3 1.9c-1.1.7-1.6 1.7-1.3 2.1.4.4 1.5-.1 2.4-1 2.2-2.1 1.4-3-1.1-1.1zM331.5 391c.3.5.1 2-.6 3.2-1.2 2.2-1.2 2.2 1.3.6 2.1-1.4 2.7-1.4 3.9-.3 1.4 1.3 11.9 7.3 10.9 6.2-.3-.3-3.6-2.8-7.4-5.6-6.5-4.8-9.5-6.3-8.1-4.1zm23.5 2.5c-.7.9-.8 1.5-.2 1.5.5 0 1.2-.7 1.6-1.5.3-.8.4-1.5.2-1.5s-.9.7-1.6 1.5zm7.8-.3c1.7 1.7 1.5 2.4-1.5 5.3-3.9 3.6-2.1 3.1 2.1-.6 2-1.7 4-2.8 4.5-2.5.5.4 1.2.3 1.4-.1.8-1.3-1.6-2.8-4.7-3-2.2-.2-2.6.1-1.8.9zm64.3 1.4c-2.5 3.2-2 4.5 3 8 3.8 2.6 4 2.7 5.4.8.8-1 1.5-2.3 1.5-2.8 0-1.2-6-8.6-7-8.6-.5 0-1.8 1.2-2.9 2.6zm5.6 4.1 1.5 2.3-3.1-1.6c-3.3-1.6-4.2-3.8-1.5-3.2.9.2 2.3 1.3 3.1 2.5zm-58.7-3.3c0 .9 3 1.4 3.5.6.4-.6-.3-1-1.4-1-1.2 0-2.1.2-2.1.4zm5 1.6c0 .5.7 1 1.5 1s1.5-.5 1.5-1c0-.6-.7-1-1.5-1s-1.5.4-1.5 1zm-53 1.5c-1.1 1.3-1 1.4.4.9.9-.3 1.6-1 1.6-1.5 0-1.3-.6-1.1-2 .6zm23 2c-1.3 1.4-1.8 2.5-1.1 2.5s2.9 1.1 4.9 2.5 4 2.5 4.5 2.5c1.7 0-.5-2-3.8-3.6-3.5-1.6-4.6-3.9-2.2-4.7.6-.2.9-.7.6-1.1-.3-.3-1.6.5-2.9 1.9zm-232.4 3.7c-2.6 2.3-3.5 3.8-3.1 5 1.1 2.7 3.2 2.8 7 .2 5.1-3.5 6.1-3 2.6 1.3-5.4 6.6-3.4 8.8 4.8 5.2 2.8-1.2 5.1-2.6 5.1-3.3 0-1.1-10.7-11.6-11.9-11.6-.4 0-2.5 1.5-4.5 3.2zm4 2.4c-3 2.2-3.9 1.7-1.9-1 1.2-1.6 2.1-2.1 2.8-1.5.7.7.3 1.5-.9 2.5zm7 7c-3.4 2.5-5.2 1.7-2.6-1.1 1.7-1.8 2.7-2.2 3.4-1.4.8.7.5 1.5-.8 2.5zm41.6-9.4c.2.6 1.5 1.8 2.9 2.7l2.4 1.5-2.4-2.7c-2.6-2.9-3.5-3.4-2.9-1.5zm239 8.9c-5.8 5.1-9.1 8.7-8.8 9.5.4 1-.3 1.4-2.2 1.4-1.6 0-3.3.5-3.8 1-.6.6-2.6 1.9-4.5 2.9-2 1.1-3.5 2.7-3.7 4-.2 1.5-.9 2.1-1.8 1.7-1.8-.7-12.4 4.4-12.4 6 0 .6-1.2 1.1-2.6 1.1-1.5 0-2.9.5-3.3 1.1-.3.5-2.3 1.7-4.3 2.5-2.1.9-3.8 2.1-3.8 2.7 0 2 4.2 7.1 5.4 6.7.7-.3 2.3 1.6 3.7 4.2 4.8 9.3 6.2 10.9 10.6 12.1 3.9 1.2 4.5 1 9.7-1.9 4.4-2.6 5.7-3.9 6.5-6.7 1-3.7-.7-9.8-3.5-11.9-.7-.5-1.8-2.4-2.4-4-1-3-1-3 .7-.8 2.8 3.4 9.2 3.2 13.5-.5 1.4-1.2 2.1-1.2 3.3-.2 2 1.6.8 3.3-1.8 2.6-1.2-.3-3.5.4-5.4 1.5-2.7 1.7-3.2 2.6-2.7 4.3 1.6 5.6 9.2 6.3 16 1.4 4.5-3.2 6.3-7.3 5.1-11.8-.7-2.7-.1-2.5 3.1 1.1l2.8 3.1 3.9-3.6c2.2-1.9 5.6-5.1 7.6-7.1 1.9-1.9 4-3.5 4.6-3.5s1.6-.6 2.2-1.4c1-1.2.5-2.3-2.8-5.6l-4-4.2-2.6 1.9c-1.4 1-2.8 3-3.1 4.5-.7 2.9-2.9 4.4-4 2.7-.3-.6.6-2.4 2.2-4l2.8-2.9-3.2-3.2-3.2-3.2-2.8 2.7c-2.8 2.7-4.2 2.7-4.2 0 0-.7.9-1.3 2-1.3 2.5 0 8-3.9 8-5.6 0-.9-6.4-7.4-7.3-7.4-.1 0-4.4 3.7-9.5 8.1zm10.6-1.9c1.7 1.7 1.5 2.8-.6 2.8-1 0-2.8.9-4 2s-2.6 2-3.2 2c-1.9 0-1 2.6 1.9 5.4l2.8 2.7 3.7-2.1c4.3-2.6 4.8-1 .6 2l-3 2.1 3.7 4 3.7 4 2.1-2.3c1.1-1.3 2.9-2.8 4-3.4 1.1-.7 1.9-1.9 1.7-2.8s.1-1.6.6-1.6c1 0 3.7 2.9 3.1 3.3-.2.2-3.2 2.8-6.7 6-6.1 5.5-9 7.1-7.9 4.3.7-1.7-13.7-17.1-15.1-16.2-.6.3-1.4.2-1.7-.4-.8-1.4 2.1-6 3.8-6 .7 0 2.8-1.6 4.7-3.5 3.8-3.9 4.1-4 5.8-2.3zm-17 17c-.3.7-1.8 1.4-3.4 1.6-3 .4-7.4 3.7-7.4 5.6 0 .6.9 2.2 1.9 3.5l1.8 2.4 4.5-2.7c2.5-1.4 5.3-2.6 6.2-2.6 2.5 0 7.6 5.1 7.6 7.5 0 3.2-1.2 6.5-2.2 6.5-.6 0-2.2.8-3.6 1.9-1.9 1.2-3.8 1.7-6 1.4-4-.6-3.7-2.8.4-2.8 3.2 0 8.4-3.1 8.4-4.9-.1-1.5-4.6-6.6-6-6.6-1.2 0-4.7 1.9-7.1 3.8-2.1 1.6-6.2.1-8.3-3-2.2-3.3-.8-7.2 3.4-10.2 3.7-2.7 10.5-3.6 9.8-1.4zm12.4 7.1c3.1 4.3 1.1 4.6-2.7.4-1.9-2-4.3-3.7-5.4-3.7-1.2 0-2.1-.5-2.1-1 0-.6.5-1 1-1 .6 0 1-.8 1-1.7 0-1.3.7-1 3.1 1.3 1.7 1.6 4 4.2 5.1 5.7zm-15.8-.4c.7 1.1-2.2 2.3-3.5 1.5-.5-.3-.7-1-.4-1.5.8-1.2 3.2-1.2 3.9 0zm-16.7 4.3c-.6 2.1 4.6 12.9 8 17 1.3 1.4 1.2 2-.2 4.2-.9 1.3-3.2 3.6-5.1 5.1-4.7 3.6-9.1 2.5-11.8-3.1-1-2.1-2.3-4.1-2.8-4.3s-1.8-2.3-2.9-4.8c-1.3-3-2.4-4.3-3.3-4-2.9 1.1-2.4-2.1.4-3.3 3.2-1.3 4.5-1.1 4.5.6 0 1.6 8.3 16 10 17.4 1.6 1.4 7.5-1.8 7.5-4.1 0-2-5.7-13.9-6.7-13.9-.5 0-1.7-1.2-2.7-2.7-1.9-2.6-1.9-2.6.5-4.4 3.3-2.6 5.3-2.4 4.6.3zm-4.2 10.2c.9 1.7 2.5 4.6 3.7 6.4 1.5 2.5 1.8 3.6.9 4.5-.8.8-1.6.6-2.9-.9-1.9-2-6.2-10.4-6.2-12 0-2.3 3-.9 4.5 2zm-39.6-37.7c-1.3 1.6-1.2 1.7.4.4s2.1-2.1 1.3-2.1c-.2 0-1 .8-1.7 1.7zm-156.8.6c.2.1 1.3.9 2.4 1.7 1.9 1.4 1.9 1.4.6-.3-.7-.9-1.8-1.7-2.4-1.7s-.8.1-.6.3zm-43.9 9.7c-1.2 1.6-2.2 3.6-2.2 4.3 0 .8-1.6 4-3.6 7.1-2.7 4-4.3 5.6-5.9 5.6-1.5 0-2.7 1-3.8 3.2-1.4 3-1.4 3.4 0 5 .9 1 2 1.8 2.5 1.8.4 0 3.5 2 6.9 4.5 4.9 3.6 6.5 4.3 7.9 3.5 1-.6 3.1-1 4.5-1 2.6 0 2.7.1 1.2 2.4-1.5 2.2-1.5 2.5.1 3.9 1 .9 4.2 2.8 7.2 4.2a134.9 134.9 0 0 1 9.5 5l4 2.4 1.7-2.2c1.3-1.6 1.8-1.8 1.8-.6 0 .8-.5 2-1.1 2.6-.7.7 0 1.4 2.3 2.2l6.6 2.7s3.5 1.4 3.7 1.4c1.2 0 4.2-6.3 3.8-8-.3-.9.4-3.5 1.5-5.6 1-2.2 2.2-5.1 2.6-6.6.4-1.9 1.1-2.6 2.1-2.2.9.4 1.5.1 1.5-.7 0-.7.7-2 1.6-3s1.3-2.3.9-2.9c-.7-1.1-9.9-6-11.4-6-.5 0-3.8-1.6-7.3-3.6-13.7-7.9-15.9-8.9-16.8-7.4-.6 1-1 .7-1.5-1.3-.4-1.6-2-3.4-3.6-4.3-1.6-.8-2.9-1.8-2.9-2.2 0-.6-10.2-7.2-11.2-7.2-.2 0-1.4 1.3-2.6 3zm7.2 3.5c1.5 1.4 2.9 2.5 3.2 2.5s1.9.9 3.5 2.1c4.6 3.2 4 6.9-2.6 15.5-7.7 10-9.7 10.3-19.2 3.1-6.1-4.5-6.8-6.5-2.1-5.8.7.1 6.8-7.3 6.8-8.3 0-.4 1.5-2.2 3.4-4.1 2.4-2.4 3.3-4 2.9-5.5-.7-2.7.8-2.5 4.1.5zm33.4 20.2c.2.1.1 1.1-.3 2.2-.8 2.6-2.5 2.7-3.1.3-.4-1.4-7.3-5.2-9.6-5.2-.4 0-1.7 1.8-2.8 4l-2 3.9 3.6 1.9c2.1 1.1 3.3 2.2 2.7 2.5-.5.3-2.2-.1-3.7-.9-1.6-.7-3-1.4-3.2-1.4-.7 0-4.4 6.4-4.4 7.5 0 1.6 6.2 4.9 8.7 4.7s2.8.5 1.4 2.7c-.8 1.2-2.3.8-9-2.5-7.4-3.6-10.3-6.4-6.6-6.4.9 0 2-1.1 2.5-2.4s1.2-2.5 1.7-2.7c1.4-.7 7.4-13 6.8-14-.4-.5-.3-1.4 0-1.9.4-.7 3.8.6 8.8 3.2l8.5 4.5zm-23.5 0c-1.3 3.3-4.5 8.3-5.4 8.3-1.4 0-1-2.6.6-4 .8-.7 1.5-1.8 1.5-2.6 0-.7.8-1.8 1.8-2.3 2.3-1.4 2.2-1.4 1.5.6zm14.4 3.1c.6 2.4 9 6.6 9.7 4.9.2-.7.5-.4.5.5.1 1-1.1 4.2-2.5 7.3-1.9 3.9-3.2 5.5-4.6 5.5-1.1 0-1.6-.4-1.3-1.1.4-.6-.2-1.7-1.3-2.5l-2-1.4 2-4.1 2-4.2-3.1-2.4c-1.7-1.4-2.9-2.9-2.6-3.4 1-1.5 2.7-1 3.2.9zm19.8 2c2.2 1.7 2.1 4.5-.1 4.3-1.7-.2-9.5 16.2-8.9 18.6.6 2.7-.5 2.9-4.5.8-3.4-1.8-3.9-3.5-1.1-3.5 1.4 0 2.7-1.9 5.1-7.8 1.8-4.2 3.7-8.3 4.2-9 .7-.8.7-1.6-.1-2.5-2.4-3 1.9-3.6 5.4-.9zm-25.4 7.3c2.5 1.3 1.6 2.9-1.7 2.9-2.6 0-2.7-.1-1.8-2.4.7-1.9.9-1.9 3.5-.5zm-22.3-25.9c-1.3 1.8-2.7 4.1-3.1 5-.3 1-1 1.8-1.5 1.8-1.6 0-5.2 5.9-4.6 7.5.6 1.5 5.4 4.5 7.2 4.5.5 0 3.5-3.2 6.6-7.2 6.1-7.7 6.7-10.6 2.9-12.3-1.3-.5-2.3-1.3-2.3-1.7 0-1.9-3-.5-5.2 2.4zm6.2 2.2c0 1.9-8.3 12.6-9.5 12.2-1.8-.5-1-2.8 3-8.2 3.9-5.2 6.5-6.8 6.5-4zm297.6 3.7c-2 2.3-2.6 4.2-2.6 7.5v4.5l-5.7-.6c-5.3-.6-6-.5-8.2 1.9s-2.3 2.7-.8 4.9c2.4 3.8 14.8 18.2 15.9 18.6 1.3.4 5.8-2 5.8-3.2 0-.5-2.7-3.9-6-7.6s-6-7.1-6-7.5 1.7-.5 3.8-.1c4.7.8 7.2-1.5 7.4-6.9.1-2 .4-3.6.8-3.6s3.7 3 7.3 6.7l6.6 6.8 2.7-2.6 2.6-2.6-9.8-9.7c-5.4-5.3-10.2-9.6-10.5-9.6-.4 0-1.9 1.4-3.3 3.1zm-98.8 11.6c-1 .2-1.8.9-1.8 1.4s-.7.9-1.6.9c-1.3 0-1.4 1.6-.8 13 .5 9.4.4 13-.4 13-.7 0-1.4-1.1-1.8-2.5-.7-2.9-.5-2.8-5.5-1.3-3.1.9-3.9 1.6-3.9 3.5 0 1.8-.5 2.4-1.7 2.1-2.3-.4-5.4-12.5-3.5-13.7.7-.4 1.1-1.4.8-2.2-.2-.8-.7-2.6-1-4l-.6-2.6-7.7 1.5c-4.3.8-8.7 1.8-9.8 2.2-2.4 1-27.7 3.1-32 2.8-2.9-.3-3-.1-3.3 4.2-.2 3.2-.9 4.9-2.2 5.8-1.6 1-2 1-2-.2 0-.8.7-1.6 1.5-2 1.7-.6 1.7-6.3 0-7.4-.5-.4-3.6-.7-6.8-.8l-5.7-.2.6 11.9.7 11.9h-2.4c-2.4 0-2.6-.5-3.8-8.7-1.8-13.1-3.1-16.3-6.1-16.3-1.4 0-3.4-.3-4.6-.6-1.7-.4-2.4.4-4.6 5.4-1.5 3.2-3.4 6.4-4.2 7.1-.9.8-1.6 2-1.6 2.8 0 2.3-3.3 7.3-4.7 7.3-.7 0-1.3 1.1-1.3 2.4s-.3 3.1-.6 4c-.6 1.6.5 2 8.9 3.1l4.7.6v-5c0-5 .1-5.1 3-5.1 3.1 0 4.1 1.4 1.6 2.3-.7.3-1.6 2.2-1.8 4.1-.4 3.4-.2 3.6 2.9 4.1l6.9 1.1c2.5.4 4 .1 4.5-.8.7-1 .9-1 .9-.1s2.2 1.3 7.5 1.3h7.5v-3.9c0-2.2-.5-4.1-1.2-4.3-1.5-.5-.1-2.8 1.7-2.8 1 0 1.2 1.2.8 5.5l-.6 5.5h7.2c6.7 0 7.1-.1 7.2-2.3 0-1.2.2-3 .4-4 .2-1.1-.3-1.7-1.4-1.7-1.3 0-2.5-1.7-4-5.7l-2.2-5.6 2.2-2.4c2.7-2.8 3.9-2.9 3.9-.5 0 1.4.7 1.7 4 1.4s4-.8 4-2.5c0-1.3.4-1.7.9-1.2 1.4 1.6 2.3 15.3 1 15.7-.8.3-.9 1.8-.5 4.4l.7 4 6.1-.6c4.3-.4 6.4-1.1 7.4-2.5 2-2.7 1.7-6-.6-7.6-1.7-1.1-2.1-2.8-2.5-8.4-.2-3.9-.2-6.2.1-5.3.4 1.3 1.6 1.8 4.5 1.8 3.3 0 3.9-.3 4-2.3.2-4.8 2.1 5 2.4 12.6.1 4.3.5 8 .8 8.3 1.5 1.5 34.2-7.2 38.6-10.2.2-.2-.4-2.4-1.3-5-2-5.8-2-5.4.4-5.4 1.4 0 2 .7 2 2.4 0 1.3.8 3.4 1.9 4.7l1.8 2.3 5.7-2.3c3.1-1.3 5.9-2.7 6.2-3.2 1-1.6-2.1-6.4-4.4-6.7-1.2-.2-2.7-1.3-3.4-2.5-.6-1.2-2.9-4-5-6.3-2.1-2.2-4.6-5.1-5.5-6.5-2.7-3.9-3.6-4.2-7.5-3.2zm7.2 7.5c2.2 2.4 4 4.7 4 5.2 0 1.2 7.6 8.6 8.8 8.6 2.5 0 2 2-.9 3.5-2.3 1.2-3.4 1.4-4.3.5-.8-.8-.8-1.3.2-1.9.9-.5.6-1.4-1.3-3.1l-2.5-2.4-4.8 2c-4.1 1.7-4.7 2.4-5 5.2s0 3.2 2 3.2c1.9 0 2 .2.8 1.4-.8.8-2.4 1.7-3.5 2-1.9.5-2 0-2.3-13.1-.2-13.8.1-15.2 3.6-15.3.7 0 3.1 1.9 5.2 4.2zm-31 4.6c0 .4-.5 1.3-1.1 1.9-.7.7-.4 3.6 1.1 9.9 2.8 12 2.6 11.6 4.7 10.5 1-.5 3.1-1.3 4.6-1.6 2.5-.5 2.8-.9 2.3-3-.5-1.8-.2-2.5.8-2.5 1.9 0 3.1 5.7 1.6 7.5-.6.8-3.3 1.7-5.8 2.1-2.6.4-5.8 1.1-7.1 1.6-2.8 1-5.5-.7-3.3-2.1 1.4-.8 1.2-1.7-2.5-14.9-1-3.4-2.3-6.2-3-6.2-2.6 0-1.2-2 2-2.9 4.2-1.2 5.7-1.3 5.7-.3zm-76.5 4.4 2 12.3c1 6.4 2.1 10.3 3 10.8 2.9 1.6 1.7 3.7-2 3.7-3.8 0-5.9-2.5-3.4-4 1-.7 1.1-1.6.3-3.7-.8-2.4-1.6-2.9-5.7-3.4-4.6-.5-4.9-.4-6.4 2.5-1.1 2.1-1.2 3.1-.4 3.4 1.7.6 1.3 3.2-.5 3.2-2.1 0-5.4-1.8-5.4-3 0-.6.6-1 1.3-1s2.3-2.4 3.5-5.3c2.9-6.4 7.2-14.8 8.5-16.5 1.6-2 4.6-1.4 5.2 1zm64-1.2c.8 1.3-.4 5-1.6 5-.5 0-.9-.7-.9-1.5 0-1.1-1.1-1.5-3.6-1.5-2.9 0-3.4.3-3 1.7.3 1 .8 5.6 1.2 10.1.4 5.6 1.1 8.5 2 8.9 1.8.7 1.8 3.3 0 3.3-.7 0-2.8.3-4.5.6-2.4.5-3.1.3-3.1-1 0-.9.7-1.6 1.5-1.6 1.6 0 2.1-4 .8-5.4-.5-.4-.9-2.2-1-3.9-.1-1.8-.5-5.1-.9-7.5-.6-4.1-.8-4.3-3.8-4-2.3.2-3.2.8-3.4 2.5-.5 3.2-3.2 1.7-3.2-1.7 0-2.7.3-2.9 5.8-3.5 3.1-.3 6.6-.7 7.7-.9 4.6-.7 9.4-.5 10 .4zm-42.9 2.1c.3.6.1 1.6-.5 2.2s-1.1 3.7-1.1 6.8v5.7l5.4-5.6c4-4.1 5.2-6 4.4-6.9-1.6-2 .1-3.3 4.3-3.3 3.3 0 4 .3 3.7 1.7-.2 1-.9 1.7-1.5 1.6-.5-.1-2.5 1.3-4.3 3.2l-3.2 3.3 2.6 7c1.8 4.7 3.3 7.2 4.6 7.5 1.1.3 2 1.2 2 2.1 0 1.2-1 1.6-4.5 1.6-4.5 0-5.8-1.3-3.5-3.6.6-.6.2-3-1.2-6.8l-2.2-5.9-3.3 3.9c-3 3.5-3.3 4.4-2.9 8.1l.6 4.3h-3.5c-3.4 0-4.9-2-2.5-3.5.6-.3 1-4.9 1-10.1 0-7.5-.4-9.9-1.6-11.2-1.5-1.5-1.5-1.6.2-2.3 2.9-1.1 6.2-1 7 .2zm80.4-4.6c0 3.6.2 6.5.4 6.5 1.3 0 7.6-3.2 7.6-3.8 0-1.2-4.9-7.5-6.5-8.5-1.3-.7-1.5.3-1.5 5.8zm-106.9 8.1c-2.4 3.1-3.6 6.8-2.6 8.3.3.6 2.1 1.1 3.9 1.1h3.3l-.8-5.6c-.4-3.1-1-5.8-1.2-6-.3-.3-1.4.7-2.6 2.2zm-36.7-15.8c-1 .7-3.8 10.1-3.2 10.7.2.1 1.9.5 3.9.9 2.9.5 3.8.3 4.3-1 .4-.9.8-1.5 1.1-1.3.8.8-3.3 14.4-4.3 14.2-1.3-.3-3.6 6.3-2.9 8.1.5 1.3 12.4 4.2 13.4 3.2 1.1-1 2-7.5 1.2-8.3-.5-.5-.3-3.1.4-5.8 1.3-5.4.7-5.1 9.1-4.2 1.4.2 2.1-.9 3.2-4.8 1.7-6.5 1.8-6.2-.8-6.8-7.2-1.5-21.5-4.8-22.8-5.2-.8-.3-2-.1-2.6.3zm21.4 6.7c1.9.5 2.3 1.1 2 3.8-.3 3.2-2.3 4.1-2.3 1 0-1.8-5.2-4-6.5-2.7-1.6 1.9-5.1 17.3-4.4 20 .7 2.6.6 2.7-2.7 2-4.4-.8-5.7-2.2-3.8-3.8.9-.7 2.1-3.3 2.8-5.8s1.9-6 2.7-7.8c1.6-3.5 1.1-7.2-1.1-7.2-.7 0-2-.3-2.9-.6-1.1-.4-1.6-.1-1.6 1 0 .9-.4 1.6-1 1.6-1 0-1.4-4.3-.5-5.2.5-.5 4.7.4 19.3 3.7zm195.9-3c-2.2 1.6-2.4 1.2 6.7 13.3 3.8 5.1 7.4 9.2 8 9.2 1.3-.1 4.6-2.4 4.6-3.3 0-.3-1.2-1.9-2.7-3.5-1.6-1.6-5.3-6.1-8.3-10.1-3-3.9-5.7-7.1-6-7.1-.3.1-1.3.7-2.3 1.5zm-317.5 11.7L95 480.5l2.1 1.7c2.2 1.8 4.9 2.4 4.9 1 0-.4 2.3-3.2 5-6.2l4.9-5.5-.4 10.5c-.4 10.4-.4 10.5 2.1 12.4 2.2 1.5 2.8 1.6 3.9.5 3.7-4 16.5-19.4 16.4-19.8 0-.4-1.3-1.6-2.9-2.8l-2.8-2.3-3.8 5c-4.5 5.9-5.2 5.3-5.3-4.3-.1-5-.5-6.1-2.8-8.2-1.6-1.3-3.3-2.5-3.8-2.5-.6 0-4.7 4.6-9.3 10.2zm306.3-3.6-6.2 5.2c-.3.7 12 20.9 13.7 22.6.5.5 3.7-1.3 7.9-4.4 5.9-4.5 6.8-5.7 6-7.2-1.3-2.5-2.4-2.3-6.9 1.3-4 3.2-5.2 3.2-7-.1-.8-1.6-.4-2.3 3-4.7 4.2-3 4.8-4.4 2.6-6.2-1-.9-2.2-.4-5.1 1.9-3.5 2.8-3.9 2.9-5.1 1.3-2.1-2.8-1.7-4.1 2.6-6.9 4.2-2.8 4.4-3.2 3.4-5.8-.9-2.4-2.3-1.9-8.9 3zm-13.7 9c-1.4 1.4-1.3 2 .9 5.9l2.4 4.4-4 2.6c-2.2 1.5-4.4 2.4-4.9 2.2-.4-.3-1.7-2.4-2.8-4.6-2.1-4.4-3-4.8-5.9-2.8-1.7 1.3-1.7 1.5 0 4.8.9 1.9 3.7 7.3 6.1 12.1 2.4 4.9 4.7 8.8 5.1 8.8.5 0 1.9-.9 3.2-1.9l2.4-1.8-2.7-3.9-2.7-3.9 3.6-3.3c1.9-1.7 3.8-3.2 4.2-3.2.5 0 2.1 2.3 3.6 5 1.6 2.8 3.1 5 3.5 5s1.8-.7 3-1.6c2.7-1.8 2.4-3.2-2.1-10.7-9.5-16-9.7-16.2-12.9-13.1zM134.6 478.5c-2.1 3.2-2 4.2.3 5 4.3 1.3 4.2 2.8-.9 11.3l-4.9 8.2 2.8 1.5c3.3 1.7 3.2 1.8 6.5-4.8 1.4-2.9 3.6-6.5 4.9-8l2.2-2.9 3.3 1.9c3.3 1.8 3.3 1.8 5.3-.6 2.4-2.9 2.5-6.1.2-6.1-1 0-5.2-1.8-9.3-4s-7.8-4-8.1-4c-.4 0-1.4 1.1-2.3 2.5zm22.8 11.2c-.9 2.1-3.3 7.5-5.5 12-4.4 9.2-4.7 10.9-1.9 11.8s3.1.5 7.5-8.1l4-7.8.7 3.9c.4 2.2.7 6.8.7 10.2.1 5.9.3 6.3 3.1 7.8 5.6 2.9 6.1 2.4 11.3-10.3 2.6-6.4 4.7-12.2 4.7-12.7 0-1.2-5-3.6-6.1-3-.4.3-1.1 2-1.4 3.8-1.1 4.8-3.6 10.7-4.6 10.7-.5 0-.9-2.2-.9-4.9 0-2.6-.3-6.9-.6-9.5-.6-4.2-1.1-4.9-4.2-6.1-4.8-2.1-5.1-2-6.8 2.2zm207.9 1.2c-6.5 1.7-6.5 2-1.1 15.4 2.7 6.7 5.1 12.3 5.3 12.5.9.9 11.1-3.3 13.2-5.4 4.1-4.2 2.7-16.1-2.6-20.8-2.4-2.1-9.7-3-14.8-1.7zm11.1 7c.9 1 2.2 3.5 2.7 5.6.9 3 .7 4-.7 5.6-2.9 3.2-4.8 2.3-7.7-3.6-3.7-7.6-3.6-9.5.6-9.5 2 0 4.1.8 5.1 1.9zm-25.1-1.9c-2.9 1.2-2.9 2.2.2 10 1.4 3.5 2.5 6.5 2.5 6.8 0 .7-8.9-6.1-11.6-8.9-2.8-2.9-5.5-3.5-10.2-2.2-2.7.7-2.8-.4 1.7 16.6 1.5 5.9 3 11 3.3 11.2.3.3 2.1-.2 4.1-1 3.7-1.5 4.7-3 2.6-3.7-1.1-.4-5.2-13.8-4.4-14.6.4-.4 10.8 7.3 15.6 11.5 2.4 2.2 2.7 2.3 6.2.8l3.6-1.5-2-4.7c-1.2-2.7-3.3-8.4-4.8-12.7-1.5-4.4-3.2-8.1-3.7-8.2-.5-.2-1.9.1-3.1.6zm-165 3.7c-.3 1-1.7 4.5-3 7.8-3 7.4-3.1 12.6-.3 16.5 2 2.9 7 5 11.8 5 3.7 0 9.7-6.7 12.5-14 4-10.5 4-10.5 1.3-12-3.7-1.9-5.2-.7-6.6 5.2-1.9 8.1-4.8 12.8-8 12.8-5.6 0-6.6-5.4-2.5-14.7 2.4-5.4 2.5-5.8.9-7-2.5-1.8-5.4-1.6-6.1.4zm123 8.3c-6 3.6-8.2 14.3-4.4 20.6 1.3 2.1 3.6 3.8 6.5 4.9 5.6 2.2 10.2 1.2 15.4-3.2 4.4-3.6 5.4-10.3 2.7-16.4-3.4-7.4-13.1-10.3-20.2-5.9zm13.7 6c3 3 2.7 9-.6 12.5-2.1 2.2-3.1 2.6-5.7 2.1-5.1-1-7.7-3.3-7.7-6.7s2.3-8.5 4.2-9.2c3.1-1.3 7.9-.6 9.8 1.3zm-71.2-2.3c-.4 5.9-.5 5.8 4.7 6.3l5 .5.2 7.5.2 9.7c.1 1.9.7 2.3 3.6 2.3h3.5v-19.9l4.3-.3c4.2-.3 4.2-.3 4.5-4.4l.3-4.1-13 .1c-12.8.1-13.1.1-13.3 2.3zm29.2 11.8V538h7.2l-.7-6c-.6-5.5-.5-6 1.2-6 2.4 0 4.4 2.1 7.1 7.6 1.9 3.7 2.3 4 5.6 3.6 2-.2 3.4-.7 3.1-1.2-.2-.4-2-3-3.9-5.9-3.4-5-3.5-5.4-2.1-8.1 4.2-8.2-.4-13-12.7-13H281v14.5zm11.4-8.9c1.6.6 2.2 3.9.9 4.7-.5.2-2 .7-3.5 1.1-2.6.6-2.8.4-2.8-2.3 0-2 .6-3.1 1.8-3.4.9-.3 1.8-.5 1.9-.6.1 0 .8.2 1.7.5z"/></g></svg>