<svg width="280" height="305" xmlns="http://www.w3.org/2000/svg"><g fill="#fff"><path d="M139.81 15c-.812 0-2.535 1.26-3.827 2.802-1.293 1.54-2.368 4.454-2.391 6.471l-.044 3.668-4.128-3.979c-2.271-2.189-3.613-3.778-6.011-3.98-1.23-.105-2.559.672-3.385 1.494-.827.821-1.503 2.94-1.503 4.708 0 2.277 2.191 5.37 7.514 10.608l7.513 7.394v18.601l-3.756-3.58c-2.548-2.428-3.757-4.787-3.757-7.334 0-2.536-.836-5.271-3.54-8.045-3.029-3.108-5.533-3.923-8.856-3.923-3.242 0-6.834 1.685-9.165 4.072-2.124 2.175-3.485 4.93-3.485 8.408 0 3.147 1.359 4.897 2.818 6.917.714.99 1.783 1.686 2.788 2.384.886.614 1.82 1.192 2.831 1.568 2.384.885 4.902 1.557 7.47 1.557 3.884 0 5.679.988 10.66 5.868l5.992 5.868v21.178l-6.613-6.495c-4.45-4.37-7.646-6.495-9.768-6.495-1.735 0-3.83.673-4.657 1.495-.827.822-1.503 2.934-1.503 4.695 0 2.375 2.91 6.082 11.271 14.358l11.271 11.155v12.79c0 1.548.026 2.95.065 4.266v8.067l-6.739-3.868.002-.004c-1.344-.84-2.879-1.76-4.58-2.738l-11.14-6.395-4.08-15.284c-3.026-11.338-4.799-15.696-6.867-16.883-1.534-.88-3.712-1.356-4.841-1.055-1.13.3-2.763 1.77-3.63 3.263-1.06 1.827-.808 5.644.773 11.661l2.35 8.943-18.444-10.59-2.115-8.094c-1.759-6.73-1.723-8.77.219-12.114 1.284-2.212 1.958-4.717 2.38-7.213.178-1.059.143-2.152.05-3.222-.105-1.214-.178-2.481-.683-3.592-1.03-2.266-1.875-4.312-4.616-5.886-3.028-1.738-6.107-1.944-9.063-1.202-3.245.814-6.509 3.064-8.13 5.857-1.661 2.861-2.204 5.426-1.012 9.588 1.064 3.716 3.03 5.803 5.238 7.071 2.218 1.273 3.669 3.494 4.509 6.902l1.238 5.026-8.099-4.65-8.1-4.651-2.683-10.168c-1.9-7.203-3.497-10.635-5.48-11.774-1.54-.884-3.724-1.361-4.853-1.06-1.13.3-2.47 1.056-2.994 2.167-1.023 2.167-.309 4.116.462 7.166l1.4 5.546-3.216-1.796c-1.769-.99-4.842-1.52-6.83-1.177-1.99.343-3.948 1.195-4.354 1.895-.036.061-.06.146-.086.228-.059.063-.12.125-.155.186-.406.7-.17 2.814.526 4.697.696 1.884 2.694 4.268 4.44 5.297l3.174 1.87-5.53 1.566c-3.042.861-5.097 1.22-6.472 3.185-.706 1.007-.694 2.541-.392 3.664.303 1.123 1.81 2.764 3.35 3.648 1.983 1.139 5.772.798 12.994-1.167l10.196-2.773 8.1 4.65 8.1 4.65-4.996 1.444c-3.388.98-6.047.844-8.265-.43-2.209-1.268-5.01-1.916-8.778-.975-4.22 1.055-6.183 2.803-7.844 5.665-1.621 2.792-1.949 6.727-1.035 9.929.832 2.916 2.55 5.466 5.578 7.205 2.741 1.573 4.945 1.279 7.434 1.033 1.22-.12 2.361-.693 3.471-1.21.978-.456 1.947-.97 2.78-1.654 1.963-1.61 3.808-3.443 5.092-5.654 1.942-3.345 3.7-4.398 10.44-6.248l8.107-2.224L88.36 130.4l-8.963 2.448c-6.03 1.647-9.48 3.336-10.541 5.164-.867 1.493-1.33 3.634-1.027 4.757.302 1.123 1.804 2.762 3.338 3.642 2.068 1.188 6.75.535 18.139-2.527l15.35-4.129 11.139 6.396c1.347.773 2.582 1.453 3.747 2.078l7.598 4.36-6.508 3.736-.002-.004c-1.405.737-2.973 1.6-4.675 2.576l-11.139 6.396-15.35-4.129c-11.388-3.062-16.072-3.715-18.141-2.527-1.534.88-3.034 2.52-3.336 3.642-.303 1.123.16 3.263 1.027 4.757 1.061 1.828 4.508 3.517 10.54 5.164l8.963 2.448-18.444 10.589-8.107-2.224c-6.741-1.85-8.497-2.903-10.439-6.248-1.284-2.212-3.129-4.044-5.091-5.654-.834-.684-1.804-1.199-2.783-1.654-1.11-.517-2.25-1.09-3.469-1.21-2.489-.246-4.693-.54-7.433 1.033-3.03 1.739-4.747 4.289-5.579 7.205-.913 3.202-.586 7.135 1.035 9.927 1.662 2.862 3.624 4.612 7.845 5.666 3.768.942 6.566.294 8.775-.975 2.218-1.273 4.878-1.41 8.266-.43l4.997 1.444-8.1 4.65-8.1 4.65-10.196-2.772c-7.222-1.965-11.013-2.306-12.996-1.167-1.54.884-3.047 2.525-3.35 3.648-.302 1.123-.314 2.657.392 3.664 1.376 1.964 3.43 2.324 6.473 3.185l5.53 1.566-3.173 1.87c-1.745 1.029-3.746 3.413-4.441 5.297-.696 1.883-.933 3.997-.527 4.697.036.06.099.123.157.186.026.082.049.167.084.228.406.7 2.365 1.552 4.354 1.895 1.988.343 5.064-.188 6.833-1.177l3.214-1.796-1.4 5.544c-.771 3.05-1.485 5-.462 7.168.524 1.11 1.864 1.866 2.993 2.167 1.13.301 3.313-.176 4.853-1.06 1.983-1.139 3.582-4.571 5.483-11.774l2.682-10.168 8.099-4.65 8.1-4.65-1.24 5.025c-.84 3.408-2.29 5.628-4.508 6.902-2.21 1.268-4.172 3.355-5.236 7.07-1.192 4.163-.65 6.728 1.011 9.59 1.622 2.791 4.886 5.042 8.13 5.856 2.956.741 6.035.536 9.064-1.203 2.74-1.573 3.585-3.62 4.616-5.886.505-1.11.576-2.377.68-3.591.093-1.07.13-2.163-.048-3.223-.421-2.495-1.095-5-2.38-7.212-1.941-3.345-1.98-5.384-.22-12.114l2.115-8.095L95.02 185.85l-2.35 8.943c-1.581 6.017-1.832 9.833-.771 11.66.867 1.495 2.5 2.963 3.63 3.264 1.128.3 3.305-.174 4.838-1.055 2.069-1.187 3.844-5.547 6.87-16.885l4.08-15.282 11.139-6.395a145.276 145.276 0 003.682-2.19l7.508-4.31v6.86h-.004c-.06 1.577-.094 3.36-.094 5.313v12.791l-11.27 11.155c-8.361 8.276-11.272 11.983-11.272 14.358 0 1.761.677 3.874 1.503 4.695.827.822 2.922 1.495 4.657 1.495 2.122 0 5.318-2.125 9.768-6.495l6.613-6.495v21.178l-5.991 5.868c-4.982 4.88-6.777 5.869-10.66 5.869-2.569 0-5.087.671-7.47 1.556-1.013.376-1.946.954-2.832 1.569-1.005.697-2.074 1.393-2.788 2.383-1.459 2.02-2.818 3.77-2.818 6.917 0 3.478 1.361 6.233 3.485 8.408 2.331 2.387 5.923 4.072 9.165 4.072 3.323 0 5.827-.815 8.856-3.922 2.704-2.774 3.54-5.51 3.54-8.046 0-2.547 1.209-4.906 3.757-7.333l3.757-3.58v18.6l-7.514 7.394c-5.323 5.238-7.514 8.331-7.514 10.608 0 1.768.676 3.887 1.503 4.709.826.822 2.155 1.598 3.385 1.494 2.399-.203 3.74-1.792 6.011-3.98l4.129-3.98.043 3.668c.023 2.018 1.098 4.93 2.39 6.471 1.294 1.541 3.016 2.802 3.828 2.802.071 0 .157-.022.24-.04.085.018.17.04.241.04.813 0 2.535-1.26 3.828-2.802s2.368-4.453 2.39-6.471l.044-3.668 4.129 3.98c2.27 2.188 3.612 3.777 6.01 3.98 1.23.104 2.56-.672 3.386-1.494.826-.822 1.502-2.941 1.502-4.709 0-2.277-2.19-5.37-7.513-10.608l-7.514-7.394v-18.6l3.757 3.58c2.548 2.427 3.757 4.787 3.757 7.333 0 2.537.835 5.272 3.54 8.046 3.028 3.107 5.533 3.922 8.855 3.922 3.243 0 6.834-1.685 9.165-4.072 2.124-2.175 3.485-4.93 3.485-8.408 0-3.147-1.359-4.896-2.817-6.917-.715-.99-1.784-1.686-2.789-2.383-.885-.615-1.819-1.193-2.831-1.569-2.383-.885-4.902-1.556-7.47-1.556-3.884 0-5.678-.989-10.66-5.869l-5.992-5.868v-21.178l6.614 6.495c4.45 4.37 7.646 6.495 9.767 6.495 1.735 0 3.83-.673 4.657-1.495.827-.821 1.503-2.934 1.503-4.695 0-2.375-2.91-6.082-11.271-14.358l-11.271-11.155v-12.79c0-1.548-.026-2.95-.064-4.266v-7.938l6.623 3.802-.002.004c1.344.84 2.879 1.76 4.58 2.737l11.14 6.396 4.08 15.284c3.026 11.338 4.8 15.698 6.87 16.885 1.533.88 3.71 1.354 4.838 1.053 1.13-.301 2.762-1.77 3.63-3.263 1.06-1.828.81-5.642-.771-11.66l-2.35-8.944 18.444 10.589 2.115 8.094c1.759 6.731 1.723 8.77-.219 12.114-1.284 2.212-1.96 4.718-2.381 7.213-.18 1.06-.142 2.152-.05 3.222.106 1.215.177 2.482.682 3.592 1.03 2.267 1.875 4.313 4.615 5.886 3.03 1.739 6.11 1.944 9.066 1.203 3.245-.814 6.507-3.065 8.128-5.857 1.661-2.861 2.203-5.425 1.012-9.587-1.064-3.715-3.027-5.804-5.237-7.073-2.217-1.273-3.668-3.493-4.508-6.901l-1.24-5.026 8.1 4.65 8.1 4.65 2.682 10.169c1.9 7.202 3.5 10.635 5.482 11.774 1.54.883 3.724 1.36 4.853 1.06 1.13-.3 2.47-1.057 2.994-2.168 1.023-2.167.309-4.115-.462-7.166l-1.401-5.545 3.215 1.796c1.769.989 4.844 1.52 6.833 1.177 1.988-.343 3.947-1.196 4.353-1.895.036-.061.059-.146.084-.228.059-.063.121-.126.157-.187.406-.7.17-2.813-.526-4.697-.696-1.884-2.696-4.266-4.442-5.294l-3.172-1.87 5.53-1.566c3.042-.862 5.097-1.223 6.472-3.188.706-1.007.694-2.539.392-3.661-.303-1.123-1.81-2.765-3.35-3.649-1.983-1.138-5.774-.797-12.996 1.168l-10.196 2.772-8.099-4.65-8.1-4.65 4.997-1.446c3.388-.98 6.047-.841 8.265.432 2.209 1.268 5.008 1.916 8.776.975 4.22-1.055 6.183-2.805 7.844-5.666 1.621-2.792 1.95-6.728 1.037-9.93-.832-2.915-2.552-5.465-5.58-7.204-2.741-1.574-4.945-1.277-7.434-1.032-1.22.12-2.36.694-3.47 1.21-.977.456-1.948.97-2.781 1.655-1.963 1.61-3.808 3.442-5.092 5.654-1.942 3.344-3.698 4.395-10.439 6.246l-8.106 2.226-18.444-10.59 8.963-2.447c6.03-1.647 9.478-3.337 10.54-5.164.867-1.494 1.329-3.635 1.027-4.758-.303-1.122-1.803-2.762-3.337-3.642-2.068-1.187-6.753-.535-18.14 2.528l-15.35 4.128-11.14-6.395a145.514 145.514 0 00-3.747-2.078l-7.515-4.316 6.586-3.78.002.001c1.404-.736 2.972-1.599 4.674-2.576l11.14-6.395 15.35 4.128c11.387 3.063 16.071 3.715 18.14 2.528 1.534-.88 3.034-2.52 3.336-3.642.303-1.123-.16-3.264-1.027-4.758-1.06-1.827-4.508-3.517-10.539-5.164l-8.963-2.448 18.444-10.589 8.106 2.224c6.741 1.851 8.5 2.904 10.441 6.248 1.284 2.212 3.127 4.045 5.09 5.655.833.683 1.804 1.198 2.782 1.653 1.11.517 2.25 1.09 3.47 1.21 2.488.247 4.692.541 7.433-1.032 3.028-1.74 4.748-4.29 5.58-7.206.914-3.201.584-7.136-1.037-9.929-1.661-2.861-3.623-4.61-7.844-5.664-3.768-.941-6.567-.293-8.776.975-2.218 1.273-4.877 1.41-8.265.43l-4.998-1.444 8.101-4.65 8.099-4.65 10.196 2.772c7.223 1.965 11.013 2.306 12.996 1.168 1.54-.884 3.047-2.526 3.35-3.649.302-1.122.314-2.656-.392-3.663-1.375-1.965-3.43-2.324-6.472-3.186l-5.53-1.566 3.172-1.87c1.746-1.028 3.746-3.412 4.442-5.296.695-1.884.932-3.998.526-4.697-.036-.061-.098-.124-.157-.187-.025-.08-.049-.164-.084-.226v-.002c-.407-.699-2.366-1.55-4.353-1.893-1.989-.343-5.064.186-6.833 1.175l-3.215 1.798 1.401-5.545c.77-3.05 1.485-5 .462-7.166-.525-1.111-1.865-1.869-2.994-2.17-1.129-.3-3.313.177-4.853 1.06-1.983 1.14-3.582 4.574-5.482 11.777l-2.683 10.167-8.099 4.65-8.1 4.65 1.24-5.024c.84-3.407 2.29-5.63 4.508-6.903 2.21-1.268 4.173-3.355 5.237-7.07 1.191-4.163.65-6.726-1.012-9.588-1.621-2.792-4.883-5.042-8.128-5.856-2.956-.742-6.037-.537-9.066 1.202-2.74 1.574-3.585 3.618-4.615 5.884-.505 1.11-.576 2.38-.681 3.594-.093 1.07-.13 2.163.049 3.222.42 2.495 1.097 5 2.381 7.211 1.942 3.344 1.978 5.385.22 12.116l-2.116 8.092-18.444 10.59 2.35-8.943c1.58-6.017 1.832-9.832.77-11.66-.867-1.493-2.5-2.961-3.629-3.262-1.129-.301-3.305.172-4.839 1.052-2.068 1.188-3.843 5.548-6.87 16.885l-4.08 15.284-11.138 6.396a145.323 145.323 0 00-3.683 2.187l-7.553 4.337v-6.948h.004c.06-1.578.094-3.36.094-5.314v-12.79l11.271-11.156c8.36-8.275 11.271-11.983 11.271-14.358 0-1.76-.676-3.873-1.503-4.695-.826-.822-2.922-1.494-4.656-1.494-2.122 0-5.319 2.125-9.768 6.495l-6.614 6.494V76.548l5.992-5.868c4.982-4.88 6.776-5.868 10.66-5.868 2.568 0 5.087-.672 7.47-1.557 1.012-.376 1.946-.953 2.832-1.568 1.005-.698 2.073-1.394 2.788-2.384 1.459-2.02 2.817-3.77 2.817-6.917 0-3.478-1.36-6.233-3.484-8.407-2.332-2.388-5.923-4.073-9.166-4.073-3.322 0-5.827.815-8.856 3.923-2.704 2.774-3.54 5.509-3.54 8.045 0 2.547-1.208 4.907-3.756 7.334l-3.757 3.58v-18.6l7.514-7.395c5.322-5.237 7.513-8.33 7.513-10.608 0-1.768-.676-3.886-1.502-4.708-.827-.822-2.155-1.599-3.385-1.495-2.399.203-3.74 1.792-6.011 3.981l-4.129 3.98-.043-3.668c-.023-2.018-1.098-4.93-2.391-6.472s-3.015-2.802-3.827-2.802c-.071 0-.157.022-.241.041-.084-.019-.17-.04-.24-.04zm.014 2.954c.075 0 .15.01.227.029.609-.145 1.157.242 2.119 1.198 1.122 1.116 1.878 4.16 1.878 7.56 0 3.13.326 5.693.724 5.693s2.89-2.242 5.538-4.981 5.702-4.981 6.79-4.981c1.284 0 1.976 1.114 1.976 3.183 0 2.238-2.192 5.32-7.387 10.39l-7.386 7.209-.44 12.025c-.243 6.613-.003 12.025.532 12.025.534 0 3.493-2.509 6.574-5.573 4.203-4.18 5.602-6.526 5.602-9.396 0-2.4 1.145-4.963 3.074-6.882 1.938-1.927 4.504-3.057 6.944-3.057s5.17 1.262 6.945 3.057c1.847 1.869 3.074 4.458 3.074 7.242 0 3.566-2.257 5.597-4.59 7.271-2.699 1.936-7.192 2.355-9.696 2.355-3.847 0-5.617 1.058-11.413 6.822l-6.86 6.821v11.857c0 10.327.273 11.857 2.127 11.857 1.17 0 4.773-2.801 8.006-6.226 4.14-4.384 6.843-6.226 9.142-6.226 2.66 0 3.266.585 3.266 3.161 0 2.328-2.973 6.092-11.271 14.272l-11.271 11.112v13.124c0 1.404.022 2.68.053 3.894v12.054h1.191l.008.014.024-.014h1.13v-.65l8.305-4.767a149.253 149.253 0 004.473-2.47l11.429-6.562 4.042-15.262c2.976-11.236 4.769-15.677 6.796-16.84 2.243-1.288 3.055-1.06 4.385 1.232 1.15 1.979.897 5.228-.851 10.986-1.366 4.496-2.004 8.999-1.419 10.007.927 1.595 2.396 1.067 11.39-4.096l10.325-5.929 2.512-9.318c2.122-7.874 2.159-9.928.235-13.241-1.252-2.157-3.134-6.235-2.798-9.527.291-2.847.931-5.805 4.037-7.588 2.424-1.392 5.293-1.631 7.844-.975 2.451.63 4.915 2.35 6.134 4.452 1.22 2.101 1.52 4.877.81 7.509-.706 2.62-2.366 4.888-4.457 6.088-2.5 1.435-3.842 3.813-5.38 9.522-1.129 4.186-1.833 7.988-1.566 8.449.267.46 5.1-2.038 10.738-5.553l10.25-6.392 2.586-9.966c1.818-7.01 3.406-10.437 5.355-11.556 1.802-1.035 3.118-.998 3.761.109.544.936.12 4.69-.943 8.34s-1.769 6.914-1.57 7.257c.2.343 2.594-.657 5.32-2.222 2.962-1.7 5.992-2.57 7.524-2.162 1.313.35 1.925.629 2.104 1.226.43.452.367 1.117.015 2.422-.41 1.524-2.684 3.698-5.645 5.398-2.727 1.565-4.795 3.128-4.596 3.471.2.343 3.397 1.369 7.107 2.278 3.709.91 7.189 2.42 7.733 3.357.642 1.106.017 2.258-1.785 3.292-1.95 1.12-5.728.773-12.742-1.165l-9.971-2.758-10.691 5.635c-5.881 3.098-10.474 6.01-10.206 6.47.268.46 3.93 1.754 8.14 2.876 5.741 1.53 8.483 1.561 10.983.126 2.09-1.2 4.895-1.496 7.53-.794 2.648.706 4.915 2.351 6.135 4.452 1.22 2.101 1.486 5.083.81 7.509-.704 2.525-2.346 4.877-4.77 6.27-3.106 1.782-6.002.853-8.627-.32-3.035-1.356-5.646-5.016-6.898-7.172-1.923-3.313-3.73-4.307-11.648-6.417l-9.372-2.498-10.325 5.928c-8.994 5.164-10.19 6.166-9.263 7.762.585 1.008 4.826 2.71 9.425 3.782 5.888 1.373 8.844 2.78 9.993 4.76 1.33 2.29 1.124 3.103-1.12 4.391-2.026 1.164-6.792.487-18.065-2.568l-15.313-4.15-11.43 6.56a154.678 154.678 0 00-3.363 1.993l-9.29 5.335-.014-.008-.014.023-1.18.678.394.677-.378.648 1.129.648.031.054.032-.017 8.267 4.745c1.308.812 2.756 1.683 4.386 2.62l11.43 6.56 15.312-4.15c11.274-3.055 16.04-3.734 18.066-2.57 2.244 1.288 2.45 2.102 1.12 4.393-1.15 1.98-4.105 3.387-9.993 4.76-4.6 1.072-8.84 2.774-9.426 3.782-.926 1.596.27 2.598 9.263 7.762l10.325 5.928 9.373-2.498c7.918-2.11 9.725-3.104 11.648-6.417 1.252-2.157 3.863-5.816 6.897-7.172 2.626-1.173 5.522-2.102 8.628-.32 2.424 1.393 4.066 3.745 4.77 6.27.676 2.426.41 5.407-.81 7.509s-3.488 3.746-6.134 4.451c-2.636.703-5.44.407-7.532-.793-2.499-1.435-5.24-1.404-10.983.126-4.209 1.122-7.872 2.416-8.14 2.876-.267.46 4.326 3.371 10.207 6.47l10.69 5.632 9.972-2.755c7.013-1.938 10.793-2.286 12.742-1.167 1.801 1.034 2.427 2.187 1.784 3.294-.543.936-4.023 2.447-7.733 3.356-3.709.91-6.907 1.936-7.106 2.279-.2.343 1.87 1.906 4.596 3.471 2.961 1.7 5.234 3.872 5.645 5.396.352 1.305.415 1.972-.015 2.424-.179.597-.79.876-2.104 1.226-1.532.408-4.562-.462-7.523-2.162-2.727-1.565-5.121-2.565-5.32-2.222-.2.343.506 3.608 1.569 7.258 1.062 3.65 1.486 7.403.943 8.34-.643 1.106-1.96 1.143-3.761.108-1.95-1.119-3.537-4.546-5.356-11.556l-2.584-9.966-10.251-6.392c-5.639-3.515-10.472-6.013-10.738-5.553-.267.46.437 4.263 1.565 8.449 1.538 5.709 2.882 8.087 5.381 9.522 2.091 1.2 3.751 3.468 4.457 6.088.71 2.632.41 5.408-.81 7.509s-3.683 3.821-6.134 4.452c-2.551.656-5.42.417-7.844-.975-3.106-1.783-3.746-4.741-4.037-7.588-.336-3.292 1.546-7.37 2.798-9.527 1.923-3.312 1.887-5.367-.235-13.24l-2.512-9.32-10.325-5.928c-8.994-5.163-10.463-5.693-11.39-4.097-.585 1.007.053 5.512 1.419 10.009 1.748 5.756 2 9.006.85 10.986-1.33 2.29-2.14 2.52-4.384 1.231-2.027-1.163-3.82-5.606-6.796-16.842l-4.042-15.26-11.43-6.563a155.094 155.094 0 00-3.416-1.9l-9.327-5.355v-.709h-2.354v10.861a147.262 147.262 0 00-.086 5.086v13.124l11.27 11.112c8.298 8.181 11.272 11.945 11.272 14.272 0 2.577-.606 3.162-3.266 3.162-2.299 0-5.003-1.842-9.142-6.226-3.233-3.425-6.836-6.227-8.007-6.227-1.853 0-2.127 1.531-2.127 11.857v11.857l6.86 6.822c5.797 5.764 7.567 6.822 11.414 6.822 2.504 0 6.997.42 9.695 2.354 2.334 1.675 4.59 3.706 4.59 7.272 0 2.783-1.226 5.373-3.074 7.242-1.774 1.795-4.504 3.057-6.944 3.057s-5.007-1.13-6.944-3.057c-1.93-1.919-3.074-4.481-3.074-6.882 0-2.87-1.399-5.217-5.602-9.396-3.081-3.064-6.04-5.572-6.575-5.573-.534 0-.774 5.411-.532 12.025l.44 12.025 7.387 7.21c5.195 5.07 7.386 8.151 7.386 10.39 0 2.068-.69 3.182-1.976 3.182-1.087 0-4.143-2.241-6.79-4.98s-5.139-4.982-5.537-4.982c-.398 0-.724 2.562-.724 5.693 0 3.4-.757 6.444-1.878 7.56-.962.955-1.51 1.343-2.12 1.198-.609.145-1.157-.243-2.119-1.198-1.121-1.116-1.878-4.16-1.878-7.56 0-3.13-.326-5.693-.724-5.693-.398 0-2.89 2.242-5.537 4.981s-5.703 4.981-6.79 4.981c-1.285 0-1.976-1.114-1.976-3.183 0-2.238 2.191-5.32 7.386-10.39l7.387-7.209.44-12.025c.242-6.613.002-12.025-.532-12.025-.535 0-3.494 2.509-6.575 5.573-4.203 4.18-5.602 6.526-5.602 9.396 0 2.4-1.144 4.963-3.074 6.882-1.937 1.927-4.504 3.057-6.944 3.057s-5.17-1.262-6.944-3.057c-1.847-1.869-3.074-4.459-3.074-7.242 0-3.567 2.256-5.598 4.59-7.272 2.698-1.935 7.191-2.354 9.695-2.354 3.847 0 5.617-1.058 11.413-6.822l6.86-6.822v-11.857c0-10.327-.273-11.857-2.126-11.857-1.17 0-4.774 2.802-8.007 6.227-4.14 4.384-6.843 6.226-9.142 6.226-2.66 0-3.266-.585-3.266-3.162 0-2.327 2.973-6.09 11.271-14.272l11.271-11.112v-13.124c0-1.403-.022-2.678-.052-3.893v-9.964l.021-.012-.021-.037v-2.04h-2.354v.738l-8.26 4.742a148.945 148.945 0 00-4.472 2.47l-11.43 6.56-4.042 15.262c-2.976 11.236-4.769 15.68-6.796 16.842-2.243 1.288-3.054 1.06-4.385-1.231-1.149-1.98-.897-5.23.852-10.986 1.365-4.497 2.003-9.001 1.418-10.01-.926-1.595-2.396-1.065-11.39 4.098l-10.325 5.93-2.512 9.317c-2.122 7.874-2.156 9.927-.233 13.24 1.252 2.156 3.132 6.237 2.796 9.528-.29 2.847-.93 5.805-4.037 7.588-2.424 1.392-5.293 1.63-7.844.973-2.45-.63-4.914-2.35-6.134-4.452-1.22-2.101-1.52-4.877-.81-7.509.706-2.62 2.366-4.887 4.457-6.088 2.5-1.435 3.843-3.813 5.381-9.522 1.128-4.186 1.832-7.988 1.565-8.449-.266-.46-5.1 2.04-10.738 5.555l-10.25 6.392-2.585 9.964c-1.819 7.01-3.407 10.44-5.356 11.558-1.801 1.035-3.118.996-3.76-.11-.544-.937-.12-4.689.942-8.338 1.063-3.65 1.769-6.917 1.57-7.26-.2-.343-2.594.659-5.32 2.224-2.961 1.7-5.991 2.57-7.524 2.162-1.313-.35-1.925-.629-2.103-1.226-.43-.452-.368-1.118-.016-2.424.41-1.524 2.684-3.698 5.645-5.398 2.727-1.565 4.796-3.126 4.596-3.469-.199-.343-3.397-1.369-7.106-2.278-3.71-.91-7.19-2.42-7.733-3.357-.643-1.106-.017-2.26 1.784-3.294 1.95-1.12 5.729-.773 12.742 1.165l9.972 2.758 10.69-5.633c5.881-3.098 10.475-6.012 10.207-6.472-.268-.46-3.931-1.754-8.14-2.876-5.742-1.53-8.484-1.56-10.983-.124-2.091 1.2-4.896 1.494-7.531.792-2.647-.706-4.915-2.351-6.135-4.452-1.22-2.101-1.486-5.083-.81-7.509.704-2.525 2.346-4.875 4.77-6.267 3.106-1.783 6.003-.856 8.628.317 3.034 1.356 5.647 5.016 6.9 7.172 1.922 3.313 3.727 4.31 11.645 6.42l9.373 2.496 10.325-5.93c8.993-5.163 10.19-6.163 9.263-7.759-.585-1.008-4.827-2.71-9.426-3.782-5.888-1.373-8.843-2.78-9.993-4.76-1.33-2.29-1.124-3.105 1.12-4.393 2.026-1.164 6.792-.485 18.066 2.57l15.313 4.15 11.429-6.562a154.678 154.678 0 003.363-1.993l10.498-6.026-.473-.815.297-.512-.89-.512-.11-.188-.11.062-8.348-4.792a149.107 149.107 0 00-4.387-2.617l-11.43-6.562-15.312 4.149c-11.274 3.055-16.037 3.734-18.064 2.57-2.244-1.288-2.452-2.102-1.122-4.393 1.15-1.98 4.105-3.387 9.993-4.76 4.6-1.072 8.842-2.773 9.428-3.78.926-1.596-.272-2.598-9.265-7.762l-10.325-5.929-9.371 2.497c-7.918 2.11-9.725 3.106-11.648 6.419-1.252 2.156-3.865 5.816-6.9 7.172-2.624 1.173-5.52 2.1-8.626.317-2.425-1.392-4.067-3.742-4.77-6.267-.677-2.426-.41-5.408.81-7.509s3.487-3.746 6.133-4.452c2.636-.702 5.44-.406 7.532.794 2.5 1.435 5.241 1.404 10.983-.126 4.209-1.122 7.874-2.416 8.142-2.876.267-.46-4.326-3.374-10.206-6.472l-10.693-5.633-9.972 2.757c-7.013 1.939-10.793 2.285-12.742 1.166-1.801-1.034-2.427-2.186-1.784-3.292.543-.936 4.023-2.449 7.733-3.359 3.709-.91 6.907-1.933 7.106-2.276.2-.343-1.87-1.906-4.596-3.471-2.96-1.7-5.233-3.874-5.643-5.398-.352-1.306-.415-1.972.015-2.424.179-.597.79-.876 2.104-1.226 1.532-.408 4.56.464 7.521 2.164 2.727 1.565 5.121 2.565 5.32 2.222.2-.343-.506-3.61-1.569-7.26s-1.486-7.401-.943-8.337c.643-1.107 1.96-1.144 3.761-.11 1.95 1.12 3.537 4.547 5.355 11.557l2.585 9.966 10.253 6.39c5.639 3.515 10.472 6.015 10.738 5.555.267-.461-.44-4.263-1.567-8.449-1.539-5.71-2.882-8.087-5.38-9.522-2.092-1.2-3.752-3.468-4.458-6.089-.71-2.632-.41-5.407.81-7.508s3.683-3.822 6.134-4.452c2.551-.656 5.42-.419 7.844.973 3.106 1.783 3.746 4.743 4.037 7.59.336 3.291-1.544 7.37-2.796 9.527-1.923 3.312-1.887 5.365.235 13.239l2.51 9.32 10.325 5.928c8.994 5.164 10.465 5.692 11.392 4.096.585-1.008-.055-5.512-1.42-10.009-1.75-5.757-2-9.006-.852-10.986 1.33-2.29 2.144-2.52 4.387-1.231 2.027 1.163 3.818 5.606 6.794 16.842l4.042 15.262 11.43 6.563c1.222.701 2.345 1.32 3.418 1.9l9.44 5.42v.58h1.01l.047.027.016-.028h1.282v-10.86c.052-1.534.086-3.215.086-5.087v-13.124l-11.271-11.112c-8.298-8.18-11.271-11.945-11.271-14.272 0-2.576.605-3.162 3.265-3.162 2.299 0 5.003 1.842 9.142 6.227 3.233 3.424 6.837 6.226 8.007 6.226 1.853 0 2.127-1.53 2.127-11.857V75.964l-6.86-6.822c-5.797-5.764-7.567-6.822-11.413-6.822-2.504 0-6.998-.419-9.696-2.354-2.334-1.674-4.59-3.705-4.59-7.271 0-2.784 1.227-5.373 3.074-7.242 1.774-1.796 4.504-3.057 6.944-3.057s5.007 1.13 6.944 3.057c1.93 1.918 3.074 4.48 3.074 6.882 0 2.87 1.4 5.216 5.602 9.396 3.082 3.064 6.04 5.572 6.575 5.572.534.001.774-5.41.532-12.025l-.44-12.025-7.387-7.209c-5.195-5.07-7.386-8.152-7.386-10.39 0-2.068.691-3.183 1.976-3.183 1.087 0 4.143 2.242 6.79 4.981s5.139 4.981 5.537 4.981c.399 0 .724-2.562.724-5.693 0-3.4.757-6.444 1.879-7.559.84-.836 1.366-1.238 1.892-1.228z"/><path d="M137.86 285.98c-1.259-1.383-2-4.475-2.028-8.469-.037-5.131-.388-5.116-6.184.266-4.143 3.846-5.507 4.802-6.654 4.666-.996-.118-1.601-.649-1.956-1.715-.865-2.597 1.279-5.913 8.368-12.942l6.444-6.391-.152-11.903-.152-11.903-4.385 4.072c-4.912 4.563-6.851 7.497-7.406 11.207-1.388 9.284-10.903 12.998-17.216 6.721-4.257-4.233-4.358-9.399-.259-13.206 2.744-2.547 4.893-3.333 10.678-3.907 2.169-.214 4.688-.768 5.599-1.23.91-.46 4.269-3.367 7.463-6.457l5.807-5.618v-9.925c0-5.458-.159-10.712-.352-11.675-.615-3.056-2.33-2.342-8.77 3.653-7.172 6.677-10.343 8.206-12.523 6.039-1.14-1.133-1.126-3.188.037-5.449.507-.986 5.576-6.469 11.265-12.185l10.343-10.393v-14.39c0-7.943-.223-14.392-.497-14.392s-6.152 3.226-13.063 7.169l-12.566 7.169-3.307 12.294c-4.5 16.736-6.268 20.415-9.805 20.415-3.259 0-3.81-4.762-1.567-13.557.79-3.102 1.36-6.55 1.267-7.663-.155-1.842-.314-2.013-1.771-1.91-1.311.091-17.557 8.779-19.13 10.228-.827.763-4.329 14.818-4.33 17.383-.002 1.704.58 3.7 1.796 6.161 1.523 3.085 1.803 4.286 1.83 7.866.036 4.771-.777 6.568-3.8 8.401-2.193 1.33-7.58 1.484-9.912.284-2.487-1.279-4.971-4.47-5.388-6.921-.664-3.912.538-6.725 4.479-10.478 3.18-3.028 3.68-3.821 4.957-7.841 1.506-4.744 2.463-9.793 1.856-9.793-.816 0-6.648 3.208-13.31 7.322l-7.07 4.365-1.021 4.378c-1.95 8.36-4.162 14.428-5.81 15.943-5.016 4.61-6.466 1.19-3.83-9.026.754-2.916 1.29-5.381 1.193-5.478s-2.289.84-4.87 2.082c-6.615 3.181-10.104 2.998-10.104-.53 0-2.127 1.243-3.553 5.624-6.449 2.16-1.428 4.07-2.823 4.241-3.1.172-.277-1.154-.91-2.946-1.406-7.958-2.207-11.059-3.543-11.625-5.01-.422-1.094 1.368-2.94 3.328-3.429 2.259-.563 6.616.13 14.41 2.294l7.118 1.977 6.963-3.693c8.51-4.513 13.44-7.46 13.44-8.033 0-.238-2.345-1.151-5.21-2.03-6.182-1.897-10.811-2.078-14.503-.566-6.98 2.857-14.664-2.69-13.854-10.002.589-5.32 5.402-9.804 9.768-9.1 4.044.653 6.829 2.566 10.167 6.98 1.767 2.337 3.98 4.694 4.917 5.238.938.544 5.128 1.91 9.311 3.036l7.606 2.048 8.43-4.891c8.728-5.063 10.967-6.682 10.967-7.93 0-1.064-3.541-2.688-9.012-4.132-5.803-1.532-8.523-2.828-10.085-4.803-2.451-3.098-.686-5.26 4.296-5.26 2.616 0 14.05 2.645 26.227 6.067l3.823 1.075 12.226-7.095c6.724-3.903 12.286-7.463 12.359-7.912.087-.531-4.206-3.31-12.283-7.952l-12.416-7.135-11.602 3.096c-15.2 4.057-19.216 4.69-21.844 3.443-1.402-.664-1.966-1.3-1.966-2.216 0-3.054 2.963-5.08 10.368-7.091 5.747-1.56 9.908-3.351 9.908-4.264 0-.397-.733-1.335-1.629-2.084-2.44-2.041-17.197-10.5-18.319-10.5-1.489 0-14.88 3.845-16.762 4.813-.912.469-2.467 2.017-3.455 3.44-4.51 6.496-7.42 8.55-12.11 8.55-9.535 0-12.588-13.828-4.049-18.337 2.952-1.558 7.008-1.522 11.264.1 2.166.825 3.026.873 5.914.33 3.76-.706 10.45-2.726 11.162-3.371.582-.527-4.704-3.832-13.428-8.396l-6.771-3.544-7.591 2.012c-4.175 1.106-8.662 2.174-9.973 2.374-4.155.632-8.066-1.468-7.15-3.84.292-.758 3.966-2.595 6.716-3.358 6.226-1.726 7.604-2.205 7.604-2.638 0-.277-1.923-1.794-4.274-3.372-5.812-3.9-7.374-7.611-3.777-8.971 1.837-.695 3.622-.236 8.45 2.172 2.233 1.113 4.252 1.834 4.487 1.6.234-.233-.142-2.616-.836-5.296-1.854-7.158-1.793-10.754.18-10.754 3.512 0 5.998 4.325 8.771 15.262l1.811 7.14 7.66 4.692c8.503 5.208 12.411 7.295 12.847 6.86.409-.406-1.44-8.456-2.74-11.922-.793-2.118-1.893-3.58-4.114-5.466-3.646-3.097-5.106-6.285-4.664-10.183.704-6.215 7.558-10.128 13.67-7.807 6.038 2.293 7.494 9.119 3.575 16.754-2.286 4.452-2.242 7.355.252 16.594l1.89 7.001 6.145 3.545c8.372 4.83 14.126 7.557 14.917 7.07.877-.538.4-4.33-1.481-11.805-1.616-6.415-1.542-8.744.34-10.754 1.513-1.613 2.555-1.536 4.43.33 2.037 2.025 3.42 5.813 7.278 19.928l3.19 11.675 11.828 6.756c6.505 3.715 11.912 6.967 12.016 7.228.103.26.673.472 1.267.472 1.036 0 1.08-.581 1.08-14.369v-14.369l-10.088-10.198c-5.547-5.608-10.617-11.23-11.265-12.493-2-3.9-1.354-6.26 1.715-6.26 2.756 0 4.356 1.015 10.068 6.391 5.772 5.433 7.511 6.52 8.64 5.4.432-.428.707-4.318.823-11.634l.175-10.99-5.525-5.534c-7.169-7.179-8.186-7.783-13.98-8.308-5.207-.472-7.719-1.44-10.33-3.979-3.644-3.542-3.615-8.428.073-12.606 3.977-4.504 9.778-4.722 14.4-.542 1.838 1.664 2.726 3.548 3.203 6.803.225 1.536.742 3.447 1.15 4.245.793 1.558 9.742 10.59 10.49 10.59.248 0 .45-5.21.45-11.577V43.765L129.181 37c-6.127-6.239-8.563-9.564-8.563-11.69 0-.457.459-1.396 1.02-2.084.99-1.217 1.07-1.225 2.862-.304 1.014.521 3.84 2.844 6.279 5.162 5.036 4.784 4.778 4.899 5.226-2.33.278-4.481 1.087-6.587 2.902-7.553 1.001-.533 1.514-.522 2.433.048 1.728 1.074 2.483 3.13 2.754 7.505.448 7.229.19 7.114 5.226 2.33 2.44-2.318 5.265-4.64 6.28-5.162 1.791-.921 1.871-.913 2.862.304.56.688 1.02 1.626 1.02 2.085 0 2.125-2.437 5.45-8.564 11.689l-6.644 6.765v11.577c0 6.368.202 11.577.45 11.577.749 0 9.697-9.032 10.49-10.59.408-.798.925-2.709 1.15-4.245.477-3.255 1.365-5.139 3.204-6.803 4.623-4.18 10.423-3.962 14.401.544 3.619 4.098 3.647 9.128.072 12.604-2.612 2.54-5.124 3.507-10.33 3.979-5.795.525-6.812 1.13-13.98 8.308l-5.526 5.533.175 10.991c.117 7.316.392 11.205.823 11.633 1.13 1.121 2.868.034 8.64-5.399 5.712-5.376 7.312-6.391 10.068-6.391 3.07 0 3.716 2.36 1.715 6.26-.648 1.263-5.717 6.884-11.265 12.493l-10.087 10.198v14.37c0 10.041.186 14.368.617 14.368.34 0 1.29-.466 2.112-1.035.823-.57 6.438-3.828 12.478-7.242l10.983-6.207 3.252-12.221c3.549-13.334 5.898-18.977 8.468-20.342 1.51-.802 1.644-.769 2.957.731 1.816 2.076 1.808 5.262-.032 12.815-1.503 6.168-1.759 9.136-.838 9.702.794.488 5.444-1.716 13.605-6.45 3.82-2.215 7.026-4.103 7.124-4.196.099-.093 1.048-3.407 2.11-7.366 2.447-9.116 2.46-11.289.105-16.235-1.536-3.225-1.83-4.49-1.83-7.863 0-4.774.97-6.482 4.82-8.48 4.81-2.498 11.294-.312 13.516 4.556 2.114 4.63 1.126 8.308-3.4 12.65-3.868 3.71-4.56 4.975-6.139 11.223-1.198 4.742-1.461 6.754-.885 6.754.675 0 4.282-2.021 12.123-6.795l8.209-4.997 1.012-4.325c1.488-6.363 3.656-13.042 4.88-15.041 1.156-1.885 3.888-3.339 5.28-2.808 1.269.485 1.07 4.762-.506 10.863-.833 3.226-1.11 5.181-.734 5.181.331 0 2.468-.916 4.748-2.037 3.968-1.95 7.555-2.598 9.104-1.647.348.214.634 1.238.634 2.274 0 2.271-1.717 4.142-6.692 7.294-1.896 1.201-3.447 2.345-3.447 2.543 0 .197 2.091.926 4.647 1.618 5.985 1.623 9.827 3.268 10.261 4.394.503 1.302-1.932 3.46-4.343 3.849-1.431.23-4.856-.378-11.386-2.023l-9.339-2.353-7.733 4.146c-9.888 5.302-12.77 7.127-12.163 7.705.767.732 7.367 2.74 11.163 3.398 2.9.502 3.854.446 5.963-.353 5.454-2.065 9.804-1.606 13.141 1.386 3.414 3.06 4.011 7.112 1.722 11.68-4.178 8.337-13.588 6.753-19.852-3.34-.708-1.14-2.097-2.565-3.089-3.167-1.705-1.037-15.438-5.123-17.216-5.123-.862 0-11.66 6.049-16.83 9.428-1.843 1.204-2.958 2.333-2.958 2.993 0 1.289 2.99 2.656 9.668 4.423 6.454 1.707 8.762 2.954 9.915 5.357.955 1.992.953 1.999-.614 3.34-1.05.897-2.262 1.342-3.652 1.338-2.553-.006-11.179-1.942-22.223-4.987l-8.314-2.293-12.39 7.143c-7.923 4.569-12.336 7.43-12.243 7.938.08.437 5.658 3.995 12.395 7.906l12.25 7.112 3.802-1.069c12.152-3.416 23.592-6.062 26.207-6.062 3.128 0 5.476 1.106 5.476 2.58 0 1.748-1.72 4.028-3.77 4.995-1.173.553-4.195 1.57-6.717 2.26-5.875 1.607-9.79 3.334-9.79 4.318 0 1.293 2.163 2.865 10.954 7.964l8.418 4.884 6.789-1.77c9.775-2.55 11.907-3.709 14.837-8.071 2.738-4.077 5.409-6.147 9.228-7.154 2.323-.613 2.912-.569 5.015.375 6.12 2.744 8.065 11.718 3.486 16.08-3.462 3.297-7.94 4.018-12.594 2.027-2.191-.938-3.432-1.122-5.737-.852-3.477.406-12.797 3.157-12.797 3.776 0 .574 4.929 3.52 13.425 8.026l6.948 3.685 8.572-2.239c4.714-1.231 9.52-2.239 10.68-2.239 2.45 0 5.138 1.226 5.66 2.581.776 2.01-1.754 3.34-11.64 6.114-1.785.5-3.095 1.153-2.91 1.449.183.296 1.96 1.56 3.947 2.807 4.194 2.634 5.87 4.523 5.87 6.616 0 3.58-3.453 3.778-10.103.58-2.582-1.242-4.757-2.187-4.833-2.1s.455 2.55 1.18 5.477c2.15 8.668 1.665 11.926-1.59 10.695-3.004-1.136-4.796-4.854-7.54-15.648l-1.614-6.354-7.04-4.345c-7.414-4.576-12.334-7.312-13.155-7.312-.72 0 .105 4.678 1.73 9.794 1.275 4.02 1.777 4.813 4.956 7.84 2.666 2.54 3.701 3.978 4.204 5.839 1.835 6.8-2.636 12.375-9.922 12.371-4.316-.003-6.647-1.385-8.191-4.856-1.544-3.47-1.195-7.253 1.124-12.18 1.209-2.57 1.793-4.658 1.791-6.408-.002-2.68-3.448-16.64-4.304-17.432-1.579-1.463-17.83-10.163-19.156-10.256-1.427-.1-1.62.088-1.78 1.73-.097 1.012.473 4.425 1.268 7.582 1.656 6.577 1.845 10.76.569 12.574-1.142 1.62-3.326 1.598-4.983-.05-2.076-2.064-3.178-5.423-9.767-29.747-.381-1.408-2.058-2.558-11.98-8.217-6.346-3.619-11.845-6.852-12.219-7.184-.374-.332-1.071-.604-1.549-.604-.76 0-.868 1.796-.868 14.38v14.38l10.333 10.404c5.683 5.722 10.752 11.21 11.265 12.196 1.172 2.255 1.19 4.312.046 5.449-2.18 2.167-5.35.638-12.523-6.039-6.44-5.995-8.154-6.71-8.77-3.653-.193.963-.351 6.208-.351 11.657v9.907l5.491 5.34c3.02 2.936 6.22 5.805 7.108 6.374.97.62 3.746 1.305 6.945 1.713 5.81.74 9.401 2.418 11.661 5.448 1.753 2.35 1.587 6.85-.359 9.774-5.613 8.435-17.232 5.392-18.774-4.916-.555-3.71-2.494-6.644-7.406-11.207l-4.385-4.072-.152 11.93-.152 11.93 6.464 6.404c7.095 7.03 9.21 10.29 8.348 12.875-.353 1.06-.96 1.597-1.94 1.714-1.123.133-2.54-.85-6.644-4.612-2.87-2.63-5.404-4.666-5.632-4.525-.228.14-.547 2.556-.708 5.368-.223 3.886-.56 5.468-1.402 6.596-1.396 1.868-3.542 2.18-4.88.711z"/></g></svg>