<svg xmlns="http://www.w3.org/2000/svg" width="259" height="316" xml:space="preserve"><path style="fill:#014263;fill-opacity:1" d="m34.74 311.84-3.009-3.008V162.838h-4.352c-2.393 0-5.97-.837-7.947-1.86-7.065-3.653-7.316-5.285-7.309-47.422.004-21.376.541-40.293 1.213-42.711 2.679-9.642 12.958-18.782 22.78-20.255 4.918-.738 5.422-1.13 5.422-4.223 0-6.238 4.804-18.913 9.51-25.091C66.043 1.589 90.35-4.297 112.151 6.477c9.84 4.864 18.145 13.014 22.567 22.148 1.463 3.021 2.817 5.493 3.009 5.493.192 0 2.694-.827 5.561-1.839 6.833-2.41 15.283-2.33 22.757.217 11.173 3.806 22.601 18.557 22.601 29.17 0 2.023 1.172 2.905 5.346 4.02 18.584 4.971 18.584 32.417 0 37.388-5.086 1.36-5.346 1.649-5.346 5.952v4.524l15.018.444c12.88.38 15.884.869 21.114 3.433 7.77 3.809 15.267 11.301 19.098 19.086l3 6.098v114.008l-3 6.098c-3.83 7.785-11.328 15.277-19.098 19.086-5.23 2.564-8.233 3.053-21.114 3.433l-15.018.444v11.576c0 10.656-.239 11.815-3.009 14.585l-3.009 3.009H37.75l-3.009-3.01z"/><path style="fill:#f1c357;fill-opacity:1" d="M178.84 295.235v-9.807H41.538v19.614h137.3v-9.807zM149.667 208.867c0-47.002-.41-67.653-1.385-69.794-3.102-6.808-13.743-6.808-16.845 0-.975 2.14-1.385 22.792-1.385 69.794v66.754H149.667v-66.754zM178.84 208.867c0-47.002-.41-67.653-1.386-69.794-3.102-6.808-13.742-6.808-16.844 0-.975 2.14-1.385 22.792-1.385 69.794v66.754h19.614v-66.754z"/><path style="fill:#d5e5ff;fill-opacity:1" d="M220.52 272.672c5.959-3.103 10.788-7.828 13.903-13.6 2.598-4.815 2.646-5.902 2.646-59.457s-.048-54.642-2.646-59.456c-3.115-5.773-7.944-10.498-13.903-13.6-3.18-1.657-7.86-2.362-18.082-2.725l-13.792-.49v9.855l13.4.415c14.478.449 17.207 1.514 22.689 8.856 2.463 3.299 2.527 4.76 2.527 57.145 0 52.385-.064 53.846-2.527 57.145-5.482 7.342-8.21 8.407-22.69 8.856l-13.399.415v9.854l13.792-.49c10.221-.362 14.902-1.067 18.082-2.723z"/><path style="fill:#fff;fill-opacity:1" d="m214.836 252.774 3.232-3.231v-99.856l-3.232-3.232c-3.032-3.031-3.943-3.232-14.71-3.232h-11.48v112.783h11.48c10.767 0 11.678-.2 14.71-3.232zM30.33 151.402c.87-1.048 1.47-11.162 1.683-28.37.296-23.917.557-26.883 2.476-28.093 2.766-1.743 6.125.235 7.05 4.152.923 3.913 4.28 5.894 7.048 4.158 1.619-1.015 2.298-3.571 2.769-10.414.343-4.987 1.324-10.303 2.181-11.813 3.365-5.928 13.015-8.157 19.9-4.597 4.537 2.346 6.332 5.676 7.462 13.842 3.397 24.545 35.13 24.645 39.007.122 1.413-8.937 4.092-10.912 14.8-10.912 11.831 0 13.907 1.913 14.712 13.554.46 6.663 1.147 9.208 2.758 10.218 3.77 2.366 6.357-.54 7.087-7.962.358-3.639 1.34-7.852 2.181-9.362 3.304-5.925 12.984-8.158 19.887-4.589 3.613 1.868 7.315 7.411 7.315 10.952 0 2.845 3.398 2.29 6.799-1.11 5.997-5.997 1.776-16.605-6.607-16.605-5.952 0-8.994-3.511-10.1-11.655-1.217-8.974-5.864-15.89-13.384-19.924-4.592-2.463-6.712-2.856-12.647-2.348-12.317 1.054-20.962 9.14-22.7 21.232-.932 6.485-3.781 9.242-7.253 7.017-4.367-2.798-1.687-17.505 4.815-26.42 1.232-1.688.965-3.213-1.467-8.406-3.78-8.07-10.385-14.878-18.63-19.2-5.6-2.936-7.888-3.396-16.898-3.396-8.979 0-11.304.464-16.815 3.354-12.706 6.664-20.54 18.027-22.256 32.282-.543 4.513-1.803 8.795-2.915 9.906-1.076 1.077-4.811 2.409-8.3 2.96-7.468 1.18-13.524 5.381-16.353 11.343-1.727 3.64-2.011 9.498-2.011 41.505 0 27.35.391 37.657 1.47 38.737 1.945 1.944 5.255 1.869 6.937-.158z"/><path style="fill:#f1c357;fill-opacity:1" d="M70.599 126.562c3.924-2.68 5.663-3.096 11.125-2.655 4.054.328 7.816 1.515 10.062 3.176l3.588 2.652 4.65-3.175c3.92-2.679 5.66-3.094 11.122-2.653 4.054.328 7.815 1.515 10.062 3.176l3.588 2.652 4.649-3.175c3.922-2.679 5.661-3.094 11.123-2.653 4.053.328 7.815 1.515 10.061 3.176l3.588 2.652 4.514-3.063c4.815-3.268 11.393-3.985 16.997-1.855l3.178 1.209-.34-17.32c-.293-14.933-.635-17.506-2.485-18.671-3.769-2.374-6.357.532-7.087 7.956-.794 8.07-2.603 11.534-7.293 13.96-7.33 3.79-16.763 1.243-20.231-5.464-1.023-1.978-1.86-6.658-1.86-10.4v-6.803h-4.764c-4.695 0-4.776.08-5.578 5.423-1.038 6.924-6.308 14.77-12.887 19.19-17.056 11.454-42.241.496-44.809-19.497-.887-6.91-2.04-9.274-4.787-9.815-4.035-.793-5.632 2.164-5.632 10.426 0 12.614-5.018 18.79-15.263 18.79h-4.352v11.92l4.647-1.241c5.721-1.527 12.632-.346 16.413 2.805 1.565 1.305 2.959 2.39 3.097 2.413.139.022 2.346-1.39 4.904-3.136zM120.494 208.867c0-47.002-.41-67.653-1.385-69.794-3.102-6.808-13.742-6.808-16.844 0-.975 2.14-1.385 22.792-1.385 69.794v66.754h19.614v-66.754zM91.322 208.867c0-47.002-.41-67.653-1.385-69.794-3.102-6.808-13.743-6.808-16.845 0-.975 2.14-1.385 22.792-1.385 69.794v66.754H91.322v-66.754zM62.15 208.867c0-47.002-.41-67.653-1.386-69.794-3.102-6.808-13.742-6.808-16.844 0-.975 2.14-1.385 22.792-1.385 69.794v66.754h19.614v-66.754z"/><path d="M178.84 301.92V298.8H41.538v6.243h137.3v-3.121zM178.84 210.547c0-45.818-.122-65.95-.41-68.037-.917-6.637-4.062-6.637-4.98 0-.288 2.087-.409 22.219-.409 68.037v65.074h5.798v-65.074zM149.285 210.547c0-45.818-.121-65.95-.41-68.037-.916-6.637-4.062-6.637-4.979 0-.288 2.087-.409 22.219-.409 68.037v65.074h5.798v-65.074zM120.393 210.547c0-45.818-.12-65.95-.409-68.037-.917-6.637-4.062-6.637-4.979 0-.288 2.087-.41 22.219-.41 68.037v65.074h5.798v-65.074zM90.84 210.547c0-45.818-.122-65.95-.41-68.037-.917-6.637-4.062-6.637-4.98 0-.288 2.087-.409 22.219-.409 68.037v65.074h5.798v-65.074zM61.285 210.547c0-45.818-.121-65.95-.41-68.037-.916-6.637-4.062-6.637-4.979 0-.288 2.087-.409 22.219-.409 68.037v65.074h5.798v-65.074z" style="fill:#d6942a;fill-opacity:1"/><circle style="opacity:1;fill:#ccc;fill-opacity:1;fill-rule:evenodd;stroke:none;stroke-width:7;stroke-linecap:round;stroke-linejoin:round;stroke-miterlimit:4;stroke-dasharray:none;stroke-dashoffset:0;stroke-opacity:1" cx="81.563" cy="36.102" r="4.903"/><circle r="4.903" cy="38.33" cx="102.511" style="opacity:1;fill:#ccc;fill-opacity:1;fill-rule:evenodd;stroke:none;stroke-width:7;stroke-linecap:round;stroke-linejoin:round;stroke-miterlimit:4;stroke-dasharray:none;stroke-dashoffset:0;stroke-opacity:1"/><circle style="opacity:1;fill:#ccc;fill-opacity:1;fill-rule:evenodd;stroke:none;stroke-width:7;stroke-linecap:round;stroke-linejoin:round;stroke-miterlimit:4;stroke-dasharray:none;stroke-dashoffset:0;stroke-opacity:1" cx="91.814" cy="56.604" r="4.903"/><circle r="4.903" cy="63.735" cx="64.626" style="opacity:1;fill:#ccc;fill-opacity:1;fill-rule:evenodd;stroke:none;stroke-width:7;stroke-linecap:round;stroke-linejoin:round;stroke-miterlimit:4;stroke-dasharray:none;stroke-dashoffset:0;stroke-opacity:1"/><circle style="opacity:1;fill:#ccc;fill-opacity:1;fill-rule:evenodd;stroke:none;stroke-width:7;stroke-linecap:round;stroke-linejoin:round;stroke-miterlimit:4;stroke-dasharray:none;stroke-dashoffset:0;stroke-opacity:1" cx="146.189" cy="61.952" r="4.903"/><circle r="4.903" cy="69.975" cx="161.788" style="opacity:1;fill:#ccc;fill-opacity:1;fill-rule:evenodd;stroke:none;stroke-width:7;stroke-linecap:round;stroke-linejoin:round;stroke-miterlimit:4;stroke-dasharray:none;stroke-dashoffset:0;stroke-opacity:1"/><circle style="opacity:1;fill:#ccc;fill-opacity:1;fill-rule:evenodd;stroke:none;stroke-width:7;stroke-linecap:round;stroke-linejoin:round;stroke-miterlimit:4;stroke-dasharray:none;stroke-dashoffset:0;stroke-opacity:1" cx="32.982" cy="82.008" r="4.903"/><circle r="4.903" cy="81.117" cx="101.173" style="opacity:1;fill:#ccc;fill-opacity:1;fill-rule:evenodd;stroke:none;stroke-width:7;stroke-linecap:round;stroke-linejoin:round;stroke-miterlimit:4;stroke-dasharray:none;stroke-dashoffset:0;stroke-opacity:1"/></svg>